<?xml version="1.0" encoding="UTF-8" standalone="no"?>
<!-- Created with Inkscape (http://www.inkscape.org/) -->

<svg
   width="384"
   height="128"
   viewBox="0 0 101.6 33.866666"
   version="1.1"
   id="svg1"
   xml:space="preserve"
   inkscape:version="1.3.2 (091e20e, 2023-11-25, custom)"
   sodipodi:docname="LevelButton.svg"
   xmlns:inkscape="http://www.inkscape.org/namespaces/inkscape"
   xmlns:sodipodi="http://sodipodi.sourceforge.net/DTD/sodipodi-0.dtd"
   xmlns:xlink="http://www.w3.org/1999/xlink"
   xmlns="http://www.w3.org/2000/svg"
   xmlns:svg="http://www.w3.org/2000/svg"><sodipodi:namedview
     id="namedview1"
     pagecolor="#ffffff"
     bordercolor="#000000"
     borderopacity="0.25"
     inkscape:showpageshadow="2"
     inkscape:pageopacity="0.0"
     inkscape:pagecheckerboard="0"
     inkscape:deskcolor="#d1d1d1"
     inkscape:document-units="px"
     inkscape:zoom="4.1373682"
     inkscape:cx="255.35557"
     inkscape:cy="62.479332"
     inkscape:window-width="1920"
     inkscape:window-height="1017"
     inkscape:window-x="-8"
     inkscape:window-y="-8"
     inkscape:window-maximized="1"
     inkscape:current-layer="layer1"
     showguides="false" /><defs
     id="defs1"><linearGradient
       id="linearGradient5"
       inkscape:collect="always"><stop
         style="stop-color:#ffffff;stop-opacity:1;"
         offset="0"
         id="stop5" /><stop
         style="stop-color:#c7fbff;stop-opacity:1;"
         offset="1"
         id="stop6" /></linearGradient><linearGradient
       id="linearGradient3"
       inkscape:collect="always"><stop
         style="stop-color:#43d3ff;stop-opacity:1;"
         offset="0"
         id="stop4" /><stop
         style="stop-color:#0003bf;stop-opacity:1;"
         offset="1"
         id="stop3" /></linearGradient><linearGradient
       inkscape:collect="always"
       xlink:href="#linearGradient3"
       id="linearGradient4"
       x1="16.933332"
       y1="2.9613347"
       x2="16.933332"
       y2="30.905331"
       gradientUnits="userSpaceOnUse" /><linearGradient
       inkscape:collect="always"
       xlink:href="#linearGradient5"
       id="linearGradient6"
       x1="16.933332"
       y1="2.9613347"
       x2="16.933332"
       y2="30.905331"
       gradientUnits="userSpaceOnUse" /></defs><g
     inkscape:label="Calque 1"
     inkscape:groupmode="layer"
     id="layer1"><g
       id="g10"
       inkscape:label="ButtonOff"><rect
         style="fill:#2f3131;fill-opacity:1;stroke:none;stroke-width:1.67769;stroke-dasharray:none;stroke-opacity:1"
         id="rect10"
         width="29.531496"
         height="29.531496"
         x="36.034252"
         y="2.1675854"
         ry="3.6318994"
         inkscape:label="Back" /><rect
         style="fill:#a0abad;fill-opacity:1;stroke:none;stroke-width:1.63929;stroke-dasharray:none;stroke-opacity:1"
         id="rect9"
         width="29.531496"
         height="28.195116"
         x="36.034252"
         y="2.1675854"
         ry="3.4675462"
         inkscape:label="Front" /><g
         id="g11"
         inkscape:label="Lock"
         transform="matrix(0.80062636,0,0,0.80062636,10.128287,4.0934794)"><path
           id="path10"
           style="fill:#000000;stroke-width:0.155461"
           d="m 50.945727,3.3842895 c -2.896301,-0.063427 -5.573258,1.787063 -6.404261,4.7108235 -0.14107,0.4963375 -0.148605,0.5880308 -0.171565,2.088761 l -0.02429,1.569414 -0.666626,0.02894 c -0.983978,0.04291 -1.526758,0.259135 -2.106332,0.838709 -0.383762,0.383762 -0.687157,0.944086 -0.781347,1.443839 -0.07982,0.423353 -0.07504,9.06595 0.0052,9.450586 0.212366,1.01836 1.123114,1.931797 2.147673,2.15439 0.278019,0.0604 1.748804,0.07513 7.855334,0.07803 6.518178,0.0031 7.560324,-0.0077 7.865153,-0.07958 1.041683,-0.245542 1.925784,-1.1359 2.137854,-2.15284 0.08452,-0.405296 0.08452,-9.104718 0,-9.510014 -0.105272,-0.50481 -0.364211,-0.972078 -0.757576,-1.366324 -0.612664,-0.614035 -1.282951,-0.868332 -2.293917,-0.870232 l -0.507463,-10e-4 v -1.363741 c 0,-0.9537091 -0.02432,-1.5022557 -0.08062,-1.8236614 C 56.779521,6.3911608 55.119086,4.4779179 52.965758,3.7444742 52.294042,3.5156814 51.614104,3.3989265 50.945727,3.3842895 Z M 51.093004,6.19187 c 0.462336,0.02852 0.871182,0.1503652 1.366325,0.3948079 0.832295,0.4108876 1.481356,1.1600756 1.780253,2.0551717 0.106723,0.3195807 0.120907,0.4995342 0.139527,1.7409794 l 0.02119,1.384928 h -3.59668 -3.596163 l 10e-4,-1.220081 c 0.0011,-1.3959602 0.05733,-1.7776912 0.351917,-2.3724646 0.339568,-0.6855953 0.911908,-1.2617705 1.593701,-1.6045532 0.482818,-0.2427447 0.868533,-0.3426279 1.453658,-0.3772379 0.17104,-0.010116 0.33113,-0.011057 0.485241,-0.00155 z m -0.293005,9.13846 c 1.085124,-7e-5 1.964808,0.879614 1.964738,1.964738 -2.24e-4,0.682161 -0.354293,0.546652 -0.935343,0.904039 l 0.465604,3.442982 H 49.305 l 0.465604,-3.445049 c -0.580424,-0.357001 -0.934402,-0.220547 -0.935343,-0.901972 -7e-5,-1.085124 0.879614,-1.964808 1.964738,-1.964738 z"
           inkscape:label="LockBack"
           sodipodi:nodetypes="sscccscsscssssccssssssscccccsssscccccccc" /><path
           id="path11"
           style="fill:#414141;fill-opacity:1;stroke-width:0.155461"
           d="m 50.945727,2.6155624 c -2.896301,-0.063427 -5.573258,1.787063 -6.404261,4.7108235 -0.14107,0.4963375 -0.148605,0.5880308 -0.171565,2.088761 l -0.02429,1.5694141 -0.666626,0.02894 c -0.983978,0.04291 -1.526758,0.259135 -2.106332,0.838709 -0.383762,0.383762 -0.687157,0.944086 -0.781347,1.443839 -0.07982,0.423353 -0.07504,9.06595 0.0052,9.450586 0.212366,1.01836 1.123114,1.931797 2.147673,2.15439 0.278019,0.0604 1.748804,0.07513 7.855334,0.07803 6.518178,0.0031 7.560324,-0.0077 7.865153,-0.07958 1.041683,-0.245542 1.925784,-1.1359 2.137854,-2.15284 0.08452,-0.405296 0.08452,-9.104718 0,-9.510014 -0.105272,-0.50481 -0.364211,-0.972078 -0.757576,-1.366324 -0.612664,-0.614035 -1.282951,-0.868332 -2.293917,-0.870232 l -0.507463,-10e-4 V 9.6352889 c 0,-0.9537091 -0.02432,-1.5022557 -0.08062,-1.8236614 C 56.779521,5.6224337 55.119086,3.7091908 52.965758,2.9757471 52.294042,2.7469543 51.614104,2.6301994 50.945727,2.6155624 Z m 0.147277,2.8075805 c 0.462336,0.02852 0.871182,0.1503652 1.366325,0.3948079 0.832295,0.4108876 1.481356,1.1600756 1.780253,2.0551717 0.106723,0.3195807 0.120907,0.4995342 0.139527,1.7409794 l 0.02119,1.3849281 h -3.59668 -3.596163 l 10e-4,-1.2200811 c 0.0011,-1.3959602 0.05733,-1.7776912 0.351917,-2.3724646 0.339568,-0.6855953 0.911908,-1.2617705 1.593701,-1.6045532 0.482818,-0.2427447 0.868533,-0.3426279 1.453658,-0.3772379 0.17104,-0.010116 0.33113,-0.011057 0.485241,-0.00155 z m -0.293005,9.1384601 a 1.9646106,1.9646106 0 0 1 1.964738,1.964738 1.9646106,1.9646106 0 0 1 -0.935343,1.672766 l 0.465604,2.674255 H 49.305 l 0.465604,-2.676322 a 1.9646106,1.9646106 0 0 1 -0.935343,-1.670699 1.9646106,1.9646106 0 0 1 1.964738,-1.964738 z"
           inkscape:label="LockFront" /></g></g><rect
       style="fill:url(#linearGradient6);fill-opacity:1;stroke:url(#linearGradient4);stroke-width:1.5875;stroke-dasharray:none;stroke-opacity:1"
       id="rect3"
       width="27.943996"
       height="27.943996"
       x="2.9613347"
       y="2.9613347"
       ry="3.4366624"
       inkscape:label="ButtonOn" /><g
       id="g9"
       inkscape:label="NavButton"
       transform="matrix(1.5895125,0,0,1.5918285,-50.454803,-9.6336553)"><path
         id="path9"
         style="fill:#04289d;fill-opacity:1;stroke:none;stroke-width:0.560183;stroke-dasharray:none;stroke-opacity:1"
         inkscape:transform-center-x="-1.6902907"
         d="m 90.667116,16.933724 c -0.07788,2.257799 -8.695439,9.724354 -10.022934,9.016763 -1.431677,-0.763122 -1.999929,-17.1891372 0,-18.033525 2.009863,-0.8485825 10.096122,6.894863 10.022934,9.016762 z"
         sodipodi:nodetypes="ssss"
         inkscape:label="Back" /><path
         id="path8"
         style="fill:#dcf4ff;fill-opacity:1;stroke:#2559f5;stroke-width:0.529167;stroke-dasharray:none;stroke-opacity:1"
         inkscape:transform-center-x="-1.5785568"
         d="m 90.187527,16.325811 c -0.07273,2.157303 -8.12064,9.291519 -9.360383,8.615423 -1.337039,-0.729155 -1.867727,-16.4240424 0,-17.2308462 1.877004,-0.8108118 9.428732,6.5879702 9.360383,8.6154232 z"
         sodipodi:nodetypes="ssss"
         inkscape:label="Front" /></g></g></svg>
