<?xml version="1.0" encoding="UTF-8" standalone="no"?>
<!-- Created with Inkscape (http://www.inkscape.org/) -->

<svg
   width="512"
   height="256"
   viewBox="0 0 135.46667 67.733332"
   version="1.1"
   id="svg1"
   xml:space="preserve"
   inkscape:version="1.3.2 (091e20e, 2023-11-25, custom)"
   sodipodi:docname="ButtonIcon.svg"
   xmlns:inkscape="http://www.inkscape.org/namespaces/inkscape"
   xmlns:sodipodi="http://sodipodi.sourceforge.net/DTD/sodipodi-0.dtd"
   xmlns="http://www.w3.org/2000/svg"
   xmlns:svg="http://www.w3.org/2000/svg"><sodipodi:namedview
     id="namedview1"
     pagecolor="#ffffff"
     bordercolor="#000000"
     borderopacity="0.25"
     inkscape:showpageshadow="2"
     inkscape:pageopacity="0.0"
     inkscape:pagecheckerboard="0"
     inkscape:deskcolor="#d1d1d1"
     inkscape:document-units="px"
     inkscape:zoom="2.0686841"
     inkscape:cx="118.91617"
     inkscape:cy="193.11793"
     inkscape:window-width="1920"
     inkscape:window-height="1017"
     inkscape:window-x="-8"
     inkscape:window-y="-8"
     inkscape:window-maximized="1"
     inkscape:current-layer="layer1"
     showgrid="true"><inkscape:grid
       id="grid1"
       units="px"
       originx="0"
       originy="0"
       spacingx="0.26458334"
       spacingy="0.26458333"
       empcolor="#0099e5"
       empopacity="0.30196078"
       color="#0099e5"
       opacity="0.14901961"
       empspacing="64"
       dotted="false"
       gridanglex="30"
       gridanglez="30"
       visible="true" /></sodipodi:namedview><defs
     id="defs1" /><g
     inkscape:label="Calque 1"
     inkscape:groupmode="layer"
     id="layer1"><path
       style="fill:#ffffff;fill-opacity:1;stroke:#000000;stroke-width:0.79375;stroke-dasharray:none;stroke-opacity:1"
       d="m 110.19106,29.676661 c -0.71558,-0.202067 -1.38924,-0.642419 -1.79428,-1.172885 -0.7039,-0.921865 -0.6764,-0.420458 -0.64569,-11.775473 l 0.0277,-10.2370878 0.2862,-0.5828055 c 0.32958,-0.6711437 0.92282,-1.2493374 1.60593,-1.565196 0.43187,-0.1996898 0.65221,-0.2200568 2.38066,-0.2200568 1.86968,0 1.91443,0.0051 2.43061,0.2774429 0.72509,0.3825392 1.44328,1.2055711 1.63874,1.8779609 0.13541,0.465792 0.15223,1.8919031 0.12814,10.8761943 l -0.0276,10.34011 -0.27395,0.514796 c -0.3474,0.652851 -0.81009,1.093471 -1.52784,1.454952 -0.53531,0.269602 -0.65352,0.286828 -2.16214,0.315064 -1.07687,0.02016 -1.7489,-0.01334 -2.06646,-0.103012 z m 12.95396,0.02834 c -1.00032,-0.249498 -1.77205,-0.854671 -2.26404,-1.775396 l -0.2323,-0.434713 -0.0276,-10.340112 c -0.0241,-8.9842889 -0.008,-10.4104001 0.12815,-10.8761921 0.196,-0.6742283 0.916,-1.4978904 1.63873,-1.8746722 0.498,-0.2596206 0.61866,-0.2761694 2.27619,-0.3121791 1.60652,-0.0349 1.80105,-0.019287 2.36806,0.1900032 0.81631,0.3013156 1.58528,1.070433 1.89328,1.8936179 l 0.22122,0.5912852 -0.0276,10.3126451 -0.0276,10.312647 -0.28727,0.58497 c -0.33877,0.689852 -0.82681,1.147607 -1.61278,1.512683 -0.52356,0.243191 -0.6992,0.26715 -2.11536,0.288517 -0.84941,0.01281 -1.71832,-0.02007 -1.93091,-0.07311 z"
       id="path1"
       inkscape:label="Pause" /><path
       style="fill:#ffffff;fill-opacity:1;stroke:#000000;stroke-width:0.79375;stroke-dasharray:none;stroke-opacity:1"
       d="m 50.504936,28.657103 c -1.129588,-0.06955 -2.335948,-0.316972 -3.321357,-0.681219 -1.562099,-0.577414 -3.221857,-1.635392 -4.233269,-2.698409 -0.408764,-0.429621 -0.51548,-0.682571 -0.51548,-1.221859 0,-0.518386 0.103895,-0.783867 0.452689,-1.156756 0.339655,-0.363119 0.647919,-0.486312 1.216204,-0.486036 0.581108,2.88e-4 0.766311,0.08721 1.385041,0.650105 1.625533,1.478838 3.589128,2.256045 5.699305,2.255834 1.426369,-1.43e-4 2.586202,-0.282051 3.875074,-0.94187 3.3898,-1.735358 5.19159,-5.599255 4.338222,-9.303216 -0.796319,-3.456351 -3.6056,-6.0116546 -7.124226,-6.4801515 -1.248618,-0.1662503 -2.476611,-0.041301 -3.751019,0.3816765 -1.277727,0.4240768 -2.234678,1.03313 -3.376696,2.149104 l -0.779184,0.761415 1.561924,0.0253 c 1.503529,0.02436 1.570803,0.02968 1.799393,0.14227 0.314408,0.154867 0.612401,0.450754 0.785033,0.779487 0.123216,0.234633 0.14045,0.32321 0.140634,0.722823 1.67e-4,0.359808 -0.02269,0.505096 -0.10888,0.692023 -0.153848,0.333672 -0.46941,0.656092 -0.811845,0.829488 l -0.293012,0.148375 h -3.770934 -3.770934 l -0.338393,-0.166586 c -0.367897,-0.181108 -0.619197,-0.434095 -0.80785,-0.813277 L 38.638657,14.011025 V 10.21584 6.4206541 l 0.112251,-0.2408147 c 0.157835,-0.3386067 0.525649,-0.713082 0.838378,-0.8535624 0.37938,-0.1704205 1.070759,-0.1712567 1.415037,-0.0017 0.31838,0.156791 0.646336,0.4822388 0.799388,0.7932746 0.122384,0.2487131 0.124319,0.2737965 0.139456,1.8082382 0.0084,0.8558137 0.02962,1.5560255 0.04706,1.5560255 0.01744,0 0.352101,-0.3140498 0.743687,-0.697889 1.015775,-0.99568 1.661904,-1.5010253 2.631415,-2.0580586 1.135721,-0.6525305 2.37514,-1.1050472 3.734893,-1.3636241 1.551121,-0.2949684 3.51131,-0.2209073 5.098691,0.1926431 3.293407,0.8580099 6.048091,3.120478 7.566011,6.2140933 2.234693,4.554438 1.277979,10.057168 -2.36074,13.578275 -1.705408,1.650285 -3.750469,2.711441 -6.041911,3.135075 -0.59293,0.109618 -0.904871,0.14159 -1.921195,0.196905 -0.166988,0.0091 -0.588254,-0.001 -0.936146,-0.02242 z"
       id="path3"
       inkscape:label="Next" /><path
       style="fill:#ffffff;fill-opacity:1;stroke:#000000;stroke-width:0.79375;stroke-dasharray:none;stroke-opacity:1"
       d="m 79.990665,29.36602 c -0.804497,-0.12428 -1.482634,-0.620975 -1.88204,-1.378484 l -0.219083,-0.41551 V 16.958879 6.345731 l 0.19078,-0.4221319 c 0.239577,-0.530104 0.908784,-1.1564677 1.42263,-1.3315525 0.208056,-0.070892 0.631863,-0.128296 0.944009,-0.1278649 0.966856,0.00134 1.177386,0.1440372 3.289824,2.2299077 1.013255,1.0005117 3.429651,3.3859766 5.369768,5.3010336 3.97856,3.927169 3.907875,3.838307 3.916594,4.923707 0.009,1.115657 0.168547,0.928365 -5.802045,6.809452 -4.530705,4.462784 -5.312068,5.199542 -5.727095,5.400152 -0.539297,0.260678 -0.941946,0.324313 -1.503342,0.237586 z"
       id="path4"
       inkscape:label="Retry" /><path
       style="fill:#ffffff;fill-opacity:1;stroke:#000000;stroke-width:0.79375;stroke-dasharray:none;stroke-opacity:1"
       d="m 3.4173296,27.752583 c -0.860661,-0.30273 -1.502481,-0.974247 -1.752209,-1.83328 -0.1092,-0.375629 -0.129954,-0.877176 -0.107629,-2.60008 0.02541,-1.961534 0.04291,-2.167649 0.215639,-2.541208 0.269808,-0.583513 0.763704,-1.090264 1.336999,-1.371798 l 0.497834,-0.244477 h 2.330626 2.330624 l 0.497835,0.244477 c 0.573295,0.281534 1.067191,0.788285 1.3369994,1.371798 0.173376,0.374963 0.190096,0.577611 0.215312,2.609618 0.02594,2.089668 0.01739,2.229659 -0.165782,2.719251 -0.2434564,0.650695 -0.7500434,1.204671 -1.3882034,1.518063 l -0.496161,0.243657 -2.198703,0.02193 c -1.936106,0.01931 -2.252981,0.0028 -2.653179,-0.13794 z m 10.9935144,0 c -0.860659,-0.30273 -1.502482,-0.974247 -1.752209,-1.83328 -0.109199,-0.375629 -0.129954,-0.877176 -0.107628,-2.60008 0.02541,-1.961534 0.04291,-2.167649 0.215639,-2.541208 0.269808,-0.583513 0.763704,-1.090264 1.336999,-1.371798 l 0.497834,-0.244477 h 2.330625 2.330625 l 0.497834,0.244477 c 0.573295,0.281534 1.067191,0.788285 1.336998,1.371798 0.173377,0.374963 0.190098,0.577611 0.215314,2.609618 0.02594,2.089668 0.01739,2.229659 -0.165783,2.719251 -0.243456,0.650695 -0.750043,1.204671 -1.388203,1.518063 l -0.49616,0.243657 -2.198703,0.02193 c -1.936107,0.01931 -2.252982,0.0028 -2.653179,-0.13794 z m 10.993516,0 c -0.860661,-0.30273 -1.502483,-0.974247 -1.75221,-1.83328 -0.1092,-0.375629 -0.129968,-0.877176 -0.107629,-2.60008 0.02541,-1.961534 0.04291,-2.167649 0.215639,-2.541208 0.269808,-0.583513 0.763704,-1.090264 1.336999,-1.371798 l 0.497835,-0.244477 h 2.330625 2.330626 l 0.497833,0.244477 c 0.573295,0.281534 1.067191,0.788285 1.336997,1.371798 0.173378,0.374963 0.190098,0.577611 0.215314,2.609618 0.02594,2.089668 0.01741,2.229659 -0.165782,2.719251 -0.243456,0.650695 -0.750045,1.204671 -1.388205,1.518063 l -0.496157,0.243657 -2.198703,0.02193 c -1.936108,0.01931 -2.252983,0.0028 -2.653179,-0.13794 z M 3.4173296,14.560366 c -0.860661,-0.302731 -1.502481,-0.974249 -1.752209,-1.833281 -0.1092,-0.37563 -0.129954,-0.877177 -0.107629,-2.600079 0.02541,-1.9615328 0.04291,-2.1676509 0.215639,-2.5412082 0.269808,-0.5835135 0.763704,-1.0902649 1.336999,-1.3717983 l 0.497834,-0.2444772 h 2.330626 2.330624 l 0.497835,0.2444772 c 0.573295,0.2815334 1.067191,0.7882848 1.3369994,1.3717983 0.173376,0.374963 0.190096,0.577611 0.215312,2.6096172 0.02594,2.089667 0.01739,2.229659 -0.165782,2.719252 -0.2434564,0.650695 -0.7500434,1.20467 -1.3882034,1.518061 l -0.496161,0.243658 -2.198703,0.02192 c -1.936106,0.01931 -2.252981,0.0028 -2.653179,-0.137938 z m 10.9935144,0 c -0.860659,-0.302731 -1.502482,-0.974249 -1.752209,-1.833281 -0.109199,-0.37563 -0.129954,-0.877177 -0.107628,-2.600079 0.02541,-1.9615328 0.04291,-2.1676509 0.215639,-2.5412082 0.269808,-0.5835135 0.763704,-1.0902649 1.336999,-1.3717983 l 0.497834,-0.2444772 h 2.330625 2.330625 l 0.497834,0.2444772 c 0.573295,0.2815334 1.067191,0.7882848 1.336998,1.3717983 0.173377,0.374963 0.190098,0.577611 0.215314,2.6096172 0.02594,2.089667 0.01739,2.229659 -0.165783,2.719252 -0.243456,0.650695 -0.750043,1.20467 -1.388203,1.518061 l -0.49616,0.243658 -2.198703,0.02192 c -1.936107,0.01931 -2.252982,0.0028 -2.653179,-0.137938 z m 10.993516,0 c -0.860661,-0.302731 -1.502483,-0.974249 -1.75221,-1.833281 -0.1092,-0.37563 -0.129968,-0.877177 -0.107629,-2.600079 0.02541,-1.9615328 0.04291,-2.1676509 0.215639,-2.5412082 0.269808,-0.5835135 0.763704,-1.0902649 1.336999,-1.3717983 l 0.497835,-0.2444772 h 2.330625 2.330626 l 0.497833,0.2444772 c 0.573295,0.2815334 1.067191,0.7882848 1.336997,1.3717983 0.173378,0.374963 0.190098,0.577611 0.215314,2.6096172 0.02594,2.089667 0.01741,2.229659 -0.165782,2.719252 -0.243456,0.650695 -0.750045,1.20467 -1.388205,1.518061 l -0.496157,0.243658 -2.198703,0.02192 c -1.936108,0.01931 -2.252983,0.0028 -2.653179,-0.137938 z"
       id="path5"
       inkscape:label="LevelSelect" /><g
       id="g11"
       inkscape:label="Lock"
       transform="matrix(0.98622485,0,0,0.98622485,-33.166863,35.894139)"><path
         id="path10"
         style="fill:#000000;stroke-width:0.155461"
         d="m 50.945727,3.3842895 c -2.896301,-0.063427 -5.573258,1.787063 -6.404261,4.7108235 -0.14107,0.4963375 -0.148605,0.5880308 -0.171565,2.088761 l -0.02429,1.569414 -0.666626,0.02894 c -0.983978,0.04291 -1.526758,0.259135 -2.106332,0.838709 -0.383762,0.383762 -0.687157,0.944086 -0.781347,1.443839 -0.07982,0.423353 -0.07504,9.06595 0.0052,9.450586 0.212366,1.01836 1.123114,1.931797 2.147673,2.15439 0.278019,0.0604 1.748804,0.07513 7.855334,0.07803 6.518178,0.0031 7.560324,-0.0077 7.865153,-0.07958 1.041683,-0.245542 1.925784,-1.1359 2.137854,-2.15284 0.08452,-0.405296 0.08452,-9.104718 0,-9.510014 -0.105272,-0.50481 -0.364211,-0.972078 -0.757576,-1.366324 -0.612664,-0.614035 -1.282951,-0.868332 -2.293917,-0.870232 l -0.507463,-10e-4 v -1.363741 c 0,-0.9537091 -0.02432,-1.5022557 -0.08062,-1.8236614 C 56.779521,6.3911608 55.119086,4.4779179 52.965758,3.7444742 52.294042,3.5156814 51.614104,3.3989265 50.945727,3.3842895 Z M 51.093004,6.19187 c 0.462336,0.02852 0.871182,0.1503652 1.366325,0.3948079 0.832295,0.4108876 1.481356,1.1600756 1.780253,2.0551717 0.106723,0.3195807 0.120907,0.4995342 0.139527,1.7409794 l 0.02119,1.384928 h -3.59668 -3.596163 l 10e-4,-1.220081 c 0.0011,-1.3959602 0.05733,-1.7776912 0.351917,-2.3724646 0.339568,-0.6855953 0.911908,-1.2617705 1.593701,-1.6045532 0.482818,-0.2427447 0.868533,-0.3426279 1.453658,-0.3772379 0.17104,-0.010116 0.33113,-0.011057 0.485241,-0.00155 z m -0.293005,9.13846 c 1.085124,-7e-5 1.964808,0.879614 1.964738,1.964738 -2.24e-4,0.682161 -0.354293,0.546652 -0.935343,0.904039 l 0.465604,3.442982 H 49.305 l 0.465604,-3.445049 c -0.580424,-0.357001 -0.934402,-0.220547 -0.935343,-0.901972 -7e-5,-1.085124 0.879614,-1.964808 1.964738,-1.964738 z"
         inkscape:label="LockBack"
         sodipodi:nodetypes="sscccscsscssssccssssssscccccsssscccccccc" /><path
         id="path11"
         style="fill:#afafaf;fill-opacity:1;stroke-width:0.155461"
         d="m 50.945727,2.6155624 c -2.896301,-0.063427 -5.573258,1.787063 -6.404261,4.7108235 -0.14107,0.4963375 -0.148605,0.5880308 -0.171565,2.088761 l -0.02429,1.5694141 -0.666626,0.02894 c -0.983978,0.04291 -1.526758,0.259135 -2.106332,0.838709 -0.383762,0.383762 -0.687157,0.944086 -0.781347,1.443839 -0.07982,0.423353 -0.07504,9.06595 0.0052,9.450586 0.212366,1.01836 1.123114,1.931797 2.147673,2.15439 0.278019,0.0604 1.748804,0.07513 7.855334,0.07803 6.518178,0.0031 7.560324,-0.0077 7.865153,-0.07958 1.041683,-0.245542 1.925784,-1.1359 2.137854,-2.15284 0.08452,-0.405296 0.08452,-9.104718 0,-9.510014 -0.105272,-0.50481 -0.364211,-0.972078 -0.757576,-1.366324 -0.612664,-0.614035 -1.282951,-0.868332 -2.293917,-0.870232 l -0.507463,-10e-4 V 9.6352889 c 0,-0.9537091 -0.02432,-1.5022557 -0.08062,-1.8236614 C 56.779521,5.6224337 55.119086,3.7091908 52.965758,2.9757471 52.294042,2.7469543 51.614104,2.6301994 50.945727,2.6155624 Z m 0.147277,2.8075805 c 0.462336,0.02852 0.871182,0.1503652 1.366325,0.3948079 0.832295,0.4108876 1.481356,1.1600756 1.780253,2.0551717 0.106723,0.3195807 0.120907,0.4995342 0.139527,1.7409794 l 0.02119,1.3849281 h -3.59668 -3.596163 l 10e-4,-1.2200811 c 0.0011,-1.3959602 0.05733,-1.7776912 0.351917,-2.3724646 0.339568,-0.6855953 0.911908,-1.2617705 1.593701,-1.6045532 0.482818,-0.2427447 0.868533,-0.3426279 1.453658,-0.3772379 0.17104,-0.010116 0.33113,-0.011057 0.485241,-0.00155 z m -0.293005,9.1384601 a 1.9646106,1.9646106 0 0 1 1.964738,1.964738 1.9646106,1.9646106 0 0 1 -0.935343,1.672766 l 0.465604,2.674255 H 49.305 l 0.465604,-2.676322 a 1.9646106,1.9646106 0 0 1 -0.935343,-1.670699 1.9646106,1.9646106 0 0 1 1.964738,-1.964738 z"
         inkscape:label="LockFront" /></g></g></svg>
