<?xml version="1.0" encoding="UTF-8" standalone="no"?>
<!-- Created with Inkscape (http://www.inkscape.org/) -->

<svg
   width="384"
   height="128"
   viewBox="0 0 101.6 33.866666"
   version="1.1"
   id="svg1"
   xml:space="preserve"
   inkscape:version="1.3.2 (091e20e, 2023-11-25, custom)"
   sodipodi:docname="ButtonIcon.svg"
   xmlns:inkscape="http://www.inkscape.org/namespaces/inkscape"
   xmlns:sodipodi="http://sodipodi.sourceforge.net/DTD/sodipodi-0.dtd"
   xmlns="http://www.w3.org/2000/svg"
   xmlns:svg="http://www.w3.org/2000/svg"><sodipodi:namedview
     id="namedview1"
     pagecolor="#ffffff"
     bordercolor="#000000"
     borderopacity="0.25"
     inkscape:showpageshadow="2"
     inkscape:pageopacity="0.0"
     inkscape:pagecheckerboard="0"
     inkscape:deskcolor="#d1d1d1"
     inkscape:document-units="px"
     inkscape:zoom="2.0686841"
     inkscape:cx="144.53632"
     inkscape:cy="101.75551"
     inkscape:window-width="1920"
     inkscape:window-height="1017"
     inkscape:window-x="-8"
     inkscape:window-y="-8"
     inkscape:window-maximized="1"
     inkscape:current-layer="layer1" /><defs
     id="defs1" /><g
     inkscape:label="Calque 1"
     inkscape:groupmode="layer"
     id="layer1"><path
       style="fill:#ffffff;stroke-width:0.79374999;stroke:#000000;stroke-opacity:1;stroke-dasharray:none;fill-opacity:1"
       d="m 50.504936,28.657103 c -1.129588,-0.06955 -2.335948,-0.316972 -3.321357,-0.681219 -1.562099,-0.577414 -3.221857,-1.635392 -4.233269,-2.698409 -0.408764,-0.429621 -0.51548,-0.682571 -0.51548,-1.221859 0,-0.518386 0.103895,-0.783867 0.452689,-1.156756 0.339655,-0.363119 0.647919,-0.486312 1.216204,-0.486036 0.581108,2.88e-4 0.766311,0.08721 1.385041,0.650105 1.625533,1.478838 3.589128,2.256045 5.699305,2.255834 1.426369,-1.43e-4 2.586202,-0.282051 3.875074,-0.94187 3.3898,-1.735358 5.19159,-5.599255 4.338222,-9.303216 -0.796319,-3.456351 -3.6056,-6.0116546 -7.124226,-6.4801515 -1.248618,-0.1662503 -2.476611,-0.041301 -3.751019,0.3816765 -1.277727,0.4240768 -2.234678,1.03313 -3.376696,2.149104 l -0.779184,0.761415 1.561924,0.0253 c 1.503529,0.02436 1.570803,0.02968 1.799393,0.14227 0.314408,0.154867 0.612401,0.450754 0.785033,0.779487 0.123216,0.234633 0.14045,0.32321 0.140634,0.722823 1.67e-4,0.359808 -0.02269,0.505096 -0.10888,0.692023 -0.153848,0.333672 -0.46941,0.656092 -0.811845,0.829488 l -0.293012,0.148375 h -3.770934 -3.770934 l -0.338393,-0.166586 c -0.367897,-0.181108 -0.619197,-0.434095 -0.80785,-0.813277 L 38.638657,14.011025 V 10.21584 6.4206541 l 0.112251,-0.2408147 c 0.157835,-0.3386067 0.525649,-0.713082 0.838378,-0.8535624 0.37938,-0.1704205 1.070759,-0.1712567 1.415037,-0.0017 0.31838,0.156791 0.646336,0.4822388 0.799388,0.7932746 0.122384,0.2487131 0.124319,0.2737965 0.139456,1.8082382 0.0084,0.8558137 0.02962,1.5560255 0.04706,1.5560255 0.01744,0 0.352101,-0.3140498 0.743687,-0.697889 1.015775,-0.99568 1.661904,-1.5010253 2.631415,-2.0580586 1.135721,-0.6525305 2.37514,-1.1050472 3.734893,-1.3636241 1.551121,-0.2949684 3.51131,-0.2209073 5.098691,0.1926431 3.293407,0.8580099 6.048091,3.120478 7.566011,6.2140933 2.234693,4.554438 1.277979,10.057168 -2.36074,13.578275 -1.705408,1.650285 -3.750469,2.711441 -6.041911,3.135075 -0.59293,0.109618 -0.904871,0.14159 -1.921195,0.196905 -0.166988,0.0091 -0.588254,-0.001 -0.936146,-0.02242 z"
       id="path3"
       inkscape:label="Next" /><path
       style="fill:#ffffff;stroke-width:0.79374999;stroke:#000000;stroke-opacity:1;stroke-dasharray:none;fill-opacity:1"
       d="m 79.990665,29.36602 c -0.804497,-0.12428 -1.482634,-0.620975 -1.88204,-1.378484 l -0.219083,-0.41551 V 16.958879 6.345731 l 0.19078,-0.4221319 c 0.239577,-0.530104 0.908784,-1.1564677 1.42263,-1.3315525 0.208056,-0.070892 0.631863,-0.128296 0.944009,-0.1278649 0.966856,0.00134 1.177386,0.1440372 3.289824,2.2299077 1.013255,1.0005117 3.429651,3.3859766 5.369768,5.3010336 3.97856,3.927169 3.907875,3.838307 3.916594,4.923707 0.009,1.115657 0.168547,0.928365 -5.802045,6.809452 -4.530705,4.462784 -5.312068,5.199542 -5.727095,5.400152 -0.539297,0.260678 -0.941946,0.324313 -1.503342,0.237586 z"
       id="path4"
       inkscape:label="Retry" /><path
       style="fill:#ffffff;stroke-width:0.79374999;fill-opacity:1;stroke:#000000;stroke-opacity:1;stroke-dasharray:none"
       d="m 3.4173296,27.752583 c -0.860661,-0.30273 -1.502481,-0.974247 -1.752209,-1.83328 -0.1092,-0.375629 -0.129954,-0.877176 -0.107629,-2.60008 0.02541,-1.961534 0.04291,-2.167649 0.215639,-2.541208 0.269808,-0.583513 0.763704,-1.090264 1.336999,-1.371798 l 0.497834,-0.244477 h 2.330626 2.330624 l 0.497835,0.244477 c 0.573295,0.281534 1.067191,0.788285 1.3369994,1.371798 0.173376,0.374963 0.190096,0.577611 0.215312,2.609618 0.02594,2.089668 0.01739,2.229659 -0.165782,2.719251 -0.2434564,0.650695 -0.7500434,1.204671 -1.3882034,1.518063 l -0.496161,0.243657 -2.198703,0.02193 c -1.936106,0.01931 -2.252981,0.0028 -2.653179,-0.13794 z m 10.9935144,0 c -0.860659,-0.30273 -1.502482,-0.974247 -1.752209,-1.83328 -0.109199,-0.375629 -0.129954,-0.877176 -0.107628,-2.60008 0.02541,-1.961534 0.04291,-2.167649 0.215639,-2.541208 0.269808,-0.583513 0.763704,-1.090264 1.336999,-1.371798 l 0.497834,-0.244477 h 2.330625 2.330625 l 0.497834,0.244477 c 0.573295,0.281534 1.067191,0.788285 1.336998,1.371798 0.173377,0.374963 0.190098,0.577611 0.215314,2.609618 0.02594,2.089668 0.01739,2.229659 -0.165783,2.719251 -0.243456,0.650695 -0.750043,1.204671 -1.388203,1.518063 l -0.49616,0.243657 -2.198703,0.02193 c -1.936107,0.01931 -2.252982,0.0028 -2.653179,-0.13794 z m 10.993516,0 c -0.860661,-0.30273 -1.502483,-0.974247 -1.75221,-1.83328 -0.1092,-0.375629 -0.129968,-0.877176 -0.107629,-2.60008 0.02541,-1.961534 0.04291,-2.167649 0.215639,-2.541208 0.269808,-0.583513 0.763704,-1.090264 1.336999,-1.371798 l 0.497835,-0.244477 h 2.330625 2.330626 l 0.497833,0.244477 c 0.573295,0.281534 1.067191,0.788285 1.336997,1.371798 0.173378,0.374963 0.190098,0.577611 0.215314,2.609618 0.02594,2.089668 0.01741,2.229659 -0.165782,2.719251 -0.243456,0.650695 -0.750045,1.204671 -1.388205,1.518063 l -0.496157,0.243657 -2.198703,0.02193 c -1.936108,0.01931 -2.252983,0.0028 -2.653179,-0.13794 z M 3.4173296,14.560366 c -0.860661,-0.302731 -1.502481,-0.974249 -1.752209,-1.833281 -0.1092,-0.37563 -0.129954,-0.877177 -0.107629,-2.600079 0.02541,-1.9615328 0.04291,-2.1676509 0.215639,-2.5412082 0.269808,-0.5835135 0.763704,-1.0902649 1.336999,-1.3717983 l 0.497834,-0.2444772 h 2.330626 2.330624 l 0.497835,0.2444772 c 0.573295,0.2815334 1.067191,0.7882848 1.3369994,1.3717983 0.173376,0.374963 0.190096,0.577611 0.215312,2.6096172 0.02594,2.089667 0.01739,2.229659 -0.165782,2.719252 -0.2434564,0.650695 -0.7500434,1.20467 -1.3882034,1.518061 l -0.496161,0.243658 -2.198703,0.02192 c -1.936106,0.01931 -2.252981,0.0028 -2.653179,-0.137938 z m 10.9935144,0 c -0.860659,-0.302731 -1.502482,-0.974249 -1.752209,-1.833281 -0.109199,-0.37563 -0.129954,-0.877177 -0.107628,-2.600079 0.02541,-1.9615328 0.04291,-2.1676509 0.215639,-2.5412082 0.269808,-0.5835135 0.763704,-1.0902649 1.336999,-1.3717983 l 0.497834,-0.2444772 h 2.330625 2.330625 l 0.497834,0.2444772 c 0.573295,0.2815334 1.067191,0.7882848 1.336998,1.3717983 0.173377,0.374963 0.190098,0.577611 0.215314,2.6096172 0.02594,2.089667 0.01739,2.229659 -0.165783,2.719252 -0.243456,0.650695 -0.750043,1.20467 -1.388203,1.518061 l -0.49616,0.243658 -2.198703,0.02192 c -1.936107,0.01931 -2.252982,0.0028 -2.653179,-0.137938 z m 10.993516,0 c -0.860661,-0.302731 -1.502483,-0.974249 -1.75221,-1.833281 -0.1092,-0.37563 -0.129968,-0.877177 -0.107629,-2.600079 0.02541,-1.9615328 0.04291,-2.1676509 0.215639,-2.5412082 0.269808,-0.5835135 0.763704,-1.0902649 1.336999,-1.3717983 l 0.497835,-0.2444772 h 2.330625 2.330626 l 0.497833,0.2444772 c 0.573295,0.2815334 1.067191,0.7882848 1.336997,1.3717983 0.173378,0.374963 0.190098,0.577611 0.215314,2.6096172 0.02594,2.089667 0.01741,2.229659 -0.165782,2.719252 -0.243456,0.650695 -0.750045,1.20467 -1.388205,1.518061 l -0.496157,0.243658 -2.198703,0.02192 c -1.936108,0.01931 -2.252983,0.0028 -2.653179,-0.137938 z"
       id="path5"
       inkscape:label="LevelSelect" /></g></svg>
