<?xml version="1.0" encoding="UTF-8" standalone="no"?>
<!-- Created with Inkscape (http://www.inkscape.org/) -->

<svg
   width="127.99999"
   height="127.99999"
   viewBox="0 0 33.866664 33.866664"
   version="1.1"
   id="svg1"
   xml:space="preserve"
   sodipodi:docname="ShopPlaceholder.svg"
   inkscape:version="1.3.2 (091e20e, 2023-11-25, custom)"
   xmlns:inkscape="http://www.inkscape.org/namespaces/inkscape"
   xmlns:sodipodi="http://sodipodi.sourceforge.net/DTD/sodipodi-0.dtd"
   xmlns="http://www.w3.org/2000/svg"
   xmlns:svg="http://www.w3.org/2000/svg"><sodipodi:namedview
     id="namedview1"
     pagecolor="#ffffff"
     bordercolor="#000000"
     borderopacity="0.25"
     inkscape:showpageshadow="2"
     inkscape:pageopacity="0.0"
     inkscape:pagecheckerboard="0"
     inkscape:deskcolor="#d1d1d1"
     inkscape:document-units="px"
     inkscape:zoom="4.6348643"
     inkscape:cx="54.154768"
     inkscape:cy="50.163281"
     inkscape:window-width="1920"
     inkscape:window-height="1017"
     inkscape:window-x="-8"
     inkscape:window-y="-8"
     inkscape:window-maximized="1"
     inkscape:current-layer="layer1" /><defs
     id="defs1"><rect
       x="11.58919"
       y="38.07877"
       width="131.97485"
       height="54.634754"
       id="rect3" /></defs><g
     inkscape:label="Calque 1"
     inkscape:groupmode="layer"
     id="layer1"><rect
       style="display:inline;fill:#ffffff;fill-opacity:1;stroke:#000000;stroke-width:1.05407;stroke-linecap:round;stroke-dasharray:none;stroke-opacity:1;paint-order:stroke fill markers"
       id="rect2"
       width="32.812595"
       height="32.812595"
       x="0.52703506"
       y="0.5270372"
       ry="4.3047309" /><path
       d="m 38.225586,49.674996 v 10.992187 h -0.867188 q -0.421875,-3.164062 -1.523437,-5.039062 -0.539063,-0.9375 -1.359375,-1.6875 -0.796875,-0.75 -1.757813,-1.265625 -0.9375,-0.539063 -2.015625,-0.820313 -1.054687,-0.304687 -2.132812,-0.304687 -1.195313,0 -2.226563,0.421875 -1.03125,0.398437 -1.804687,1.078125 -0.75,0.679687 -1.171875,1.570312 -0.421875,0.867188 -0.421875,1.804688 0,1.3125 0.609375,2.296875 0.609375,0.960937 1.664062,1.78125 1.078125,0.820312 2.507813,1.59375 1.453125,0.773437 3.140625,1.664062 1.898437,1.007813 3.609375,1.96875 1.710937,0.960938 3,2.132813 1.3125,1.148437 2.085937,2.648437 0.773438,1.476563 0.773438,3.5625 0,1.78125 -0.75,3.398438 -0.726563,1.59375 -2.0625,2.8125 -1.3125,1.195312 -3.164063,1.898437 -1.828125,0.726563 -4.03125,0.726563 -0.820312,0 -1.40625,-0.02344 -0.585937,-0.02344 -1.125,-0.117187 -0.539062,-0.07031 -1.125,-0.257813 -0.5625,-0.164062 -1.359375,-0.46875 -0.5625,-0.210937 -1.148437,-0.375 -0.585938,-0.1875 -1.078125,-0.304687 -0.492188,-0.117188 -0.84375,-0.1875 -0.328125,-0.07031 -0.421875,-0.07031 -0.585938,0 -0.9375,0.351563 -0.328125,0.351562 -0.492188,1.453125 H 19.522461 V 72.010933 h 0.867187 q 0.304688,1.710938 0.703125,3 0.421875,1.265625 0.9375,2.132813 0.515625,0.84375 1.335938,1.570312 0.820312,0.726563 1.828125,1.265625 1.03125,0.515625 2.203125,0.820313 1.195312,0.28125 2.4375,0.28125 1.476562,0 2.648437,-0.421875 1.171875,-0.421875 1.992188,-1.125 0.820312,-0.726563 1.242187,-1.664063 0.445313,-0.960937 0.445313,-1.992187 0,-1.523438 -0.632813,-2.554688 -0.632812,-1.054687 -1.710937,-1.875 -1.054688,-0.820312 -2.484375,-1.570312 -1.40625,-0.75 -2.976563,-1.6875 -1.78125,-1.054688 -3.445312,-1.992188 -1.640625,-0.960937 -2.90625,-2.085937 -1.265625,-1.148438 -2.039063,-2.601563 -0.75,-1.453125 -0.75,-3.46875 0,-1.6875 0.703125,-3.210937 0.703125,-1.523438 1.945313,-2.671875 1.242187,-1.148438 2.929687,-1.804688 1.710938,-0.679687 3.726563,-0.679687 2.484375,0 5.367187,1.242187 1.265625,0.585938 1.851563,0.585938 0.609375,0 0.984375,-0.351563 0.398437,-0.375 0.632812,-1.476562 z m 14.554687,15.46875 h 14.765625 v -9.09375 q 0,-1.125 -0.04687,-1.828125 -0.04687,-0.703125 -0.1875,-1.148438 -0.117187,-0.46875 -0.375,-0.726562 -0.257812,-0.28125 -0.679687,-0.515625 -1.03125,-0.5625 -2.132813,-0.5625 h -1.125 v -0.867188 h 13.617188 l -0.02344,0.867188 h -1.125 q -0.445312,0 -0.9375,0.09375 -0.492187,0.09375 -0.9375,0.304687 -0.445312,0.210938 -0.796875,0.539063 -0.328125,0.304687 -0.492187,0.75 -0.257813,0.773437 -0.257813,3.09375 v 20.507812 q 0,1.125 0.04687,1.828125 0.04687,0.703125 0.164063,1.171875 0.140625,0.445313 0.375,0.703125 0.257812,0.257813 0.679687,0.492188 1.007813,0.5625 2.15625,0.5625 h 1.125 v 0.867187 h -13.59375 v -0.867187 h 1.125 q 1.921875,0 2.835938,-1.148438 0.585937,-0.726562 0.585937,-3.609375 V 66.878121 H 52.780273 v 9.679687 q 0,1.125 0.04687,1.828125 0.04687,0.703125 0.164063,1.148438 0.140625,0.445312 0.398437,0.726562 0.257813,0.257813 0.679688,0.492188 1.007812,0.5625 2.132812,0.5625 h 1.148438 v 0.867187 H 43.733398 v -0.867187 h 1.125 q 1.992188,0 2.859375,-1.148438 0.5625,-0.726562 0.5625,-3.609375 V 56.049996 q 0,-1.125 -0.04687,-1.828125 -0.04687,-0.703125 -0.1875,-1.148438 -0.117187,-0.46875 -0.375,-0.726562 -0.234375,-0.28125 -0.65625,-0.515625 -1.03125,-0.5625 -2.15625,-0.5625 h -1.125 v -0.867188 h 13.617188 v 0.867188 h -1.148438 q -0.46875,0 -0.960937,0.09375 -0.46875,0.09375 -0.914063,0.304687 -0.421875,0.210938 -0.773437,0.539063 -0.328125,0.304687 -0.492188,0.75 -0.28125,0.75 -0.28125,3.09375 z m 42.351563,-15.46875 q 6.164064,0 10.710934,4.710937 4.54688,4.6875 4.54688,11.71875 0,7.242188 -4.57031,12.023438 -4.57032,4.78125 -11.062504,4.78125 -6.585938,0 -11.039063,-4.664063 -4.453125,-4.664062 -4.453125,-12.070312 0,-7.570313 5.15625,-12.351563 4.476563,-4.148437 10.710938,-4.148437 z m -0.445313,1.710937 q -2.414062,0 -4.289062,1.03125 -1.875,1.03125 -3.164063,2.953125 -1.265625,1.898438 -1.945312,4.617188 -0.65625,2.71875 -0.65625,6.09375 0,3.351562 0.65625,6.140625 0.65625,2.789062 1.921875,4.804687 1.289062,1.992188 3.164062,3.117188 1.875,1.101562 4.335938,1.101562 2.203125,0 4.078125,-0.84375 1.898434,-0.84375 3.281254,-2.601562 1.38281,-1.78125 2.15625,-4.523438 0.79687,-2.742187 0.79687,-6.539062 0,-3.632813 -0.65625,-6.46875 -0.63281,-2.859375 -1.94531,-4.828125 -1.28906,-1.96875 -3.234377,-3 -1.921875,-1.054688 -4.5,-1.054688 z m 27.398437,15.914063 v 9.257812 q 0,3 0.65625,3.726563 0.89063,1.03125 2.69531,1.03125 h 1.21875 v 0.867187 h -13.61718 v -0.867187 h 1.19531 q 0.98437,0 1.71094,-0.328125 0.75,-0.328125 1.17187,-0.984375 0.46875,-0.75 0.46875,-3.445313 v -20.53125 q 0,-2.976562 -0.63281,-3.726562 -0.91406,-1.03125 -2.71875,-1.03125 h -1.19531 v -0.867188 h 11.64843 q 4.24219,0 6.72657,0.890625 1.21875,0.445313 2.27343,1.195313 1.05469,0.75 1.85157,1.78125 0.79687,1.007812 1.24218,2.25 0.46875,1.242187 0.46875,2.671875 0,1.945312 -0.65625,3.5625 -0.65625,1.59375 -1.92187,2.765625 -1.24219,1.148437 -3.07031,1.804687 -1.82813,0.632813 -4.17188,0.632813 -2.34375,0 -5.34375,-0.65625 z m 0,-1.335938 q 1.26563,0.234375 2.20313,0.351563 0.96093,0.117187 1.64062,0.117187 1.21875,0 2.29688,-0.492187 1.10156,-0.515625 1.89843,-1.40625 0.82032,-0.914063 1.28907,-2.15625 0.49218,-1.242188 0.49218,-2.71875 0,-1.734375 -0.51562,-3.09375 -0.51563,-1.382813 -1.42969,-2.320313 -0.91406,-0.960937 -2.15625,-1.453125 -1.21875,-0.492187 -2.64844,-0.492187 -0.60937,0 -1.38281,0.117187 -0.75,0.09375 -1.6875,0.328125 z"
       id="text2"
       style="font-size:48px;font-family:'Mongolian Baiti';-inkscape-font-specification:'Mongolian Baiti, Normal';text-align:center;white-space:pre;fill:#ff0000;stroke-width:4;stroke-linecap:round;paint-order:stroke fill markers"
       transform="matrix(0.22281082,-0.21008067,0.21008067,0.22281082,-14.348303,18.517101)"
       aria-label="SHOP" /></g></svg>
