<?xml version="1.0" encoding="UTF-8" standalone="no"?>
<!-- Created with Inkscape (http://www.inkscape.org/) -->

<svg
   width="256"
   height="128"
   viewBox="0 0 67.733334 33.866666"
   version="1.1"
   id="svg1"
   inkscape:version="1.3.2 (091e20e, 2023-11-25, custom)"
   sodipodi:docname="UI_Stars.svg"
   xmlns:inkscape="http://www.inkscape.org/namespaces/inkscape"
   xmlns:sodipodi="http://sodipodi.sourceforge.net/DTD/sodipodi-0.dtd"
   xmlns:xlink="http://www.w3.org/1999/xlink"
   xmlns="http://www.w3.org/2000/svg"
   xmlns:svg="http://www.w3.org/2000/svg">
  <sodipodi:namedview
     id="namedview1"
     pagecolor="#ffffff"
     bordercolor="#000000"
     borderopacity="0.25"
     inkscape:showpageshadow="2"
     inkscape:pageopacity="0.0"
     inkscape:pagecheckerboard="0"
     inkscape:deskcolor="#d1d1d1"
     inkscape:document-units="px"
     inkscape:zoom="2.0686841"
     inkscape:cx="88.94543"
     inkscape:cy="54.865795"
     inkscape:window-width="1920"
     inkscape:window-height="1017"
     inkscape:window-x="-8"
     inkscape:window-y="-8"
     inkscape:window-maximized="1"
     inkscape:current-layer="layer1" />
  <defs
     id="defs1">
    <radialGradient
       inkscape:collect="always"
       xlink:href="#linearGradient11"
       id="radialGradient12"
       cx="37.727917"
       cy="11.641652"
       fx="37.727917"
       fy="11.641652"
       r="5.9263773"
       gradientTransform="matrix(1.0586492,-0.03472303,0.03090658,0.96974083,-2.5794942,1.5963232)"
       gradientUnits="userSpaceOnUse" />
    <linearGradient
       id="linearGradient11"
       inkscape:collect="always">
      <stop
         style="stop-color:#fdd130;stop-opacity:1;"
         offset="0.62461537"
         id="stop11" />
      <stop
         style="stop-color:#e39d26;stop-opacity:1;"
         offset="1"
         id="stop12" />
    </linearGradient>
    <radialGradient
       inkscape:collect="always"
       xlink:href="#linearGradient15"
       id="radialGradient16"
       cx="51.130581"
       cy="17.502817"
       fx="51.130581"
       fy="17.502817"
       r="0.71220309"
       gradientTransform="matrix(1,0,0,1.1732459,-15.124274,-9.8952007)"
       gradientUnits="userSpaceOnUse" />
    <linearGradient
       id="linearGradient15"
       inkscape:collect="always">
      <stop
         style="stop-color:#ffffff;stop-opacity:0.91957996;"
         offset="0.59846151"
         id="stop15" />
      <stop
         style="stop-color:#ffffff;stop-opacity:0;"
         offset="1"
         id="stop16" />
    </linearGradient>
    <radialGradient
       inkscape:collect="always"
       xlink:href="#linearGradient18"
       id="radialGradient17"
       gradientUnits="userSpaceOnUse"
       gradientTransform="matrix(0.44145036,0,0,0.60036745,9.9772296,-5.7753024)"
       cx="51.130581"
       cy="17.502817"
       fx="51.130581"
       fy="17.502817"
       r="0.71220309" />
    <linearGradient
       id="linearGradient18"
       inkscape:collect="always">
      <stop
         style="stop-color:#ffffff;stop-opacity:0.91957996;"
         offset="0.51230764"
         id="stop17" />
      <stop
         style="stop-color:#ffffff;stop-opacity:0;"
         offset="1"
         id="stop18" />
    </linearGradient>
    <filter
       inkscape:collect="always"
       style="color-interpolation-filters:sRGB"
       id="filter18"
       x="-0.090394424"
       y="-0.094707894"
       width="1.1807888"
       height="1.1894267">
      <feGaussianBlur
         inkscape:collect="always"
         stdDeviation="0.40009471"
         id="feGaussianBlur18" />
    </filter>
    <radialGradient
       inkscape:collect="always"
       xlink:href="#linearGradient8"
       id="radialGradient9"
       cx="37.984165"
       cy="12.332279"
       fx="37.984165"
       fy="12.332279"
       r="5.9263773"
       gradientTransform="matrix(1,0,0,0.95469885,0,0.55866637)"
       gradientUnits="userSpaceOnUse" />
    <linearGradient
       id="linearGradient8"
       inkscape:collect="always">
      <stop
         style="stop-color:#46301f;stop-opacity:1;"
         offset="0"
         id="stop8" />
      <stop
         style="stop-color:#3e281c;stop-opacity:1;"
         offset="1"
         id="stop9" />
    </linearGradient>
  </defs>
  <g
     inkscape:label="Calque 1"
     inkscape:groupmode="layer"
     id="layer1">
    <path
       sodipodi:type="star"
       style="display:inline;fill:url(#radialGradient9);fill-opacity:1;stroke:#9c844a;stroke-width:0.211667;stroke-dasharray:none;stroke-opacity:1"
       id="path7"
       inkscape:flatsided="false"
       sodipodi:sides="5"
       sodipodi:cx="37.984165"
       sodipodi:cy="12.887484"
       sodipodi:r1="6.1072769"
       sodipodi:r2="3.8087144"
       sodipodi:arg1="-1.5707963"
       sodipodi:arg2="-0.94247777"
       inkscape:rounded="0.1623518"
       inkscape:randomized="0"
       d="m 37.984165,6.7802067 c 0.611105,0 1.744313,2.6667642 2.238706,3.0259623 0.494394,0.359198 3.380818,0.612868 3.56966,1.194062 0.188841,0.581195 -1.997222,2.483016 -2.186063,3.06421 -0.188842,0.581195 0.461858,3.404735 -0.03254,3.763934 -0.494393,0.359198 -2.978663,-1.132177 -3.589767,-1.132177 -0.611104,0 -3.095374,1.491374 -3.589767,1.132176 -0.494394,-0.359198 0.156306,-3.182738 -0.03254,-3.763933 -0.188842,-0.581195 -2.374905,-2.483015 -2.186063,-3.06421 0.188841,-0.581195 3.075265,-0.834864 3.569659,-1.1940621 0.494394,-0.359198 1.627602,-3.0259622 2.238706,-3.0259622 z"
       inkscape:transform-center-y="-1.5443112"
       transform="matrix(2.6863186,0,0,2.6480274,-85.104238,-15.722879)"
       inkscape:label="StarEmpty" />
    <g
       id="g1"
       inkscape:label="StarFull"
       transform="matrix(3.685785,0,0,3.685785,-56.403727,-44.43736)"
       style="display:inline">
      <path
         sodipodi:type="star"
         style="display:inline;fill:url(#radialGradient12);fill-opacity:1;stroke:#9c844a;stroke-width:0.211667;stroke-dasharray:none;stroke-opacity:1"
         id="path9"
         inkscape:flatsided="false"
         sodipodi:sides="5"
         sodipodi:cx="37.984165"
         sodipodi:cy="12.887484"
         sodipodi:r1="6.1072769"
         sodipodi:r2="3.8087144"
         sodipodi:arg1="-1.5707963"
         sodipodi:arg2="-0.94247777"
         inkscape:rounded="0.1623518"
         inkscape:randomized="0"
         d="m 37.984165,6.7802067 c 0.611105,0 1.744313,2.6667642 2.238706,3.0259623 0.494394,0.359198 3.380818,0.612868 3.56966,1.194062 0.188841,0.581195 -1.997222,2.483016 -2.186063,3.06421 -0.188842,0.581195 0.461858,3.404735 -0.03254,3.763934 -0.494393,0.359198 -2.978663,-1.132177 -3.589767,-1.132177 -0.611104,0 -3.095374,1.491374 -3.589767,1.132176 -0.494394,-0.359198 0.156306,-3.182738 -0.03254,-3.763933 -0.188842,-0.581195 -2.374905,-2.483015 -2.186063,-3.06421 0.188841,-0.581195 3.075265,-0.834864 3.569659,-1.1940621 0.494394,-0.359198 1.627602,-3.0259622 2.238706,-3.0259622 z"
         inkscape:transform-center-y="-0.41899224"
         transform="matrix(0.72883384,0,0,0.71844492,1.401554,7.7905879)"
         inkscape:label="Star" />
      <ellipse
         style="display:inline;fill:url(#radialGradient16);stroke:none;stroke-width:0.22927;stroke-dasharray:none;stroke-opacity:1"
         id="path15"
         cx="36.00631"
         cy="10.639908"
         rx="0.71220309"
         ry="0.83558935"
         transform="matrix(0.97300736,0.23077409,-0.70557436,0.70863589,0,0)"
         inkscape:label="ReflectBig" />
      <ellipse
         style="display:inline;fill:url(#radialGradient17);stroke:none;stroke-width:0.108968;stroke-dasharray:none;stroke-opacity:1"
         id="ellipse16"
         cx="32.548843"
         cy="4.7328191"
         rx="0.31440231"
         ry="0.42758355"
         transform="matrix(0.94383214,0.33042531,-0.48355752,0.87531259,0,0)"
         inkscape:label="ReflectSmall" />
      <path
         sodipodi:type="star"
         style="display:inline;fill:none;fill-opacity:1;stroke:#000000;stroke-width:0.182819;stroke-dasharray:none;stroke-opacity:1;filter:url(#filter18)"
         id="path18"
         inkscape:flatsided="false"
         sodipodi:sides="5"
         sodipodi:cx="37.984165"
         sodipodi:cy="12.887484"
         sodipodi:r1="6.1072769"
         sodipodi:r2="3.8087144"
         sodipodi:arg1="-1.5707963"
         sodipodi:arg2="-0.94247777"
         inkscape:rounded="0.1623518"
         inkscape:randomized="0"
         d="m 37.984165,6.7802067 c 0.611105,0 1.744313,2.6667642 2.238706,3.0259623 0.494394,0.359198 3.380818,0.612868 3.56966,1.194062 0.188841,0.581195 -1.997222,2.483016 -2.186063,3.06421 -0.188842,0.581195 0.461858,3.404735 -0.03254,3.763934 -0.494393,0.359198 -2.978663,-1.132177 -3.589767,-1.132177 -0.611104,0 -3.095374,1.491374 -3.589767,1.132176 -0.494394,-0.359198 0.156306,-3.182738 -0.03254,-3.763933 -0.188842,-0.581195 -2.374905,-2.483015 -2.186063,-3.06421 0.188841,-0.581195 3.075265,-0.834864 3.569659,-1.1940621 0.494394,-0.359198 1.627602,-3.0259622 2.238706,-3.0259622 z"
         inkscape:transform-center-y="-0.41899224"
         transform="matrix(0.72883384,0,0,0.71844492,1.401554,7.7905879)"
         inkscape:label="OutlineShade" />
    </g>
  </g>
</svg>
