<?xml version="1.0" encoding="UTF-8" standalone="no"?>
<!-- Created with Inkscape (http://www.inkscape.org/) -->

<svg
   width="320"
   height="456"
   viewBox="0 0 84.666664 120.65"
   version="1.1"
   id="svg1"
   xml:space="preserve"
   inkscape:version="1.3.2 (091e20e, 2023-11-25, custom)"
   sodipodi:docname="UI_SpriteSheet.svg"
   inkscape:export-filename="UI_SpriteSheet.png"
   inkscape:export-xdpi="96"
   inkscape:export-ydpi="96"
   xmlns:inkscape="http://www.inkscape.org/namespaces/inkscape"
   xmlns:sodipodi="http://sodipodi.sourceforge.net/DTD/sodipodi-0.dtd"
   xmlns:xlink="http://www.w3.org/1999/xlink"
   xmlns="http://www.w3.org/2000/svg"
   xmlns:svg="http://www.w3.org/2000/svg"><sodipodi:namedview
     id="namedview1"
     pagecolor="#aeaeae"
     bordercolor="#000000"
     borderopacity="0.25"
     inkscape:showpageshadow="2"
     inkscape:pageopacity="0.0"
     inkscape:pagecheckerboard="0"
     inkscape:deskcolor="#d1d1d1"
     inkscape:document-units="px"
     inkscape:zoom="1.0570195"
     inkscape:cx="96.970777"
     inkscape:cy="278.6136"
     inkscape:window-width="1920"
     inkscape:window-height="1017"
     inkscape:window-x="-8"
     inkscape:window-y="-8"
     inkscape:window-maximized="1"
     inkscape:current-layer="g312" /><defs
     id="defs1"><linearGradient
       id="linearGradient139"
       inkscape:collect="always"><stop
         style="stop-color:#ffffff;stop-opacity:1;"
         offset="0.37806875"
         id="stop138" /><stop
         style="stop-color:#9febf5;stop-opacity:1;"
         offset="1"
         id="stop139" /></linearGradient><linearGradient
       id="linearGradient137"
       inkscape:collect="always"><stop
         style="stop-color:#81b3eb;stop-opacity:1;"
         offset="0"
         id="stop135" /><stop
         style="stop-color:#75cbe9;stop-opacity:1;"
         offset="0.63993454"
         id="stop136" /><stop
         style="stop-color:#ceeff7;stop-opacity:1;"
         offset="1"
         id="stop137" /></linearGradient><linearGradient
       id="linearGradient134"
       inkscape:collect="always"><stop
         style="stop-color:#8ac5d6;stop-opacity:1;"
         offset="0.26022914"
         id="stop132" /><stop
         style="stop-color:#76cee9;stop-opacity:1;"
         offset="0.50081831"
         id="stop133" /><stop
         style="stop-color:#6ec1e2;stop-opacity:1;"
         offset="1"
         id="stop134" /></linearGradient><linearGradient
       id="linearGradient131"
       inkscape:collect="always"><stop
         style="stop-color:#1b7aae;stop-opacity:1;"
         offset="0"
         id="stop128" /><stop
         style="stop-color:#0076b5;stop-opacity:1;"
         offset="0.30605564"
         id="stop129" /><stop
         style="stop-color:#018ded;stop-opacity:1;"
         offset="0.57119477"
         id="stop130" /><stop
         style="stop-color:#3bbfe4;stop-opacity:1;"
         offset="0.83469725"
         id="stop131" /></linearGradient><linearGradient
       id="linearGradient127"
       inkscape:collect="always"><stop
         style="stop-color:#247faf;stop-opacity:1;"
         offset="0"
         id="stop125" /><stop
         style="stop-color:#2792cf;stop-opacity:1;"
         offset="0.45171848"
         id="stop126" /><stop
         style="stop-color:#77c8d9;stop-opacity:1;"
         offset="1"
         id="stop127" /></linearGradient><linearGradient
       id="linearGradient124"
       inkscape:collect="always"><stop
         style="stop-color:#097fb4;stop-opacity:1;"
         offset="0.21276596"
         id="stop121" /><stop
         style="stop-color:#137db0;stop-opacity:1;"
         offset="0.502455"
         id="stop122" /><stop
         style="stop-color:#2a9be3;stop-opacity:1;"
         offset="0.67103106"
         id="stop123" /><stop
         style="stop-color:#6dc3e9;stop-opacity:1;"
         offset="1"
         id="stop124" /></linearGradient><linearGradient
       id="linearGradient120"
       inkscape:collect="always"><stop
         style="stop-color:#94cdee;stop-opacity:1;"
         offset="0"
         id="stop119" /><stop
         style="stop-color:#4cc5e9;stop-opacity:1;"
         offset="1"
         id="stop120" /></linearGradient><linearGradient
       id="linearGradient118"
       inkscape:collect="always"><stop
         style="stop-color:#63bade;stop-opacity:1;"
         offset="0.03927987"
         id="stop116" /><stop
         style="stop-color:#0ec3ff;stop-opacity:1;"
         offset="0.43535188"
         id="stop117" /><stop
         style="stop-color:#45ade2;stop-opacity:1;"
         offset="1"
         id="stop118" /></linearGradient><linearGradient
       id="linearGradient112"
       inkscape:collect="always"><stop
         style="stop-color:#b9dff3;stop-opacity:1;"
         offset="0"
         id="stop111" /><stop
         style="stop-color:#58bbe3;stop-opacity:1;"
         offset="1"
         id="stop112" /></linearGradient><linearGradient
       id="linearGradient110"
       inkscape:collect="always"><stop
         style="stop-color:#7acfea;stop-opacity:1;"
         offset="0"
         id="stop109" /><stop
         style="stop-color:#45c8f1;stop-opacity:1;"
         offset="1"
         id="stop110" /></linearGradient><radialGradient
       inkscape:collect="always"
       xlink:href="#linearGradient131"
       id="radialGradient71"
       gradientUnits="userSpaceOnUse"
       gradientTransform="matrix(5.008175,1.3419364,-2.1314522,7.9546881,730.21255,-655.15314)"
       cx="-120.64978"
       cy="115.70849"
       fx="-120.64978"
       fy="115.70849"
       r="9.2617102" /><radialGradient
       inkscape:collect="always"
       xlink:href="#linearGradient127"
       id="radialGradient72"
       gradientUnits="userSpaceOnUse"
       gradientTransform="matrix(1.4221014,1.6915438,-1.9705202,1.6566402,301.6132,165.56608)"
       cx="-145.7814"
       cy="121.83517"
       fx="-145.7814"
       fy="121.83517"
       r="30.438709" /><linearGradient
       inkscape:collect="always"
       xlink:href="#linearGradient124"
       id="linearGradient72"
       gradientUnits="userSpaceOnUse"
       x1="-200.34163"
       y1="146.15945"
       x2="-109.94431"
       y2="167.22202" /><radialGradient
       inkscape:collect="always"
       xlink:href="#linearGradient112"
       id="radialGradient73"
       gradientUnits="userSpaceOnUse"
       gradientTransform="matrix(1.4086361,0,0,1.2250544,52.556703,-13.215416)"
       cx="-127.35841"
       cy="61.649529"
       fx="-127.35841"
       fy="61.649529"
       r="22.090124" /><radialGradient
       inkscape:collect="always"
       xlink:href="#linearGradient118"
       id="radialGradient74"
       gradientUnits="userSpaceOnUse"
       gradientTransform="matrix(0.88606991,-0.74230295,0.57923561,0.69142018,-77.482714,-92.42236)"
       cx="-166.36386"
       cy="100.1328"
       fx="-166.36386"
       fy="100.1328"
       r="30.162239" /><radialGradient
       inkscape:collect="always"
       xlink:href="#linearGradient120"
       id="radialGradient75"
       gradientUnits="userSpaceOnUse"
       gradientTransform="matrix(1.8164463,0,0,2.0122108,168.85754,-151.39925)"
       cx="-206.82013"
       cy="151.7281"
       fx="-206.82013"
       fy="151.7281"
       r="18.210255" /><radialGradient
       inkscape:collect="always"
       xlink:href="#linearGradient110"
       id="radialGradient76"
       gradientUnits="userSpaceOnUse"
       gradientTransform="matrix(0.85476725,-0.60636161,0.33371185,0.47042222,-56.99885,-48.297359)"
       cx="-164.73885"
       cy="99.107613"
       fx="-164.73885"
       fy="99.107613"
       r="34.981064" /><radialGradient
       inkscape:collect="always"
       xlink:href="#linearGradient137"
       id="radialGradient78"
       gradientUnits="userSpaceOnUse"
       gradientTransform="matrix(1,0,0,0.69120929,0,26.434384)"
       cx="-126.84507"
       cy="85.606148"
       fx="-126.84507"
       fy="85.606148"
       r="22.090025" /><radialGradient
       inkscape:collect="always"
       xlink:href="#linearGradient139"
       id="radialGradient79"
       gradientUnits="userSpaceOnUse"
       gradientTransform="matrix(1,0,0,1.0265201,0,-3.0519397)"
       cx="-148.9557"
       cy="106.37461"
       fx="-148.9557"
       fy="106.37461"
       r="51.905609" /><radialGradient
       inkscape:collect="always"
       xlink:href="#linearGradient134"
       id="radialGradient116"
       cx="-153.44051"
       cy="113.5786"
       fx="-153.44051"
       fy="113.5786"
       r="30.162239"
       gradientTransform="matrix(1,0,0,0.96058597,0,4.4765904)"
       gradientUnits="userSpaceOnUse" /><filter
       style="color-interpolation-filters:sRGB"
       inkscape:label="Color Shift"
       id="filter45"
       x="0"
       y="0"
       width="1"
       height="1.0010074"><feColorMatrix
         type="hueRotate"
         values="275"
         result="color1"
         id="feColorMatrix44" /><feColorMatrix
         type="saturate"
         values="1"
         result="color2"
         id="feColorMatrix45" /></filter><filter
       inkscape:collect="always"
       style="color-interpolation-filters:sRGB"
       id="filter406"
       x="-0.016405966"
       y="-0.016884132"
       width="1.0328119"
       height="1.0337683"><feGaussianBlur
         inkscape:collect="always"
         stdDeviation="0.33458304"
         id="feGaussianBlur406" /></filter><clipPath
       clipPathUnits="userSpaceOnUse"
       id="clipPath408"><rect
         style="display:inline;fill:none;fill-opacity:1;stroke:#ffffff;stroke-width:0.264583;stroke-dasharray:none;stroke-opacity:1"
         id="rect408"
         width="46.457428"
         height="44.018589"
         x="745.66119"
         y="372.70486"
         ry="16.449181"
         rx="16.162104"
         inkscape:label="Cutoff" /></clipPath><filter
       inkscape:collect="always"
       style="color-interpolation-filters:sRGB"
       id="filter407"
       x="-0.06542887"
       y="-0.06905394"
       width="1.1308577"
       height="1.1381079"><feGaussianBlur
         inkscape:collect="always"
         stdDeviation="0.82555083"
         id="feGaussianBlur407" /></filter><linearGradient
       inkscape:collect="always"
       xlink:href="#linearGradient410"
       id="linearGradient10"
       gradientUnits="userSpaceOnUse"
       x1="768.88989"
       y1="370.46078"
       x2="768.88989"
       y2="418.9675" /><linearGradient
       id="linearGradient410"
       inkscape:collect="always"><stop
         style="stop-color:#4193d8;stop-opacity:0;"
         offset="0"
         id="stop410" /><stop
         style="stop-color:#000000;stop-opacity:0.3169643;"
         offset="1"
         id="stop411" /></linearGradient><clipPath
       clipPathUnits="userSpaceOnUse"
       id="clipPath411"><rect
         style="display:inline;fill:none;fill-opacity:1;stroke:#ffffff;stroke-width:0.529167;stroke-dasharray:none;stroke-opacity:1"
         id="rect411"
         width="46.457428"
         height="44.018589"
         x="745.66119"
         y="372.70486"
         ry="16.449181"
         rx="16.162104"
         inkscape:label="Cutoff" /></clipPath><radialGradient
       inkscape:collect="always"
       xlink:href="#linearGradient412"
       id="radialGradient10"
       gradientUnits="userSpaceOnUse"
       gradientTransform="matrix(1.3398702,0,0,0.63888892,-261.19002,130.94515)"
       cx="768.6394"
       cy="368.08469"
       fx="768.6394"
       fy="368.08469"
       r="20.706581" /><linearGradient
       id="linearGradient412"
       inkscape:collect="always"><stop
         style="stop-color:#ffffff;stop-opacity:0.71428573;"
         offset="0"
         id="stop412" /><stop
         style="stop-color:#ffffff;stop-opacity:0;"
         offset="0.89417988"
         id="stop413" /></linearGradient><clipPath
       clipPathUnits="userSpaceOnUse"
       id="clipPath413"><rect
         style="display:inline;fill:none;fill-opacity:1;stroke:none;stroke-width:0.264583;stroke-dasharray:none;stroke-opacity:1"
         id="rect413"
         width="46.457428"
         height="44.018589"
         x="745.66119"
         y="372.70486"
         ry="16.449181"
         rx="16.162104"
         inkscape:label="Cutoff" /></clipPath><radialGradient
       inkscape:collect="always"
       xlink:href="#linearGradient11"
       id="radialGradient12"
       cx="37.727917"
       cy="11.641652"
       fx="37.727917"
       fy="11.641652"
       r="5.9263773"
       gradientTransform="matrix(1.0586492,-0.03472303,0.03090658,0.96974083,-2.5794942,1.5963232)"
       gradientUnits="userSpaceOnUse" /><linearGradient
       id="linearGradient11"
       inkscape:collect="always"><stop
         style="stop-color:#fdd130;stop-opacity:1;"
         offset="0.62461537"
         id="stop11" /><stop
         style="stop-color:#e39d26;stop-opacity:1;"
         offset="1"
         id="stop12" /></linearGradient><radialGradient
       inkscape:collect="always"
       xlink:href="#linearGradient15"
       id="radialGradient16"
       cx="51.130581"
       cy="17.502817"
       fx="51.130581"
       fy="17.502817"
       r="0.71220309"
       gradientTransform="matrix(1,0,0,1.1732459,-15.124274,-9.8952007)"
       gradientUnits="userSpaceOnUse" /><linearGradient
       id="linearGradient15"
       inkscape:collect="always"><stop
         style="stop-color:#ffffff;stop-opacity:0.91957996;"
         offset="0.59846151"
         id="stop15" /><stop
         style="stop-color:#ffffff;stop-opacity:0;"
         offset="1"
         id="stop16" /></linearGradient><radialGradient
       inkscape:collect="always"
       xlink:href="#linearGradient18"
       id="radialGradient17"
       gradientUnits="userSpaceOnUse"
       gradientTransform="matrix(0.44145036,0,0,0.60036745,9.9772296,-5.7753024)"
       cx="51.130581"
       cy="17.502817"
       fx="51.130581"
       fy="17.502817"
       r="0.71220309" /><linearGradient
       id="linearGradient18"
       inkscape:collect="always"><stop
         style="stop-color:#ffffff;stop-opacity:0.91957996;"
         offset="0.51230764"
         id="stop17" /><stop
         style="stop-color:#ffffff;stop-opacity:0;"
         offset="1"
         id="stop18" /></linearGradient><filter
       inkscape:collect="always"
       style="color-interpolation-filters:sRGB"
       id="filter18"
       x="-0.090394424"
       y="-0.094707894"
       width="1.1807888"
       height="1.1894267"><feGaussianBlur
         inkscape:collect="always"
         stdDeviation="0.40009471"
         id="feGaussianBlur18" /></filter><clipPath
       clipPathUnits="userSpaceOnUse"
       id="clipPath141"><path
         id="path142"
         style="display:inline;fill:none;stroke:#000000;stroke-width:0.211667;stroke-opacity:1"
         inkscape:label="Star"
         inkscape:transform-center-y="-0.41899224"
         d="m 37.984165,6.7802071 c 0.611105,0 1.744313,2.6667636 2.238706,3.025961 0.494394,0.3591999 3.380818,0.6128679 3.56966,1.1940639 0.188841,0.581193 -1.997222,2.483015 -2.186063,3.064209 -0.188842,0.581195 0.461858,3.404735 -0.03254,3.763934 -0.494393,0.359198 -2.978663,-1.132177 -3.589767,-1.132177 -0.611104,0 -3.095374,1.491374 -3.589767,1.132176 C 33.9,17.469176 34.5507,14.645636 34.361854,14.064441 c -0.188842,-0.581195 -2.374905,-2.483016 -2.186063,-3.064209 0.188841,-0.581196 3.075265,-0.834864 3.569659,-1.1940639 0.494394,-0.3591974 1.627602,-3.025961 2.238706,-3.025961 z" /></clipPath><linearGradient
       inkscape:collect="always"
       xlink:href="#linearGradient1"
       id="linearGradient2"
       x1="54.881165"
       y1="11.395249"
       x2="54.881165"
       y2="21.978582"
       gradientUnits="userSpaceOnUse"
       gradientTransform="translate(-14.399911,-5.2051231)" /><linearGradient
       id="linearGradient1"
       inkscape:collect="always"><stop
         style="stop-color:#ffffff;stop-opacity:0.75;"
         offset="0"
         id="stop3" /><stop
         style="stop-color:#e0e0e0;stop-opacity:0.26209676;"
         offset="0.41692311"
         id="stop1" /><stop
         style="stop-color:#000000;stop-opacity:0;"
         offset="0.99846154"
         id="stop2" /></linearGradient><filter
       inkscape:collect="always"
       style="color-interpolation-filters:sRGB"
       id="filter1"
       x="-0.014945539"
       y="-0.13291554"
       width="1.0298911"
       height="1.2658311"><feGaussianBlur
         inkscape:collect="always"
         stdDeviation="0.37200796"
         id="feGaussianBlur1" /></filter><radialGradient
       inkscape:collect="always"
       xlink:href="#linearGradient3"
       id="radialGradient5"
       cx="18.268576"
       cy="15.55542"
       fx="18.268576"
       fy="15.55542"
       r="0.94960403"
       gradientUnits="userSpaceOnUse"
       gradientTransform="matrix(1.6190477,0,0,1.6190477,-11.197678,-10.778759)" /><linearGradient
       id="linearGradient3"
       inkscape:collect="always"><stop
         style="stop-color:#ffffff;stop-opacity:1;"
         offset="0.3492308"
         id="stop4" /><stop
         style="stop-color:#ffffff;stop-opacity:0;"
         offset="1"
         id="stop5" /></linearGradient><radialGradient
       inkscape:collect="always"
       xlink:href="#linearGradient7"
       id="radialGradient6"
       gradientUnits="userSpaceOnUse"
       gradientTransform="matrix(0.90476193,0,0,0.90476193,3.8067055,-1.0827847)"
       cx="18.268576"
       cy="15.55542"
       fx="18.268576"
       fy="15.55542"
       r="0.94960403" /><linearGradient
       id="linearGradient7"
       inkscape:collect="always"><stop
         style="stop-color:#ffffff;stop-opacity:1;"
         offset="0.35076925"
         id="stop6" /><stop
         style="stop-color:#ffffff;stop-opacity:0;"
         offset="1"
         id="stop7" /></linearGradient><linearGradient
       id="linearGradient8"
       inkscape:collect="always"><stop
         style="stop-color:#46301f;stop-opacity:1;"
         offset="0"
         id="stop8" /><stop
         style="stop-color:#3e281c;stop-opacity:1;"
         offset="1"
         id="stop9" /></linearGradient><filter
       style="color-interpolation-filters:sRGB"
       inkscape:label="Color Shift"
       id="filter45-1"
       x="0.022657871"
       y="0.2726729"
       width="0.95281522"
       height="0.72833446"><feColorMatrix
         type="hueRotate"
         values="275"
         result="color1"
         id="feColorMatrix44-9" /><feColorMatrix
         type="saturate"
         values="1"
         result="fbSourceGraphic"
         id="feColorMatrix45-6" /><feColorMatrix
         result="fbSourceGraphicAlpha"
         in="fbSourceGraphic"
         values="0 0 0 -1 0 0 0 0 -1 0 0 0 0 -1 0 0 0 0 1 0"
         id="feColorMatrix258" /><feColorMatrix
         id="feColorMatrix259"
         type="hueRotate"
         values="235"
         result="color1"
         in="fbSourceGraphic" /><feColorMatrix
         id="feColorMatrix260"
         type="saturate"
         values="1"
         result="color2" /></filter><filter
       inkscape:collect="always"
       style="color-interpolation-filters:sRGB"
       id="filter406-9"
       x="-0.016405966"
       y="-0.016884132"
       width="1.0328119"
       height="1.0337683"><feGaussianBlur
         inkscape:collect="always"
         stdDeviation="0.33458304"
         id="feGaussianBlur406-4" /></filter><clipPath
       clipPathUnits="userSpaceOnUse"
       id="clipPath408-1"><rect
         style="display:inline;fill:none;fill-opacity:1;stroke:#ffffff;stroke-width:0.264583;stroke-dasharray:none;stroke-opacity:1"
         id="rect408-1"
         width="46.457428"
         height="44.018589"
         x="745.66119"
         y="372.70486"
         ry="16.449181"
         rx="16.162104"
         inkscape:label="Cutoff" /></clipPath><filter
       inkscape:collect="always"
       style="color-interpolation-filters:sRGB"
       id="filter407-7"
       x="-0.06542887"
       y="-0.06905394"
       width="1.1308577"
       height="1.1381079"><feGaussianBlur
         inkscape:collect="always"
         stdDeviation="0.82555083"
         id="feGaussianBlur407-1" /></filter><linearGradient
       inkscape:collect="always"
       xlink:href="#linearGradient410"
       id="linearGradient1-2"
       gradientUnits="userSpaceOnUse"
       x1="768.88989"
       y1="370.46078"
       x2="768.88989"
       y2="418.9675" /><clipPath
       clipPathUnits="userSpaceOnUse"
       id="clipPath411-0"><rect
         style="display:inline;fill:none;fill-opacity:1;stroke:#ffffff;stroke-width:0.529167;stroke-dasharray:none;stroke-opacity:1"
         id="rect411-2"
         width="46.457428"
         height="44.018589"
         x="745.66119"
         y="372.70486"
         ry="16.449181"
         rx="16.162104"
         inkscape:label="Cutoff" /></clipPath><radialGradient
       inkscape:collect="always"
       xlink:href="#linearGradient412"
       id="radialGradient222"
       gradientUnits="userSpaceOnUse"
       gradientTransform="matrix(1.3398702,0,0,0.63888892,-261.19002,130.94515)"
       cx="768.6394"
       cy="368.08469"
       fx="768.6394"
       fy="368.08469"
       r="20.706581" /><clipPath
       clipPathUnits="userSpaceOnUse"
       id="clipPath413-7"><rect
         style="display:inline;fill:none;fill-opacity:1;stroke:none;stroke-width:0.264583;stroke-dasharray:none;stroke-opacity:1"
         id="rect413-7"
         width="46.457428"
         height="44.018589"
         x="745.66119"
         y="372.70486"
         ry="16.449181"
         rx="16.162104"
         inkscape:label="Cutoff" /></clipPath><linearGradient
       inkscape:collect="always"
       xlink:href="#linearGradient8"
       id="linearGradient307"
       x1="31.972792"
       y1="12.33234"
       x2="43.995537"
       y2="12.33234"
       gradientUnits="userSpaceOnUse" /><radialGradient
       inkscape:collect="always"
       xlink:href="#linearGradient26"
       id="radialGradient27"
       cx="-73.439133"
       cy="188.86877"
       fx="-73.439133"
       fy="188.86877"
       r="7.9486446"
       gradientTransform="matrix(1,0,0,0.98935704,0,2.0101229)"
       gradientUnits="userSpaceOnUse" /><linearGradient
       id="linearGradient26"
       inkscape:collect="always"><stop
         style="stop-color:#358cfe;stop-opacity:1;"
         offset="0.49851337"
         id="stop26" /><stop
         style="stop-color:#356ffe;stop-opacity:1;"
         offset="1"
         id="stop27" /></linearGradient><radialGradient
       inkscape:collect="always"
       xlink:href="#linearGradient2-0"
       id="radialGradient3"
       cx="-72.196388"
       cy="187.2679"
       fx="-72.196388"
       fy="187.2679"
       r="7.9486446"
       gradientTransform="matrix(1.8994681,0,0,1.5638627,65.83052,-106.35241)"
       gradientUnits="userSpaceOnUse" /><linearGradient
       id="linearGradient2-0"
       inkscape:collect="always"><stop
         style="stop-color:#35cdfe;stop-opacity:0;"
         offset="0.47373638"
         id="stop3-6" /><stop
         style="stop-color:#0f0e4c;stop-opacity:1;"
         offset="0.92467791"
         id="stop2-0" /></linearGradient><radialGradient
       inkscape:collect="always"
       xlink:href="#linearGradient17"
       id="radialGradient4"
       gradientUnits="userSpaceOnUse"
       gradientTransform="matrix(1.8994681,0,0,1.5638627,65.83052,-106.35241)"
       cx="-74.001961"
       cy="190.27696"
       fx="-74.001961"
       fy="190.27696"
       r="7.9486446" /><linearGradient
       id="linearGradient17"
       inkscape:collect="always"><stop
         style="stop-color:#35d8fe;stop-opacity:0;"
         offset="0.47373638"
         id="stop8-7" /><stop
         style="stop-color:#3451b1;stop-opacity:1;"
         offset="0.92467791"
         id="stop17-3" /></linearGradient><clipPath
       clipPathUnits="userSpaceOnUse"
       id="clipPath18"><ellipse
         style="fill:none;fill-opacity:1;stroke:#000000;stroke-width:0.264583;stroke-linecap:round;stroke-dasharray:none;stroke-opacity:0.805585"
         id="ellipse19"
         cx="-73.439133"
         cy="188.86877"
         rx="7.8163533"
         ry="7.7317567" /></clipPath><filter
       inkscape:collect="always"
       style="color-interpolation-filters:sRGB"
       id="filter19"
       x="-0.094955485"
       y="-0.095994442"
       width="1.189911"
       height="1.1919889"><feGaussianBlur
         inkscape:collect="always"
         stdDeviation="0.50826154"
         id="feGaussianBlur19" /></filter><radialGradient
       inkscape:collect="always"
       xlink:href="#linearGradient21"
       id="radialGradient25"
       cx="-79.530106"
       cy="182.71115"
       fx="-79.530106"
       fy="182.71115"
       r="7.8163533"
       gradientTransform="matrix(1,0,0,0.98917691,0,2.0441441)"
       gradientUnits="userSpaceOnUse" /><linearGradient
       id="linearGradient21"
       inkscape:collect="always"><stop
         style="stop-color:#ffffff;stop-opacity:0.84912282;"
         offset="0"
         id="stop24" /><stop
         style="stop-color:#ffffff;stop-opacity:0;"
         offset="1"
         id="stop25" /></linearGradient><radialGradient
       inkscape:collect="always"
       xlink:href="#linearGradient21"
       id="radialGradient26"
       gradientUnits="userSpaceOnUse"
       gradientTransform="matrix(1,0,0,0.98917691,0,2.0441441)"
       cx="-66.502182"
       cy="195.93863"
       fx="-66.502182"
       fy="195.93863"
       r="7.8163533" /><filter
       inkscape:collect="always"
       style="color-interpolation-filters:sRGB"
       id="filter26"
       x="-0.035725618"
       y="-0.03611651"
       width="1.0714512"
       height="1.072233"><feGaussianBlur
         inkscape:collect="always"
         stdDeviation="0.16939207"
         id="feGaussianBlur26" /></filter><filter
       inkscape:collect="always"
       style="color-interpolation-filters:sRGB"
       id="filter35"
       x="-0.078159582"
       y="-0.074033995"
       width="1.1564397"
       height="1.1478666"><feGaussianBlur
         inkscape:collect="always"
         stdDeviation="0.26164957"
         id="feGaussianBlur35" /></filter><radialGradient
       inkscape:collect="always"
       xlink:href="#linearGradient26"
       id="radialGradient31"
       gradientUnits="userSpaceOnUse"
       gradientTransform="matrix(1,0,0,0.98935704,0,2.0101229)"
       cx="-73.439133"
       cy="188.86877"
       fx="-73.439133"
       fy="188.86877"
       r="7.9486446" /><radialGradient
       inkscape:collect="always"
       xlink:href="#linearGradient2-0"
       id="radialGradient32"
       gradientUnits="userSpaceOnUse"
       gradientTransform="matrix(1.8994681,0,0,1.5638627,65.83052,-106.35241)"
       cx="-72.196388"
       cy="187.2679"
       fx="-72.196388"
       fy="187.2679"
       r="7.9486446" /><radialGradient
       inkscape:collect="always"
       xlink:href="#linearGradient17"
       id="radialGradient33"
       gradientUnits="userSpaceOnUse"
       gradientTransform="matrix(1.8994681,0,0,1.5638627,65.83052,-106.35241)"
       cx="-74.001961"
       cy="190.27696"
       fx="-74.001961"
       fy="190.27696"
       r="7.9486446" /><radialGradient
       inkscape:collect="always"
       xlink:href="#linearGradient21"
       id="radialGradient34"
       gradientUnits="userSpaceOnUse"
       gradientTransform="matrix(1,0,0,0.98917691,0,2.0441441)"
       cx="-79.530106"
       cy="182.71115"
       fx="-79.530106"
       fy="182.71115"
       r="7.8163533" /><radialGradient
       inkscape:collect="always"
       xlink:href="#linearGradient21"
       id="radialGradient35"
       gradientUnits="userSpaceOnUse"
       gradientTransform="matrix(1,0,0,0.98917691,0,2.0441441)"
       cx="-66.502182"
       cy="195.93863"
       fx="-66.502182"
       fy="195.93863"
       r="7.8163533" /><filter
       style="color-interpolation-filters:sRGB;"
       inkscape:label="Lightness-Contrast"
       id="filter36"
       x="-0.006670625"
       y="-0.006670625"
       width="1.0133412"
       height="1.0133412"><feColorMatrix
         values="0.679128 0 0 -0.185698 0.160436 0 0.679128 0 -0.185698 0.160436 0 0 0.679128 -0.185698 0.160436 0 0 0 1 0"
         id="feColorMatrix36" /></filter></defs><g
     inkscape:groupmode="layer"
     id="layer2"
     inkscape:label="Calque 1"
     style="display:inline;opacity:1"><g
       id="g312"
       inkscape:label="SpriteSheet"
       transform="translate(86.138967,196.11905)"><g
         id="g31"
         style="display:inline;opacity:1;stroke-width:1.00012;stroke-dasharray:none;filter:url(#filter36)"
         transform="translate(17.444962,-274.38609)"
         inkscape:label="SettingsPressed"><ellipse
           style="fill:url(#radialGradient31);fill-opacity:1;stroke:#001090;stroke-width:0.264583;stroke-linecap:round;stroke-dasharray:none;stroke-opacity:0.658432"
           id="ellipse21"
           cx="-73.439133"
           cy="188.86877"
           rx="7.8163533"
           ry="7.7317562"
           inkscape:label="MainColor" /><ellipse
           style="fill:url(#radialGradient32);stroke:none;stroke-width:0.264583;stroke-linecap:round;stroke-dasharray:none;stroke-opacity:0.805585"
           id="ellipse22"
           cx="-73.439133"
           cy="188.86877"
           rx="7.8163533"
           ry="7.7317562"
           inkscape:label="ShadeTR" /><ellipse
           style="fill:url(#radialGradient33);stroke:none;stroke-width:0.264583;stroke-linecap:round;stroke-dasharray:none;stroke-opacity:0.805585"
           id="ellipse23"
           cx="-73.439133"
           cy="188.86877"
           rx="7.8163533"
           ry="7.7317562"
           inkscape:label="ShadeBL" /><ellipse
           style="fill:none;fill-opacity:1;stroke:#000000;stroke-width:0.529167;stroke-linecap:round;stroke-dasharray:none;stroke-opacity:0.805585;filter:url(#filter19)"
           id="ellipse24"
           cx="-73.439133"
           cy="188.86877"
           rx="7.8163533"
           ry="7.7317562"
           clip-path="url(#clipPath18)"
           inkscape:label="CircleShadow" /><ellipse
           style="fill:url(#radialGradient34);fill-opacity:1;stroke:none;stroke-width:0.264583;stroke-linecap:round;stroke-dasharray:none;stroke-opacity:0.946294"
           id="ellipse27"
           cx="-73.439133"
           cy="188.86877"
           rx="7.8163533"
           ry="7.7317562"
           inkscape:label="RelectTL" /><ellipse
           style="fill:url(#radialGradient35);fill-opacity:1;stroke:none;stroke-width:0.264583;stroke-linecap:round;stroke-dasharray:none;stroke-opacity:0.946294"
           id="ellipse28"
           cx="-73.439133"
           cy="188.86877"
           rx="7.8163533"
           ry="7.7317562"
           inkscape:label="ReflectBR" /><ellipse
           style="fill:none;fill-opacity:1;stroke:#ffffff;stroke-width:0.25238;stroke-linecap:round;stroke-dasharray:none;stroke-opacity:0.946294;filter:url(#filter26)"
           id="ellipse29"
           cx="-73.439133"
           cy="188.86877"
           rx="7.4558678"
           ry="7.3751721"
           inkscape:label="ReflectRing" /><g
           id="g30"
           inkscape:label="GearIcon"
           style="stroke-width:1.00012;stroke-dasharray:none"><path
             id="path29"
             style="fill:#ffffff;fill-opacity:1;stroke:#000000;stroke-width:0.107093;stroke-opacity:0.946294"
             d="m -73.085064,183.71783 c -0.01312,-5.3e-4 -0.02808,0.002 -0.04173,0.007 -0.01196,0.005 -0.01604,0.009 -0.01594,0.0125 -0.244452,-0.0135 -0.510929,-0.0123 -0.742702,0.01 -0.473252,0.0449 -0.583729,0.084 -0.687866,0.24292 -0.03139,0.0479 -0.117694,0.35748 -0.191733,0.68797 -0.07404,0.3305 -0.137838,0.60355 -0.141768,0.60675 -0.0039,0.003 -0.109132,0.057 -0.233789,0.11958 -0.124659,0.0625 -0.31757,0.17513 -0.428733,0.25005 -0.111165,0.0749 -0.2247,0.13624 -0.252271,0.13624 -0.02757,0 -0.292439,-0.0765 -0.588595,-0.16998 -0.630667,-0.1991 -0.773506,-0.21004 -0.937757,-0.0719 -0.248267,0.2089 -0.834664,1.20974 -0.924035,1.57715 -0.05022,0.20647 0.03303,0.32927 0.524961,0.77414 l 0.472115,0.42696 -6.42e-4,0.53553 -6.42e-4,0.51748 c -0.0026,-8.7e-4 -0.01685,0.009 -0.04604,0.0322 -0.03636,0.0285 -0.06607,0.0582 -0.06607,0.066 0,0.01 0.0038,0.0127 0.0095,0.0128 l -0.342799,0.31048 c 0.04303,-0.0551 0.04214,-0.0573 -0.0161,-0.0117 -0.03636,0.0285 -0.06612,0.0583 -0.06612,0.0661 0,0.009 0.0033,0.0125 0.0083,0.0131 -0.537303,0.4888 -0.555283,0.54758 -0.389943,0.9605 0.144366,0.36054 0.367081,0.74842 0.636292,1.10819 0.305823,0.40869 0.341205,0.41393 1.119089,0.16623 l 0.616485,-0.19634 0.329351,0.20684 c 0.181164,0.11374 0.385509,0.22527 0.454077,0.2479 l 0.124669,0.0411 0.122843,0.57488 c 0.06756,0.31618 0.144961,0.62876 0.172035,0.69467 0.06856,0.1669 0.187095,0.2323 0.49176,0.27136 h 1.07e-4 c 0.610009,0.0782 1.4436,0.0329 1.684332,-0.0916 0.147211,-0.0761 0.187574,-0.18082 0.334111,-0.86665 l 0.121127,-0.56707 0.213648,-0.10071 c 0.117507,-0.0554 0.321349,-0.17048 0.452969,-0.25576 l 0.239322,-0.15511 0.62246,0.19539 c 0.837201,0.26281 0.838077,0.26254 1.292563,-0.41069 0.266969,-0.39546 0.552793,-1.02036 0.552793,-1.20862 0,-0.17176 -0.04802,-0.22834 -0.75233,-0.87888 2.47e-4,4e-5 0.0011,8.7e-4 0.0014,8.7e-4 0.0311,0 0.01108,-0.0311 -0.05185,-0.0804 -0.05991,-0.047 -0.06126,-0.0456 -0.01428,0.0143 0.0079,0.0101 0.01503,0.0173 0.02263,0.0259 l -0.206565,-0.19067 v -0.52303 -0.52302 l 0.154108,-0.13906 c -3.75e-4,8.6e-4 -0.0031,0.003 -0.0031,0.004 0,0.0311 0.031,0.011 0.08035,-0.0519 0.03414,-0.0435 0.03237,-0.0467 0.01156,-0.0323 l 0.229914,-0.2074 c 0.03512,-0.0317 0.06259,-0.0574 0.09374,-0.086 2.35e-4,0.0306 0.03118,0.0105 0.08035,-0.0521 0.03401,-0.0433 0.0323,-0.0466 0.01179,-0.0324 0.377176,-0.35476 0.403516,-0.45836 0.304617,-0.72179 -0.187389,-0.49913 -0.627995,-1.22958 -0.869694,-1.4418 -0.185107,-0.16253 -0.322797,-0.15446 -1.000507,0.0586 l -0.560706,0.1763 -0.238935,-0.15433 c -0.131414,-0.0849 -0.334916,-0.2009 -0.452249,-0.25781 l -0.213316,-0.10347 -0.12168,-0.57011 c -0.143605,-0.67291 -0.19153,-0.79062 -0.353146,-0.86732 -0.107749,-0.0512 -0.337125,-0.0892 -0.604366,-0.10835 0.0068,-0.003 0.0091,-0.009 0.0034,-0.0139 -0.0063,-0.006 -0.01759,-0.01 -0.03071,-0.0103 z m -3.96639,1.69989 c -0.01312,-5.4e-4 -0.02809,0.002 -0.04173,0.007 -0.03014,0.0121 -0.02115,0.0211 0.02286,0.0229 0.03982,0.002 0.06213,-0.007 0.04958,-0.0198 -0.0063,-0.006 -0.01758,-0.01 -0.03071,-0.0103 z m 3.548337,1.82925 c 7.17e-4,0.005 0.02147,0.009 0.0623,0.01 0.04387,5.3e-4 0.07045,-0.003 0.07421,-0.009 0.07861,0.004 0.157514,0.0142 0.236114,0.0306 0.342654,0.0714 0.542165,0.17496 0.791008,0.4103 0.377014,0.35656 0.521006,0.71858 0.497624,1.25107 -0.01273,0.28988 -0.03444,0.38674 -0.13496,0.60143 -0.07075,0.1511 -0.167973,0.28884 -0.282373,0.41096 -0.0055,0.003 -0.01422,0.008 -0.0389,0.0272 -0.03636,0.0285 -0.06612,0.0582 -0.06612,0.066 0,0.003 5.68e-4,0.005 0.0012,0.008 -0.205069,0.18403 -0.45423,0.32004 -0.723169,0.38203 -0.498427,0.11491 -1.016116,-0.0287 -1.397201,-0.35358 -0.0095,-0.0169 -0.04116,-0.0483 -0.100101,-0.10027 l -0.03763,-0.0331 c -0.110392,-0.11874 -0.205555,-0.25413 -0.278445,-0.40572 -0.233273,-0.48513 -0.185074,-1.13909 0.116204,-1.57698 0.303171,-0.44065 0.779337,-0.7002 1.280223,-0.71819 z m -4.338461,0.58373 c -0.0019,0.002 0.0094,0.0172 0.03292,0.0471 0.04935,0.0629 0.0804,0.0829 0.0804,0.0519 0,-0.008 -0.02976,-0.0376 -0.06612,-0.0661 -0.02995,-0.0235 -0.04525,-0.0349 -0.0472,-0.0329 z m 0.415508,0.37771 c -0.0019,0.002 0.0095,0.0173 0.03298,0.0472 0.04935,0.0629 0.08035,0.0829 0.08035,0.0518 0,-0.008 -0.02976,-0.0376 -0.06612,-0.066 -0.02996,-0.0235 -0.04525,-0.035 -0.0472,-0.033 z m 0.126274,0.31524 c -0.0053,5.4e-4 -0.0089,0.0144 -0.01,0.0405 -0.0017,0.0399 0.0072,0.0621 0.01981,0.0496 0.01256,-0.0125 0.0139,-0.0451 0.003,-0.0725 -0.0049,-0.0123 -0.0092,-0.018 -0.01284,-0.0177 z m 7.710832,0.11776 c -0.0069,-0.003 -0.01168,0.0191 -0.01168,0.0581 0,0.0519 0.0085,0.0732 0.01904,0.0472 0.01048,-0.026 0.01048,-0.0685 0,-0.0944 -0.0026,-0.006 -0.005,-0.0101 -0.0074,-0.0109 z m -7.702809,0.0802 c -0.0057,-0.009 -0.0099,0.0322 -0.01018,0.11011 -3.21e-4,0.10388 0.0068,0.15088 0.01577,0.10442 0.009,-0.0465 0.0092,-0.13143 5.35e-4,-0.18885 -0.0022,-0.0144 -0.0043,-0.0228 -0.0062,-0.0257 z m 7.70137,0.0835 c -0.0049,0.003 -0.0084,0.0254 -0.0089,0.0644 -7.71e-4,0.0623 0.007,0.0924 0.01743,0.0668 0.01035,-0.0256 0.01095,-0.0766 0.0014,-0.11333 -0.0036,-0.0138 -0.007,-0.0195 -0.01,-0.0178 z m -0.0057,0.17309 c -0.004,0.004 -0.0067,0.0172 -0.0076,0.0392 -0.0017,0.0398 0.0072,0.0621 0.01981,0.0496 0.01256,-0.0125 0.0139,-0.0452 0.003,-0.0725 -0.006,-0.0151 -0.01124,-0.0204 -0.01522,-0.0163 z m -7.706128,0.0378 c -0.004,0.004 -0.0067,0.0171 -0.0076,0.0392 -0.0017,0.0398 0.0072,0.0621 0.01981,0.0496 0.01256,-0.0125 0.0139,-0.0451 0.003,-0.0724 -0.006,-0.0151 -0.01125,-0.0204 -0.01522,-0.0164 z m 0.02601,0.36515 v 0.0171 l -0.03343,0.0303 c 6.42e-4,-7.4e-4 0.001,-8.7e-4 0.0017,-0.002 0.02264,-0.0289 0.0327,-0.0426 0.03176,-0.0455 z m -0.187695,0.1494 c -0.0019,-0.002 -0.01724,0.009 -0.0472,0.0329 -0.03636,0.0285 -0.06612,0.0583 -0.06612,0.0661 0,0.0311 0.03105,0.0111 0.0804,-0.0519 0.02349,-0.0299 0.03487,-0.0452 0.03292,-0.0471 z m 8.423875,0.33998 c -0.0019,0.002 0.0095,0.0172 0.03298,0.0471 0.02851,0.0364 0.05822,0.0661 0.06607,0.0661 0.03109,0 0.01108,-0.0311 -0.05185,-0.0804 -0.02996,-0.0235 -0.04525,-0.0349 -0.0472,-0.0329 z m -8.839383,0.0378 c -0.0019,-0.002 -0.01724,0.009 -0.0472,0.033 -0.03636,0.0285 -0.06612,0.0582 -0.06612,0.066 0,0.0311 0.03105,0.0111 0.0804,-0.0518 0.02349,-0.0299 0.03488,-0.0453 0.03292,-0.0472 z m 4.419691,0.53376 c -0.01711,0 -0.03422,0.003 -0.0472,0.008 -0.02597,0.0104 -0.0047,0.019 0.0472,0.019 0.05194,0 0.07317,-0.009 0.0472,-0.019 -0.01299,-0.005 -0.03008,-0.008 -0.0472,-0.008 z m 0.03287,3.55049 c -0.02739,-1e-4 -0.05613,0.002 -0.07963,0.007 -0.04699,0.009 -0.01748,0.0168 0.06563,0.0172 0.08311,4.3e-4 0.121554,-0.007 0.08544,-0.0164 -0.01806,-0.004 -0.04405,-0.007 -0.07144,-0.007 z m -0.187086,2.2e-4 c -0.01312,-5.4e-4 -0.02808,0.002 -0.04173,0.007 -0.03014,0.0121 -0.02121,0.021 0.0228,0.0228 0.03982,0.002 0.06213,-0.007 0.04958,-0.0198 -0.0063,-0.006 -0.01753,-0.01 -0.03066,-0.0103 z m 0.380868,2.1e-4 c -0.01711,0 -0.03422,0.003 -0.0472,0.008 -0.02597,0.0104 -0.0047,0.019 0.0472,0.019 0.05194,0 0.07317,-0.009 0.0472,-0.019 -0.01299,-0.005 -0.03008,-0.008 -0.0472,-0.008 z" /><path
             id="path30"
             style="fill:none;fill-opacity:1;stroke:#000000;stroke-width:0.264583;stroke-dasharray:none;stroke-opacity:0.946294;filter:url(#filter35)"
             d="m -73.085064,183.71783 c -0.01312,-5.3e-4 -0.02808,0.002 -0.04173,0.007 -0.01196,0.005 -0.01604,0.009 -0.01594,0.0125 -0.244452,-0.0135 -0.510929,-0.0123 -0.742702,0.01 -0.473252,0.0449 -0.583729,0.084 -0.687866,0.24292 -0.03139,0.0479 -0.117694,0.35748 -0.191733,0.68797 -0.07404,0.3305 -0.137838,0.60355 -0.141768,0.60675 -0.0039,0.003 -0.109132,0.057 -0.233789,0.11958 -0.124659,0.0625 -0.31757,0.17513 -0.428733,0.25005 -0.111165,0.0749 -0.2247,0.13624 -0.252271,0.13624 -0.02757,0 -0.292439,-0.0765 -0.588595,-0.16998 -0.630667,-0.1991 -0.773506,-0.21004 -0.937757,-0.0719 -0.248267,0.2089 -0.834664,1.20974 -0.924035,1.57715 -0.05022,0.20647 0.03303,0.32927 0.524961,0.77414 l 0.472115,0.42696 -6.42e-4,0.53553 -6.42e-4,0.51748 c -0.0026,-8.7e-4 -0.01685,0.009 -0.04604,0.0322 -0.03636,0.0285 -0.06607,0.0582 -0.06607,0.066 0,0.01 0.0038,0.0127 0.0095,0.0128 l -0.342799,0.31048 c 0.04303,-0.0551 0.04214,-0.0573 -0.0161,-0.0117 -0.03636,0.0285 -0.06612,0.0583 -0.06612,0.0661 0,0.009 0.0033,0.0125 0.0083,0.0131 -0.537303,0.4888 -0.555283,0.54758 -0.389943,0.9605 0.144366,0.36054 0.367081,0.74842 0.636292,1.10819 0.305823,0.40869 0.341205,0.41393 1.119089,0.16623 l 0.616485,-0.19634 0.329351,0.20684 c 0.181164,0.11374 0.385509,0.22527 0.454077,0.2479 l 0.124669,0.0411 0.122843,0.57488 c 0.06756,0.31618 0.144961,0.62876 0.172035,0.69467 0.06856,0.1669 0.187095,0.2323 0.49176,0.27136 h 1.07e-4 c 0.610009,0.0782 1.4436,0.0329 1.684332,-0.0916 0.147211,-0.0761 0.187574,-0.18082 0.334111,-0.86665 l 0.121127,-0.56707 0.213648,-0.10071 c 0.117507,-0.0554 0.321349,-0.17048 0.452969,-0.25576 l 0.239322,-0.15511 0.62246,0.19539 c 0.837201,0.26281 0.838077,0.26254 1.292563,-0.41069 0.266969,-0.39546 0.552793,-1.02036 0.552793,-1.20862 0,-0.17176 -0.04802,-0.22834 -0.75233,-0.87888 2.47e-4,4e-5 0.0011,8.7e-4 0.0014,8.7e-4 0.0311,0 0.01108,-0.0311 -0.05185,-0.0804 -0.05991,-0.047 -0.06126,-0.0456 -0.01428,0.0143 0.0079,0.0101 0.01503,0.0173 0.02263,0.0259 l -0.206565,-0.19067 v -0.52303 -0.52302 l 0.154108,-0.13906 c -3.75e-4,8.6e-4 -0.0031,0.003 -0.0031,0.004 0,0.0311 0.031,0.011 0.08035,-0.0519 0.03414,-0.0435 0.03237,-0.0467 0.01156,-0.0323 l 0.229914,-0.2074 c 0.03512,-0.0317 0.06259,-0.0574 0.09374,-0.086 2.35e-4,0.0306 0.03118,0.0105 0.08035,-0.0521 0.03401,-0.0433 0.0323,-0.0466 0.01179,-0.0324 0.377176,-0.35476 0.403516,-0.45836 0.304617,-0.72179 -0.187389,-0.49913 -0.627995,-1.22958 -0.869694,-1.4418 -0.185107,-0.16253 -0.322797,-0.15446 -1.000507,0.0586 l -0.560706,0.1763 -0.238935,-0.15433 c -0.131414,-0.0849 -0.334916,-0.2009 -0.452249,-0.25781 l -0.213316,-0.10347 -0.12168,-0.57011 c -0.143605,-0.67291 -0.19153,-0.79062 -0.353146,-0.86732 -0.107749,-0.0512 -0.337125,-0.0892 -0.604366,-0.10835 0.0068,-0.003 0.0091,-0.009 0.0034,-0.0139 -0.0063,-0.006 -0.01759,-0.01 -0.03071,-0.0103 z m -3.96639,1.69989 c -0.01312,-5.4e-4 -0.02809,0.002 -0.04173,0.007 -0.03014,0.0121 -0.02115,0.0211 0.02286,0.0229 0.03982,0.002 0.06213,-0.007 0.04958,-0.0198 -0.0063,-0.006 -0.01758,-0.01 -0.03071,-0.0103 z m 3.548337,1.82925 c 7.17e-4,0.005 0.02147,0.009 0.0623,0.01 0.04387,5.3e-4 0.07045,-0.003 0.07421,-0.009 0.07861,0.004 0.157514,0.0142 0.236114,0.0306 0.342654,0.0714 0.542165,0.17496 0.791008,0.4103 0.377014,0.35656 0.521006,0.71858 0.497624,1.25107 -0.01273,0.28988 -0.03444,0.38674 -0.13496,0.60143 -0.07075,0.1511 -0.167973,0.28884 -0.282373,0.41096 -0.0055,0.003 -0.01422,0.008 -0.0389,0.0272 -0.03636,0.0285 -0.06612,0.0582 -0.06612,0.066 0,0.003 5.68e-4,0.005 0.0012,0.008 -0.205069,0.18403 -0.45423,0.32004 -0.723169,0.38203 -0.498427,0.11491 -1.016116,-0.0287 -1.397201,-0.35358 -0.0095,-0.0169 -0.04116,-0.0483 -0.100101,-0.10027 l -0.03763,-0.0331 c -0.110392,-0.11874 -0.205555,-0.25413 -0.278445,-0.40572 -0.233273,-0.48513 -0.185074,-1.13909 0.116204,-1.57698 0.303171,-0.44065 0.779337,-0.7002 1.280223,-0.71819 z m -4.338461,0.58373 c -0.0019,0.002 0.0094,0.0172 0.03292,0.0471 0.04935,0.0629 0.0804,0.0829 0.0804,0.0519 0,-0.008 -0.02976,-0.0376 -0.06612,-0.0661 -0.02995,-0.0235 -0.04525,-0.0349 -0.0472,-0.0329 z m 0.415508,0.37771 c -0.0019,0.002 0.0095,0.0173 0.03298,0.0472 0.04935,0.0629 0.08035,0.0829 0.08035,0.0518 0,-0.008 -0.02976,-0.0376 -0.06612,-0.066 -0.02996,-0.0235 -0.04525,-0.035 -0.0472,-0.033 z m 0.126274,0.31524 c -0.0053,5.4e-4 -0.0089,0.0144 -0.01,0.0405 -0.0017,0.0399 0.0072,0.0621 0.01981,0.0496 0.01256,-0.0125 0.0139,-0.0451 0.003,-0.0725 -0.0049,-0.0123 -0.0092,-0.018 -0.01284,-0.0177 z m 7.710832,0.11776 c -0.0069,-0.003 -0.01168,0.0191 -0.01168,0.0581 0,0.0519 0.0085,0.0732 0.01904,0.0472 0.01048,-0.026 0.01048,-0.0685 0,-0.0944 -0.0026,-0.006 -0.005,-0.0101 -0.0074,-0.0109 z m -7.702809,0.0802 c -0.0057,-0.009 -0.0099,0.0322 -0.01018,0.11011 -3.21e-4,0.10388 0.0068,0.15088 0.01577,0.10442 0.009,-0.0465 0.0092,-0.13143 5.35e-4,-0.18885 -0.0022,-0.0144 -0.0043,-0.0228 -0.0062,-0.0257 z m 7.70137,0.0835 c -0.0049,0.003 -0.0084,0.0254 -0.0089,0.0644 -7.71e-4,0.0623 0.007,0.0924 0.01743,0.0668 0.01035,-0.0256 0.01095,-0.0766 0.0014,-0.11333 -0.0036,-0.0138 -0.007,-0.0195 -0.01,-0.0178 z m -0.0057,0.17309 c -0.004,0.004 -0.0067,0.0172 -0.0076,0.0392 -0.0017,0.0398 0.0072,0.0621 0.01981,0.0496 0.01256,-0.0125 0.0139,-0.0452 0.003,-0.0725 -0.006,-0.0151 -0.01124,-0.0204 -0.01522,-0.0163 z m -7.706128,0.0378 c -0.004,0.004 -0.0067,0.0171 -0.0076,0.0392 -0.0017,0.0398 0.0072,0.0621 0.01981,0.0496 0.01256,-0.0125 0.0139,-0.0451 0.003,-0.0724 -0.006,-0.0151 -0.01125,-0.0204 -0.01522,-0.0164 z m 0.02601,0.36515 v 0.0171 l -0.03343,0.0303 c 6.42e-4,-7.4e-4 0.001,-8.7e-4 0.0017,-0.002 0.02264,-0.0289 0.0327,-0.0426 0.03176,-0.0455 z m -0.187695,0.1494 c -0.0019,-0.002 -0.01724,0.009 -0.0472,0.0329 -0.03636,0.0285 -0.06612,0.0583 -0.06612,0.0661 0,0.0311 0.03105,0.0111 0.0804,-0.0519 0.02349,-0.0299 0.03487,-0.0452 0.03292,-0.0471 z m 8.423875,0.33998 c -0.0019,0.002 0.0095,0.0172 0.03298,0.0471 0.02851,0.0364 0.05822,0.0661 0.06607,0.0661 0.03109,0 0.01108,-0.0311 -0.05185,-0.0804 -0.02996,-0.0235 -0.04525,-0.0349 -0.0472,-0.0329 z m -8.839383,0.0378 c -0.0019,-0.002 -0.01724,0.009 -0.0472,0.033 -0.03636,0.0285 -0.06612,0.0582 -0.06612,0.066 0,0.0311 0.03105,0.0111 0.0804,-0.0518 0.02349,-0.0299 0.03488,-0.0453 0.03292,-0.0472 z m 4.419691,0.53376 c -0.01711,0 -0.03422,0.003 -0.0472,0.008 -0.02597,0.0104 -0.0047,0.019 0.0472,0.019 0.05194,0 0.07317,-0.009 0.0472,-0.019 -0.01299,-0.005 -0.03008,-0.008 -0.0472,-0.008 z m 0.03287,3.55049 c -0.02739,-1e-4 -0.05613,0.002 -0.07963,0.007 -0.04699,0.009 -0.01748,0.0168 0.06563,0.0172 0.08311,4.3e-4 0.121554,-0.007 0.08544,-0.0164 -0.01806,-0.004 -0.04405,-0.007 -0.07144,-0.007 z m -0.187086,2.2e-4 c -0.01312,-5.4e-4 -0.02808,0.002 -0.04173,0.007 -0.03014,0.0121 -0.02121,0.021 0.0228,0.0228 0.03982,0.002 0.06213,-0.007 0.04958,-0.0198 -0.0063,-0.006 -0.01753,-0.01 -0.03066,-0.0103 z m 0.380868,2.1e-4 c -0.01711,0 -0.03422,0.003 -0.0472,0.008 -0.02597,0.0104 -0.0047,0.019 0.0472,0.019 0.05194,0 0.07317,-0.009 0.0472,-0.019 -0.01299,-0.005 -0.03008,-0.008 -0.0472,-0.008 z" /></g><rect
           style="display:none;opacity:1;fill:none;fill-opacity:1;stroke:#000000;stroke-width:0.264583;stroke-linecap:round;stroke-linejoin:round;stroke-dasharray:none;stroke-opacity:1"
           id="rect30"
           width="19.831949"
           height="19.831949"
           x="-86.006676"
           y="-175.89023"
           ry="0"
           inkscape:label="rect304"
           transform="translate(2.6515674,354.84303)" /></g><g
         id="g27"
         style="display:inline;opacity:1;stroke-width:1.00012;stroke-dasharray:none"
         transform="translate(-2.6515681,-274.38609)"
         inkscape:label="Settings"><ellipse
           style="fill:url(#radialGradient27);fill-opacity:1;stroke:#001090;stroke-width:0.264583;stroke-linecap:round;stroke-dasharray:none;stroke-opacity:0.658432"
           id="ellipse1"
           cx="-73.439133"
           cy="188.86877"
           rx="7.8163533"
           ry="7.7317562"
           inkscape:label="MainColor" /><ellipse
           style="fill:url(#radialGradient3);stroke:none;stroke-width:0.264583;stroke-linecap:round;stroke-dasharray:none;stroke-opacity:0.805585"
           id="path1"
           cx="-73.439133"
           cy="188.86877"
           rx="7.8163533"
           ry="7.7317562"
           inkscape:label="ShadeTR" /><ellipse
           style="fill:url(#radialGradient4);stroke:none;stroke-width:0.264583;stroke-linecap:round;stroke-dasharray:none;stroke-opacity:0.805585"
           id="ellipse3"
           cx="-73.439133"
           cy="188.86877"
           rx="7.8163533"
           ry="7.7317562"
           inkscape:label="ShadeBL" /><ellipse
           style="fill:none;fill-opacity:1;stroke:#000000;stroke-width:0.529167;stroke-linecap:round;stroke-dasharray:none;stroke-opacity:0.805585;filter:url(#filter19)"
           id="ellipse17"
           cx="-73.439133"
           cy="188.86877"
           rx="7.8163533"
           ry="7.7317562"
           clip-path="url(#clipPath18)"
           inkscape:label="CircleShadow" /><ellipse
           style="fill:url(#radialGradient25);fill-opacity:1;stroke:none;stroke-width:0.264583;stroke-linecap:round;stroke-dasharray:none;stroke-opacity:0.946294"
           id="ellipse20"
           cx="-73.439133"
           cy="188.86877"
           rx="7.8163533"
           ry="7.7317562"
           inkscape:label="RelectTL" /><ellipse
           style="fill:url(#radialGradient26);fill-opacity:1;stroke:none;stroke-width:0.264583;stroke-linecap:round;stroke-dasharray:none;stroke-opacity:0.946294"
           id="ellipse25"
           cx="-73.439133"
           cy="188.86877"
           rx="7.8163533"
           ry="7.7317562"
           inkscape:label="ReflectBR" /><ellipse
           style="fill:none;fill-opacity:1;stroke:#ffffff;stroke-width:0.25238;stroke-linecap:round;stroke-dasharray:none;stroke-opacity:0.946294;filter:url(#filter26)"
           id="ellipse26"
           cx="-73.439133"
           cy="188.86877"
           rx="7.4558678"
           ry="7.3751721"
           inkscape:label="ReflectRing" /><g
           id="g35"
           inkscape:label="GearIcon"
           style="stroke-width:1.00012;stroke-dasharray:none"><path
             id="path34"
             style="fill:#ffffff;fill-opacity:1;stroke:#000000;stroke-width:0.107093;stroke-opacity:0.946294"
             d="m -73.085064,183.71783 c -0.01312,-5.3e-4 -0.02808,0.002 -0.04173,0.007 -0.01196,0.005 -0.01604,0.009 -0.01594,0.0125 -0.244452,-0.0135 -0.510929,-0.0123 -0.742702,0.01 -0.473252,0.0449 -0.583729,0.084 -0.687866,0.24292 -0.03139,0.0479 -0.117694,0.35748 -0.191733,0.68797 -0.07404,0.3305 -0.137838,0.60355 -0.141768,0.60675 -0.0039,0.003 -0.109132,0.057 -0.233789,0.11958 -0.124659,0.0625 -0.31757,0.17513 -0.428733,0.25005 -0.111165,0.0749 -0.2247,0.13624 -0.252271,0.13624 -0.02757,0 -0.292439,-0.0765 -0.588595,-0.16998 -0.630667,-0.1991 -0.773506,-0.21004 -0.937757,-0.0719 -0.248267,0.2089 -0.834664,1.20974 -0.924035,1.57715 -0.05022,0.20647 0.03303,0.32927 0.524961,0.77414 l 0.472115,0.42696 -6.42e-4,0.53553 -6.42e-4,0.51748 c -0.0026,-8.7e-4 -0.01685,0.009 -0.04604,0.0322 -0.03636,0.0285 -0.06607,0.0582 -0.06607,0.066 0,0.01 0.0038,0.0127 0.0095,0.0128 l -0.342799,0.31048 c 0.04303,-0.0551 0.04214,-0.0573 -0.0161,-0.0117 -0.03636,0.0285 -0.06612,0.0583 -0.06612,0.0661 0,0.009 0.0033,0.0125 0.0083,0.0131 -0.537303,0.4888 -0.555283,0.54758 -0.389943,0.9605 0.144366,0.36054 0.367081,0.74842 0.636292,1.10819 0.305823,0.40869 0.341205,0.41393 1.119089,0.16623 l 0.616485,-0.19634 0.329351,0.20684 c 0.181164,0.11374 0.385509,0.22527 0.454077,0.2479 l 0.124669,0.0411 0.122843,0.57488 c 0.06756,0.31618 0.144961,0.62876 0.172035,0.69467 0.06856,0.1669 0.187095,0.2323 0.49176,0.27136 h 1.07e-4 c 0.610009,0.0782 1.4436,0.0329 1.684332,-0.0916 0.147211,-0.0761 0.187574,-0.18082 0.334111,-0.86665 l 0.121127,-0.56707 0.213648,-0.10071 c 0.117507,-0.0554 0.321349,-0.17048 0.452969,-0.25576 l 0.239322,-0.15511 0.62246,0.19539 c 0.837201,0.26281 0.838077,0.26254 1.292563,-0.41069 0.266969,-0.39546 0.552793,-1.02036 0.552793,-1.20862 0,-0.17176 -0.04802,-0.22834 -0.75233,-0.87888 2.47e-4,4e-5 0.0011,8.7e-4 0.0014,8.7e-4 0.0311,0 0.01108,-0.0311 -0.05185,-0.0804 -0.05991,-0.047 -0.06126,-0.0456 -0.01428,0.0143 0.0079,0.0101 0.01503,0.0173 0.02263,0.0259 l -0.206565,-0.19067 v -0.52303 -0.52302 l 0.154108,-0.13906 c -3.75e-4,8.6e-4 -0.0031,0.003 -0.0031,0.004 0,0.0311 0.031,0.011 0.08035,-0.0519 0.03414,-0.0435 0.03237,-0.0467 0.01156,-0.0323 l 0.229914,-0.2074 c 0.03512,-0.0317 0.06259,-0.0574 0.09374,-0.086 2.35e-4,0.0306 0.03118,0.0105 0.08035,-0.0521 0.03401,-0.0433 0.0323,-0.0466 0.01179,-0.0324 0.377176,-0.35476 0.403516,-0.45836 0.304617,-0.72179 -0.187389,-0.49913 -0.627995,-1.22958 -0.869694,-1.4418 -0.185107,-0.16253 -0.322797,-0.15446 -1.000507,0.0586 l -0.560706,0.1763 -0.238935,-0.15433 c -0.131414,-0.0849 -0.334916,-0.2009 -0.452249,-0.25781 l -0.213316,-0.10347 -0.12168,-0.57011 c -0.143605,-0.67291 -0.19153,-0.79062 -0.353146,-0.86732 -0.107749,-0.0512 -0.337125,-0.0892 -0.604366,-0.10835 0.0068,-0.003 0.0091,-0.009 0.0034,-0.0139 -0.0063,-0.006 -0.01759,-0.01 -0.03071,-0.0103 z m -3.96639,1.69989 c -0.01312,-5.4e-4 -0.02809,0.002 -0.04173,0.007 -0.03014,0.0121 -0.02115,0.0211 0.02286,0.0229 0.03982,0.002 0.06213,-0.007 0.04958,-0.0198 -0.0063,-0.006 -0.01758,-0.01 -0.03071,-0.0103 z m 3.548337,1.82925 c 7.17e-4,0.005 0.02147,0.009 0.0623,0.01 0.04387,5.3e-4 0.07045,-0.003 0.07421,-0.009 0.07861,0.004 0.157514,0.0142 0.236114,0.0306 0.342654,0.0714 0.542165,0.17496 0.791008,0.4103 0.377014,0.35656 0.521006,0.71858 0.497624,1.25107 -0.01273,0.28988 -0.03444,0.38674 -0.13496,0.60143 -0.07075,0.1511 -0.167973,0.28884 -0.282373,0.41096 -0.0055,0.003 -0.01422,0.008 -0.0389,0.0272 -0.03636,0.0285 -0.06612,0.0582 -0.06612,0.066 0,0.003 5.68e-4,0.005 0.0012,0.008 -0.205069,0.18403 -0.45423,0.32004 -0.723169,0.38203 -0.498427,0.11491 -1.016116,-0.0287 -1.397201,-0.35358 -0.0095,-0.0169 -0.04116,-0.0483 -0.100101,-0.10027 l -0.03763,-0.0331 c -0.110392,-0.11874 -0.205555,-0.25413 -0.278445,-0.40572 -0.233273,-0.48513 -0.185074,-1.13909 0.116204,-1.57698 0.303171,-0.44065 0.779337,-0.7002 1.280223,-0.71819 z m -4.338461,0.58373 c -0.0019,0.002 0.0094,0.0172 0.03292,0.0471 0.04935,0.0629 0.0804,0.0829 0.0804,0.0519 0,-0.008 -0.02976,-0.0376 -0.06612,-0.0661 -0.02995,-0.0235 -0.04525,-0.0349 -0.0472,-0.0329 z m 0.415508,0.37771 c -0.0019,0.002 0.0095,0.0173 0.03298,0.0472 0.04935,0.0629 0.08035,0.0829 0.08035,0.0518 0,-0.008 -0.02976,-0.0376 -0.06612,-0.066 -0.02996,-0.0235 -0.04525,-0.035 -0.0472,-0.033 z m 0.126274,0.31524 c -0.0053,5.4e-4 -0.0089,0.0144 -0.01,0.0405 -0.0017,0.0399 0.0072,0.0621 0.01981,0.0496 0.01256,-0.0125 0.0139,-0.0451 0.003,-0.0725 -0.0049,-0.0123 -0.0092,-0.018 -0.01284,-0.0177 z m 7.710832,0.11776 c -0.0069,-0.003 -0.01168,0.0191 -0.01168,0.0581 0,0.0519 0.0085,0.0732 0.01904,0.0472 0.01048,-0.026 0.01048,-0.0685 0,-0.0944 -0.0026,-0.006 -0.005,-0.0101 -0.0074,-0.0109 z m -7.702809,0.0802 c -0.0057,-0.009 -0.0099,0.0322 -0.01018,0.11011 -3.21e-4,0.10388 0.0068,0.15088 0.01577,0.10442 0.009,-0.0465 0.0092,-0.13143 5.35e-4,-0.18885 -0.0022,-0.0144 -0.0043,-0.0228 -0.0062,-0.0257 z m 7.70137,0.0835 c -0.0049,0.003 -0.0084,0.0254 -0.0089,0.0644 -7.71e-4,0.0623 0.007,0.0924 0.01743,0.0668 0.01035,-0.0256 0.01095,-0.0766 0.0014,-0.11333 -0.0036,-0.0138 -0.007,-0.0195 -0.01,-0.0178 z m -0.0057,0.17309 c -0.004,0.004 -0.0067,0.0172 -0.0076,0.0392 -0.0017,0.0398 0.0072,0.0621 0.01981,0.0496 0.01256,-0.0125 0.0139,-0.0452 0.003,-0.0725 -0.006,-0.0151 -0.01124,-0.0204 -0.01522,-0.0163 z m -7.706128,0.0378 c -0.004,0.004 -0.0067,0.0171 -0.0076,0.0392 -0.0017,0.0398 0.0072,0.0621 0.01981,0.0496 0.01256,-0.0125 0.0139,-0.0451 0.003,-0.0724 -0.006,-0.0151 -0.01125,-0.0204 -0.01522,-0.0164 z m 0.02601,0.36515 v 0.0171 l -0.03343,0.0303 c 6.42e-4,-7.4e-4 0.001,-8.7e-4 0.0017,-0.002 0.02264,-0.0289 0.0327,-0.0426 0.03176,-0.0455 z m -0.187695,0.1494 c -0.0019,-0.002 -0.01724,0.009 -0.0472,0.0329 -0.03636,0.0285 -0.06612,0.0583 -0.06612,0.0661 0,0.0311 0.03105,0.0111 0.0804,-0.0519 0.02349,-0.0299 0.03487,-0.0452 0.03292,-0.0471 z m 8.423875,0.33998 c -0.0019,0.002 0.0095,0.0172 0.03298,0.0471 0.02851,0.0364 0.05822,0.0661 0.06607,0.0661 0.03109,0 0.01108,-0.0311 -0.05185,-0.0804 -0.02996,-0.0235 -0.04525,-0.0349 -0.0472,-0.0329 z m -8.839383,0.0378 c -0.0019,-0.002 -0.01724,0.009 -0.0472,0.033 -0.03636,0.0285 -0.06612,0.0582 -0.06612,0.066 0,0.0311 0.03105,0.0111 0.0804,-0.0518 0.02349,-0.0299 0.03488,-0.0453 0.03292,-0.0472 z m 4.419691,0.53376 c -0.01711,0 -0.03422,0.003 -0.0472,0.008 -0.02597,0.0104 -0.0047,0.019 0.0472,0.019 0.05194,0 0.07317,-0.009 0.0472,-0.019 -0.01299,-0.005 -0.03008,-0.008 -0.0472,-0.008 z m 0.03287,3.55049 c -0.02739,-1e-4 -0.05613,0.002 -0.07963,0.007 -0.04699,0.009 -0.01748,0.0168 0.06563,0.0172 0.08311,4.3e-4 0.121554,-0.007 0.08544,-0.0164 -0.01806,-0.004 -0.04405,-0.007 -0.07144,-0.007 z m -0.187086,2.2e-4 c -0.01312,-5.4e-4 -0.02808,0.002 -0.04173,0.007 -0.03014,0.0121 -0.02121,0.021 0.0228,0.0228 0.03982,0.002 0.06213,-0.007 0.04958,-0.0198 -0.0063,-0.006 -0.01753,-0.01 -0.03066,-0.0103 z m 0.380868,2.1e-4 c -0.01711,0 -0.03422,0.003 -0.0472,0.008 -0.02597,0.0104 -0.0047,0.019 0.0472,0.019 0.05194,0 0.07317,-0.009 0.0472,-0.019 -0.01299,-0.005 -0.03008,-0.008 -0.0472,-0.008 z" /><path
             id="path35"
             style="fill:none;fill-opacity:1;stroke:#000000;stroke-width:0.264583;stroke-dasharray:none;stroke-opacity:0.946294;filter:url(#filter35)"
             d="m -73.085064,183.71783 c -0.01312,-5.3e-4 -0.02808,0.002 -0.04173,0.007 -0.01196,0.005 -0.01604,0.009 -0.01594,0.0125 -0.244452,-0.0135 -0.510929,-0.0123 -0.742702,0.01 -0.473252,0.0449 -0.583729,0.084 -0.687866,0.24292 -0.03139,0.0479 -0.117694,0.35748 -0.191733,0.68797 -0.07404,0.3305 -0.137838,0.60355 -0.141768,0.60675 -0.0039,0.003 -0.109132,0.057 -0.233789,0.11958 -0.124659,0.0625 -0.31757,0.17513 -0.428733,0.25005 -0.111165,0.0749 -0.2247,0.13624 -0.252271,0.13624 -0.02757,0 -0.292439,-0.0765 -0.588595,-0.16998 -0.630667,-0.1991 -0.773506,-0.21004 -0.937757,-0.0719 -0.248267,0.2089 -0.834664,1.20974 -0.924035,1.57715 -0.05022,0.20647 0.03303,0.32927 0.524961,0.77414 l 0.472115,0.42696 -6.42e-4,0.53553 -6.42e-4,0.51748 c -0.0026,-8.7e-4 -0.01685,0.009 -0.04604,0.0322 -0.03636,0.0285 -0.06607,0.0582 -0.06607,0.066 0,0.01 0.0038,0.0127 0.0095,0.0128 l -0.342799,0.31048 c 0.04303,-0.0551 0.04214,-0.0573 -0.0161,-0.0117 -0.03636,0.0285 -0.06612,0.0583 -0.06612,0.0661 0,0.009 0.0033,0.0125 0.0083,0.0131 -0.537303,0.4888 -0.555283,0.54758 -0.389943,0.9605 0.144366,0.36054 0.367081,0.74842 0.636292,1.10819 0.305823,0.40869 0.341205,0.41393 1.119089,0.16623 l 0.616485,-0.19634 0.329351,0.20684 c 0.181164,0.11374 0.385509,0.22527 0.454077,0.2479 l 0.124669,0.0411 0.122843,0.57488 c 0.06756,0.31618 0.144961,0.62876 0.172035,0.69467 0.06856,0.1669 0.187095,0.2323 0.49176,0.27136 h 1.07e-4 c 0.610009,0.0782 1.4436,0.0329 1.684332,-0.0916 0.147211,-0.0761 0.187574,-0.18082 0.334111,-0.86665 l 0.121127,-0.56707 0.213648,-0.10071 c 0.117507,-0.0554 0.321349,-0.17048 0.452969,-0.25576 l 0.239322,-0.15511 0.62246,0.19539 c 0.837201,0.26281 0.838077,0.26254 1.292563,-0.41069 0.266969,-0.39546 0.552793,-1.02036 0.552793,-1.20862 0,-0.17176 -0.04802,-0.22834 -0.75233,-0.87888 2.47e-4,4e-5 0.0011,8.7e-4 0.0014,8.7e-4 0.0311,0 0.01108,-0.0311 -0.05185,-0.0804 -0.05991,-0.047 -0.06126,-0.0456 -0.01428,0.0143 0.0079,0.0101 0.01503,0.0173 0.02263,0.0259 l -0.206565,-0.19067 v -0.52303 -0.52302 l 0.154108,-0.13906 c -3.75e-4,8.6e-4 -0.0031,0.003 -0.0031,0.004 0,0.0311 0.031,0.011 0.08035,-0.0519 0.03414,-0.0435 0.03237,-0.0467 0.01156,-0.0323 l 0.229914,-0.2074 c 0.03512,-0.0317 0.06259,-0.0574 0.09374,-0.086 2.35e-4,0.0306 0.03118,0.0105 0.08035,-0.0521 0.03401,-0.0433 0.0323,-0.0466 0.01179,-0.0324 0.377176,-0.35476 0.403516,-0.45836 0.304617,-0.72179 -0.187389,-0.49913 -0.627995,-1.22958 -0.869694,-1.4418 -0.185107,-0.16253 -0.322797,-0.15446 -1.000507,0.0586 l -0.560706,0.1763 -0.238935,-0.15433 c -0.131414,-0.0849 -0.334916,-0.2009 -0.452249,-0.25781 l -0.213316,-0.10347 -0.12168,-0.57011 c -0.143605,-0.67291 -0.19153,-0.79062 -0.353146,-0.86732 -0.107749,-0.0512 -0.337125,-0.0892 -0.604366,-0.10835 0.0068,-0.003 0.0091,-0.009 0.0034,-0.0139 -0.0063,-0.006 -0.01759,-0.01 -0.03071,-0.0103 z m -3.96639,1.69989 c -0.01312,-5.4e-4 -0.02809,0.002 -0.04173,0.007 -0.03014,0.0121 -0.02115,0.0211 0.02286,0.0229 0.03982,0.002 0.06213,-0.007 0.04958,-0.0198 -0.0063,-0.006 -0.01758,-0.01 -0.03071,-0.0103 z m 3.548337,1.82925 c 7.17e-4,0.005 0.02147,0.009 0.0623,0.01 0.04387,5.3e-4 0.07045,-0.003 0.07421,-0.009 0.07861,0.004 0.157514,0.0142 0.236114,0.0306 0.342654,0.0714 0.542165,0.17496 0.791008,0.4103 0.377014,0.35656 0.521006,0.71858 0.497624,1.25107 -0.01273,0.28988 -0.03444,0.38674 -0.13496,0.60143 -0.07075,0.1511 -0.167973,0.28884 -0.282373,0.41096 -0.0055,0.003 -0.01422,0.008 -0.0389,0.0272 -0.03636,0.0285 -0.06612,0.0582 -0.06612,0.066 0,0.003 5.68e-4,0.005 0.0012,0.008 -0.205069,0.18403 -0.45423,0.32004 -0.723169,0.38203 -0.498427,0.11491 -1.016116,-0.0287 -1.397201,-0.35358 -0.0095,-0.0169 -0.04116,-0.0483 -0.100101,-0.10027 l -0.03763,-0.0331 c -0.110392,-0.11874 -0.205555,-0.25413 -0.278445,-0.40572 -0.233273,-0.48513 -0.185074,-1.13909 0.116204,-1.57698 0.303171,-0.44065 0.779337,-0.7002 1.280223,-0.71819 z m -4.338461,0.58373 c -0.0019,0.002 0.0094,0.0172 0.03292,0.0471 0.04935,0.0629 0.0804,0.0829 0.0804,0.0519 0,-0.008 -0.02976,-0.0376 -0.06612,-0.0661 -0.02995,-0.0235 -0.04525,-0.0349 -0.0472,-0.0329 z m 0.415508,0.37771 c -0.0019,0.002 0.0095,0.0173 0.03298,0.0472 0.04935,0.0629 0.08035,0.0829 0.08035,0.0518 0,-0.008 -0.02976,-0.0376 -0.06612,-0.066 -0.02996,-0.0235 -0.04525,-0.035 -0.0472,-0.033 z m 0.126274,0.31524 c -0.0053,5.4e-4 -0.0089,0.0144 -0.01,0.0405 -0.0017,0.0399 0.0072,0.0621 0.01981,0.0496 0.01256,-0.0125 0.0139,-0.0451 0.003,-0.0725 -0.0049,-0.0123 -0.0092,-0.018 -0.01284,-0.0177 z m 7.710832,0.11776 c -0.0069,-0.003 -0.01168,0.0191 -0.01168,0.0581 0,0.0519 0.0085,0.0732 0.01904,0.0472 0.01048,-0.026 0.01048,-0.0685 0,-0.0944 -0.0026,-0.006 -0.005,-0.0101 -0.0074,-0.0109 z m -7.702809,0.0802 c -0.0057,-0.009 -0.0099,0.0322 -0.01018,0.11011 -3.21e-4,0.10388 0.0068,0.15088 0.01577,0.10442 0.009,-0.0465 0.0092,-0.13143 5.35e-4,-0.18885 -0.0022,-0.0144 -0.0043,-0.0228 -0.0062,-0.0257 z m 7.70137,0.0835 c -0.0049,0.003 -0.0084,0.0254 -0.0089,0.0644 -7.71e-4,0.0623 0.007,0.0924 0.01743,0.0668 0.01035,-0.0256 0.01095,-0.0766 0.0014,-0.11333 -0.0036,-0.0138 -0.007,-0.0195 -0.01,-0.0178 z m -0.0057,0.17309 c -0.004,0.004 -0.0067,0.0172 -0.0076,0.0392 -0.0017,0.0398 0.0072,0.0621 0.01981,0.0496 0.01256,-0.0125 0.0139,-0.0452 0.003,-0.0725 -0.006,-0.0151 -0.01124,-0.0204 -0.01522,-0.0163 z m -7.706128,0.0378 c -0.004,0.004 -0.0067,0.0171 -0.0076,0.0392 -0.0017,0.0398 0.0072,0.0621 0.01981,0.0496 0.01256,-0.0125 0.0139,-0.0451 0.003,-0.0724 -0.006,-0.0151 -0.01125,-0.0204 -0.01522,-0.0164 z m 0.02601,0.36515 v 0.0171 l -0.03343,0.0303 c 6.42e-4,-7.4e-4 0.001,-8.7e-4 0.0017,-0.002 0.02264,-0.0289 0.0327,-0.0426 0.03176,-0.0455 z m -0.187695,0.1494 c -0.0019,-0.002 -0.01724,0.009 -0.0472,0.0329 -0.03636,0.0285 -0.06612,0.0583 -0.06612,0.0661 0,0.0311 0.03105,0.0111 0.0804,-0.0519 0.02349,-0.0299 0.03487,-0.0452 0.03292,-0.0471 z m 8.423875,0.33998 c -0.0019,0.002 0.0095,0.0172 0.03298,0.0471 0.02851,0.0364 0.05822,0.0661 0.06607,0.0661 0.03109,0 0.01108,-0.0311 -0.05185,-0.0804 -0.02996,-0.0235 -0.04525,-0.0349 -0.0472,-0.0329 z m -8.839383,0.0378 c -0.0019,-0.002 -0.01724,0.009 -0.0472,0.033 -0.03636,0.0285 -0.06612,0.0582 -0.06612,0.066 0,0.0311 0.03105,0.0111 0.0804,-0.0518 0.02349,-0.0299 0.03488,-0.0453 0.03292,-0.0472 z m 4.419691,0.53376 c -0.01711,0 -0.03422,0.003 -0.0472,0.008 -0.02597,0.0104 -0.0047,0.019 0.0472,0.019 0.05194,0 0.07317,-0.009 0.0472,-0.019 -0.01299,-0.005 -0.03008,-0.008 -0.0472,-0.008 z m 0.03287,3.55049 c -0.02739,-1e-4 -0.05613,0.002 -0.07963,0.007 -0.04699,0.009 -0.01748,0.0168 0.06563,0.0172 0.08311,4.3e-4 0.121554,-0.007 0.08544,-0.0164 -0.01806,-0.004 -0.04405,-0.007 -0.07144,-0.007 z m -0.187086,2.2e-4 c -0.01312,-5.4e-4 -0.02808,0.002 -0.04173,0.007 -0.03014,0.0121 -0.02121,0.021 0.0228,0.0228 0.03982,0.002 0.06213,-0.007 0.04958,-0.0198 -0.0063,-0.006 -0.01753,-0.01 -0.03066,-0.0103 z m 0.380868,2.1e-4 c -0.01711,0 -0.03422,0.003 -0.0472,0.008 -0.02597,0.0104 -0.0047,0.019 0.0472,0.019 0.05194,0 0.07317,-0.009 0.0472,-0.019 -0.01299,-0.005 -0.03008,-0.008 -0.0472,-0.008 z" /></g><rect
           style="display:none;opacity:1;fill:none;fill-opacity:1;stroke:#000000;stroke-width:0.264583;stroke-linecap:round;stroke-linejoin:round;stroke-dasharray:none;stroke-opacity:1"
           id="rect20"
           width="19.831949"
           height="19.831949"
           x="-86.006676"
           y="-175.89023"
           ry="0"
           inkscape:label="rect304"
           transform="translate(2.6515674,354.84303)" /></g><g
         id="g219"
         inkscape:label="Icons"><g
           id="g306"
           inkscape:label="StarEmpty"
           transform="translate(40.193064)"><path
             sodipodi:type="star"
             style="display:inline;opacity:1;fill:url(#linearGradient307);fill-opacity:1;stroke:#9c844a;stroke-width:0.380644;stroke-dasharray:none;stroke-opacity:1"
             id="path7"
             inkscape:flatsided="false"
             sodipodi:sides="5"
             sodipodi:cx="37.984165"
             sodipodi:cy="12.887484"
             sodipodi:r1="6.1072769"
             sodipodi:r2="3.8087144"
             sodipodi:arg1="-1.5707963"
             sodipodi:arg2="-0.94247777"
             inkscape:rounded="0.1623518"
             inkscape:randomized="0"
             d="m 37.984165,6.7802067 c 0.611105,0 1.744313,2.6667642 2.238706,3.0259623 0.494394,0.359198 3.380818,0.612868 3.56966,1.194062 0.188841,0.581195 -1.997222,2.483016 -2.186063,3.06421 -0.188842,0.581195 0.461858,3.404735 -0.03254,3.763934 -0.494393,0.359198 -2.978663,-1.132177 -3.589767,-1.132177 -0.611104,0 -3.095374,1.491374 -3.589767,1.132176 -0.494394,-0.359198 0.156306,-3.182738 -0.03254,-3.763933 -0.188842,-0.581195 -2.374905,-2.483015 -2.186063,-3.06421 0.188841,-0.581195 3.075265,-0.834864 3.569659,-1.1940621 0.494394,-0.359198 1.627602,-3.0259622 2.238706,-3.0259622 z"
             inkscape:transform-center-y="-0.93665513"
             transform="matrix(1.6265201,0,0,1.606063,-137.87271,-185.78078)"
             inkscape:label="StarEmpty"
             inkscape:transform-center-x="8.3042533e-06" /><rect
             style="display:none;fill:none;fill-opacity:1;stroke:#000000;stroke-width:0.264583;stroke-linecap:round;stroke-linejoin:round;stroke-dasharray:none;stroke-opacity:1"
             id="rect304"
             width="19.831949"
             height="19.831949"
             x="-86.006676"
             y="-175.89023"
             ry="0"
             inkscape:label="rect304" /></g><g
           id="g2"
           inkscape:label="StarFull"
           transform="matrix(2.194877,0,0,2.194898,-119.8337,-202.52064)"
           style="display:inline;opacity:1"><path
             id="path141"
             style="display:inline;opacity:1;fill:none;stroke:#725305;stroke-width:0.574971;stroke-dasharray:none;stroke-opacity:1"
             inkscape:label="Outline"
             inkscape:transform-center-y="-0.41899224"
             transform="matrix(0.72883385,0,0,0.71844492,1.4015538,7.7905875)"
             d="m 37.984165,6.7802067 c 0.611105,0 1.744313,2.6667642 2.238706,3.0259623 0.494394,0.359198 3.380818,0.612868 3.56966,1.194062 0.188841,0.581195 -1.997222,2.483016 -2.186063,3.06421 -0.188842,0.581195 0.461858,3.404735 -0.03254,3.763934 -0.494393,0.359198 -2.978663,-1.132177 -3.589767,-1.132177 -0.611104,0 -3.095374,1.491374 -3.589767,1.132176 C 33.9,17.469176 34.5507,14.645636 34.361854,14.064441 c -0.188842,-0.581195 -2.374905,-2.483015 -2.186063,-3.06421 0.188841,-0.581195 3.075265,-0.834864 3.569659,-1.1940621 0.494394,-0.359198 1.627602,-3.0259622 2.238706,-3.0259622 z" /><path
             sodipodi:type="star"
             style="display:inline;fill:url(#radialGradient12);fill-opacity:1;stroke:none;stroke-width:0.211661;stroke-dasharray:none;stroke-opacity:1"
             id="path9"
             inkscape:flatsided="false"
             sodipodi:sides="5"
             sodipodi:cx="37.984165"
             sodipodi:cy="12.887484"
             sodipodi:r1="6.1072769"
             sodipodi:r2="3.8087144"
             sodipodi:arg1="-1.5707963"
             sodipodi:arg2="-0.94247777"
             inkscape:rounded="0.1623518"
             inkscape:randomized="0"
             d="m 37.984165,6.7802067 c 0.611105,0 1.744313,2.6667642 2.238706,3.0259623 0.494394,0.359198 3.380818,0.612868 3.56966,1.194062 0.188841,0.581195 -1.997222,2.483016 -2.186063,3.06421 -0.188842,0.581195 0.461858,3.404735 -0.03254,3.763934 -0.494393,0.359198 -2.978663,-1.132177 -3.589767,-1.132177 -0.611104,0 -3.095374,1.491374 -3.589767,1.132176 -0.494394,-0.359198 0.156306,-3.182738 -0.03254,-3.763933 -0.188842,-0.581195 -2.374905,-2.483015 -2.186063,-3.06421 0.188841,-0.581195 3.075265,-0.834864 3.569659,-1.1940621 0.494394,-0.359198 1.627602,-3.0259622 2.238706,-3.0259622 z"
             inkscape:transform-center-y="-0.41899224"
             transform="matrix(0.72883384,0,0,0.71844492,1.401554,7.7905879)"
             inkscape:label="Star" /><ellipse
             style="display:inline;fill:url(#radialGradient16);stroke:none;stroke-width:0.22927;stroke-dasharray:none;stroke-opacity:1"
             id="path15-2"
             cx="36.00631"
             cy="10.639908"
             rx="0.71220309"
             ry="0.83558935"
             transform="matrix(0.97300736,0.23077409,-0.70557436,0.70863589,0,0)"
             inkscape:label="ReflectBig" /><ellipse
             style="display:inline;fill:url(#radialGradient17);stroke:none;stroke-width:0.108968;stroke-dasharray:none;stroke-opacity:1"
             id="ellipse16"
             cx="32.548843"
             cy="4.7328191"
             rx="0.31440231"
             ry="0.42758355"
             transform="matrix(0.94383214,0.33042531,-0.48355752,0.87531259,0,0)"
             inkscape:label="ReflectSmall" /><path
             sodipodi:type="star"
             style="display:inline;fill:none;fill-opacity:1;stroke:#000000;stroke-width:0.182819;stroke-dasharray:none;stroke-opacity:1;filter:url(#filter18)"
             id="path18-4"
             inkscape:flatsided="false"
             sodipodi:sides="5"
             sodipodi:cx="37.984165"
             sodipodi:cy="12.887484"
             sodipodi:r1="6.1072769"
             sodipodi:r2="3.8087144"
             sodipodi:arg1="-1.5707963"
             sodipodi:arg2="-0.94247777"
             inkscape:rounded="0.1623518"
             inkscape:randomized="0"
             d="m 37.984165,6.7802067 c 0.611105,0 1.744313,2.6667642 2.238706,3.0259623 0.494394,0.359198 3.380818,0.612868 3.56966,1.194062 0.188841,0.581195 -1.997222,2.483016 -2.186063,3.06421 -0.188842,0.581195 0.461858,3.404735 -0.03254,3.763934 -0.494393,0.359198 -2.978663,-1.132177 -3.589767,-1.132177 -0.611104,0 -3.095374,1.491374 -3.589767,1.132176 -0.494394,-0.359198 0.156306,-3.182738 -0.03254,-3.763933 -0.188842,-0.581195 -2.374905,-2.483015 -2.186063,-3.06421 0.188841,-0.581195 3.075265,-0.834864 3.569659,-1.1940621 0.494394,-0.359198 1.627602,-3.0259622 2.238706,-3.0259622 z"
             inkscape:transform-center-y="-0.41899224"
             transform="matrix(0.72883384,0,0,0.71844492,1.401554,7.7905879)"
             inkscape:label="OutlineShade"
             clip-path="url(#clipPath141)" /><rect
             style="display:none;opacity:1;fill:none;fill-opacity:1;stroke:#000000;stroke-width:0.264583;stroke-linecap:round;stroke-linejoin:round;stroke-dasharray:none;stroke-opacity:1"
             id="rect307"
             width="19.831949"
             height="19.831949"
             x="-86.006676"
             y="-175.89023"
             ry="0"
             inkscape:label="rect304"
             transform="matrix(0.45560639,0,0,0.45560203,63.753108,92.268812)" /></g><g
           id="g71"
           inkscape:label="GemBlue"
           transform="matrix(0.14381144,0,0,0.14381281,-53.50697,-182.49997)"
           style="display:inline;opacity:1"><path
             style="display:inline;opacity:1;fill:none;stroke:#00415f;stroke-width:6.35;stroke-linecap:round;stroke-linejoin:round;stroke-dasharray:none;stroke-opacity:1"
             d="m -206.00574,156.56937 -1.50186,-33.79195 10.88851,-21.40215 36.67053,-31.537862 22.40281,-7.510034 32.79071,8.009945 -4.63075,97.496031 z"
             id="path59"
             inkscape:label="Perimetre" /><g
             id="g66"
             inkscape:label="Faces"
             style="display:inline"><path
               d="m -123.27826,100.87498 13.06845,66.06056 5.45497,-96.598232 z"
               style="display:inline;fill:url(#radialGradient71);stroke:none;stroke-width:1.00012;stroke-linecap:round;stroke-linejoin:round"
               id="path60"
               inkscape:label="FacePointRight" /><path
               d="m -123.27826,100.87498 -47.80897,41.67704 60.87742,24.38352 z"
               style="display:inline;fill:url(#radialGradient72);stroke:none;stroke-width:1.00012;stroke-linecap:round;stroke-linejoin:round"
               id="path61"
               inkscape:label="FacePointMid" /><path
               d="m -110.20981,166.93554 -60.87742,-24.38352 -34.91828,14.01723 z"
               style="display:inline;fill:url(#linearGradient72);stroke:none;stroke-width:1.00012;stroke-linecap:round;stroke-linejoin:round"
               id="path62"
               inkscape:label="FacePointLeft" /><path
               d="m -137.54561,62.327461 -11.38948,22.277709 25.65683,16.26981 18.52342,-30.537672 z"
               style="display:inline;fill:url(#radialGradient73);stroke:none;stroke-width:1.00012;stroke-linecap:round;stroke-linejoin:round"
               id="path63"
               inkscape:label="FaceRimRight" /><path
               d="m -148.93509,84.60517 -34.66765,30.53767 12.51551,27.40918 47.80897,-41.67704 z"
               style="display:inline;fill:url(#radialGradient74);stroke:none;stroke-width:1.00012;stroke-linecap:round;stroke-linejoin:round"
               id="path64"
               inkscape:label="FaceRimMid" /><path
               d="m -206.00551,156.56925 34.91828,-14.01723 -12.51551,-27.40918 -23.905,7.63468 z"
               style="display:inline;fill:url(#radialGradient75);stroke:none;stroke-width:1.00012;stroke-linecap:round;stroke-linejoin:round;stroke-opacity:1"
               id="path65"
               inkscape:label="FaceRimLeft" /><path
               d="m -137.54561,62.327461 -22.40276,7.510136 -36.67063,31.537613 -10.88874,21.40231 23.905,-7.63468 34.66765,-30.53767 z"
               style="display:inline;fill:url(#radialGradient76);stroke:none;stroke-width:1.00012;stroke-linecap:round;stroke-linejoin:round"
               id="path66"
               inkscape:label="FaceTop" /></g><g
             id="g70"
             inkscape:label="Shine"><path
               style="display:inline;opacity:1;fill:#8ad0f1;fill-opacity:1;stroke:none;stroke-width:1.00012;stroke-linecap:round;stroke-linejoin:round;stroke-opacity:1"
               d="m -206.00551,156.56925 v -2.93635 c 33.79258,-13.54618 31.72728,-9.79992 18.59663,-37.27447 l 3.80614,-1.21559 12.51551,27.40918 -34.91828,14.01723"
               id="path67"
               sodipodi:nodetypes="cccccc"
               inkscape:label="ShineFRL" /><path
               style="display:inline;opacity:1;fill:url(#radialGradient116);stroke:none;stroke-width:1.00012;stroke-linecap:round;stroke-linejoin:round;stroke-opacity:1"
               d="m -171.08723,142.55202 -12.51551,-27.40918 34.66765,-30.537669 25.65683,16.269809 c -16.81064,-10.660161 -63.28664,9.76232 -47.80897,41.67704"
               id="path68"
               sodipodi:nodetypes="ccccc"
               inkscape:label="ShineFRM" /><path
               style="display:inline;fill:url(#radialGradient78);stroke:none;stroke-width:1.00012;stroke-linecap:round;stroke-linejoin:round;stroke-opacity:1"
               d="m -148.93509,84.605171 2.37815,-5.230172 c 17.42331,17.786903 26.35043,16.435894 41.8019,-9.03768 l -18.52322,30.537661 z"
               id="path69"
               sodipodi:nodetypes="ccccc"
               inkscape:label="ShineFRR" /><path
               style="fill:#adeef4;fill-opacity:1;stroke:none;stroke-width:1.00012;stroke-linecap:round;stroke-linejoin:round;stroke-opacity:1"
               d="m -207.50774,122.77752 10.88865,-21.40225 36.67072,-31.537672 22.40262,-7.510224 -11.38934,22.277797 -23.23652,20.468329 c 24.77791,-19.490887 -4.32512,-16.565936 -23.57139,-3.07187 l -11.7646,20.77579"
               id="path70"
               sodipodi:nodetypes="cccccccc"
               inkscape:label="ShineFT" /></g><path
             id="path71"
             style="display:inline;opacity:1;fill:none;fill-opacity:0;stroke:url(#radialGradient79);stroke-width:1.83978;stroke-linecap:round;stroke-linejoin:round;stroke-dasharray:none;stroke-opacity:1"
             inkscape:label="EdgeShine"
             d="m -206.00574,156.56937 -1.50186,-33.79195 10.88851,-21.40215 36.67053,-31.537862 22.40281,-7.510034 32.79071,8.009945 -4.63075,97.496031 z m 68.46013,-94.241909 -22.40276,7.510136 -36.67063,31.537613 -10.88874,21.40231 23.905,-7.63468 34.66765,-30.53767 z m -68.4599,94.241789 34.91828,-14.01723 -12.51551,-27.40918 -23.905,7.63468 z m 57.07042,-71.96408 -34.66765,30.53767 12.51551,27.40918 47.80897,-41.67704 z m 11.38948,-22.277709 -11.38948,22.277709 25.65683,16.26981 18.52342,-30.537672 z m 27.3358,104.608079 -60.87742,-24.38352 -34.91828,14.01723 z m -13.06845,-66.06056 -47.80897,41.67704 60.87742,24.38352 z m 0,0 13.06845,66.06056 5.45497,-96.598232 z" /><rect
             style="display:none;opacity:1;fill:none;fill-opacity:1;stroke:#000000;stroke-width:0.264583;stroke-linecap:round;stroke-linejoin:round;stroke-dasharray:none;stroke-opacity:1"
             id="rect306"
             width="19.831949"
             height="19.831949"
             x="-86.006676"
             y="-175.89023"
             ry="0"
             inkscape:label="rect304"
             transform="matrix(6.9535497,0,0,6.9534835,372.06338,1269.0105)" /></g></g><g
         id="g299"
         inkscape:label="ScoreBar"
         transform="translate(-20.096535,20.096532)"><g
           id="g143"
           inkscape:label="BarBack"
           transform="translate(-64.13438,-137.22936)"
           style="display:inline;opacity:1"><path
             id="path143"
             style="display:inline;fill:#2f2f2f;fill-opacity:1;stroke-width:0.3175"
             inkscape:label="FillBar"
             d="M 6.0854216,6.1901264 H 74.877089 c 2.931583,0 5.291666,2.3600833 5.291666,5.2916666 0,2.931583 -2.360083,5.291666 -5.291666,5.291666 H 6.0854216 c -2.9315832,0 -5.29166649,-2.360083 -5.29166649,-5.291666 0,-2.9315833 2.36008329,-5.2916666 5.29166649,-5.2916666 z" /><rect
             style="display:none;opacity:1;fill:none;fill-opacity:1;stroke:#000000;stroke-width:0.264583;stroke-linecap:round;stroke-linejoin:round;stroke-dasharray:none;stroke-opacity:1"
             id="rect300"
             width="84.514023"
             height="19.82987"
             x="-65.910141"
             y="-175.89023"
             ry="0"
             transform="translate(64.13438,177.41826)" /></g><g
           id="g23"
           inkscape:label="FillBar"
           transform="translate(-64.13438,-157.32381)"><path
             id="rect3"
             style="display:inline;fill:#0c880c;stroke-width:0.3175"
             inkscape:label="FillBar"
             d="M 6.0854216,6.1901264 H 74.877089 c 2.931583,0 5.291666,2.3600833 5.291666,5.2916666 0,2.931583 -2.360083,5.291666 -5.291666,5.291666 H 6.0854216 c -2.9315832,0 -5.29166649,-2.360083 -5.29166649,-5.291666 0,-2.9315833 2.36008329,-5.2916666 5.29166649,-5.2916666 z" /><rect
             style="display:none;opacity:1;fill:none;fill-opacity:1;stroke:#000000;stroke-width:0.264583;stroke-linecap:round;stroke-linejoin:round;stroke-dasharray:none;stroke-opacity:1"
             id="rect299"
             width="84.514023"
             height="19.82987"
             x="-65.910141"
             y="-175.89023"
             ry="0"
             transform="translate(64.13438,177.41826)" /></g><g
           id="g22"
           inkscape:label="TopLayer"
           transform="translate(-64.13438,-177.57813)"><path
             id="rect404-8"
             style="fill:url(#linearGradient2);stroke:#ffffff;stroke-width:0.3175"
             inkscape:label="GlassLid"
             d="M 6.0854216,6.1901264 H 74.877089 c 2.931583,0 5.291666,2.3600833 5.291666,5.2916666 0,2.931583 -2.360083,5.291666 -5.291666,5.291666 H 6.0854216 c -2.9315832,0 -5.29166649,-2.360083 -5.29166649,-5.291666 0,-2.9315833 2.36008329,-5.2916666 5.29166649,-5.2916666 z" /><path
             id="rect405-5"
             style="fill:none;stroke:#ffffff;stroke-width:0.516191;stroke-dasharray:none;stroke-opacity:0.805585;filter:url(#filter1)"
             inkscape:label="GlassRimReflect"
             transform="matrix(1.0120651,0,0,1.0383768,-14.901884,-5.6856391)"
             d="m 20.548776,12.35742 h 68.348241 c 2.398541,0 4.329496,1.930955 4.329496,4.329496 0,2.398541 -1.930955,4.329496 -4.329496,4.329496 H 20.548776 c -2.398541,0 -4.329496,-1.930955 -4.329496,-4.329496 0,-2.398541 1.930955,-4.329496 4.329496,-4.329496 z" /><g
             id="g7"
             inkscape:label="SpotReflect"
             transform="translate(-14.399911,-5.2051231)"><circle
               style="fill:url(#radialGradient5);stroke:none;stroke-width:0.184531;stroke-dasharray:none;stroke-opacity:0.706294"
               id="path3"
               cx="18.380018"
               cy="14.406208"
               r="1.5374542" /><circle
               style="fill:url(#radialGradient6);stroke:none;stroke-width:0.10312;stroke-dasharray:none;stroke-opacity:0.706294"
               id="circle5"
               cx="20.335417"
               cy="12.991167"
               r="0.85916561" /></g><rect
             style="display:none;opacity:1;fill:none;fill-opacity:1;stroke:#000000;stroke-width:0.264583;stroke-linecap:round;stroke-linejoin:round;stroke-dasharray:none;stroke-opacity:1"
             id="rect297"
             width="84.514023"
             height="19.82987"
             x="-65.910141"
             y="-175.89023"
             ry="0"
             transform="translate(64.13438,177.57813)" /></g></g><g
         id="g298"
         inkscape:label="TextBox"
         transform="translate(-64.682078,-20.094454)"><rect
           style="display:inline;opacity:1;fill:#000000;fill-opacity:0.684803;stroke:none;stroke-width:0.915727;stroke-linecap:round;stroke-linejoin:round;stroke-dasharray:none;stroke-opacity:1"
           id="rect139"
           width="42.333332"
           height="9.5249996"
           x="19.000757"
           y="-170.73779"
           ry="4.7624998"
           inkscape:export-filename="..\..\..\Game Dev\Godot1\Art\UI\rect139.png"
           inkscape:export-xdpi="96"
           inkscape:export-ydpi="96"
           inkscape:label="TextBox" /><rect
           style="display:none;opacity:1;fill:none;fill-opacity:1;stroke:#000000;stroke-width:0.251655;stroke-linecap:round;stroke-linejoin:miter;stroke-dasharray:none;stroke-opacity:1"
           id="rect298"
           width="42.610844"
           height="19.842798"
           x="18.862001"
           y="-175.8967"
           ry="0" /></g><g
         id="g300"
         inkscape:label="Buttons"
         style="display:inline;opacity:1"
         transform="translate(0,-20.096533)"><g
           id="g304"
           inkscape:label="ButtonRed"
           style="display:inline;opacity:1"
           transform="translate(20.096532)"><g
             id="g222"
             inkscape:label="UI Button Red"
             transform="matrix(0.25053415,0,0,0.25788535,-268.71189,-267.92568)"
             style="display:inline;opacity:1;filter:url(#filter45-1)"><rect
               style="mix-blend-mode:normal;fill:#0b0c22;fill-opacity:1;stroke:none;stroke-width:1.06705;stroke-dasharray:none;stroke-opacity:1;filter:url(#filter406-9)"
               id="rect219"
               width="48.945568"
               height="47.559406"
               x="744.32141"
               y="371.55649"
               ry="17.772339"
               rx="17.027704"
               inkscape:label="BackColor"
               transform="matrix(0.96492841,0,0,0.96396494,27.010699,14.245968)" /><rect
               style="display:inline;fill:#0071fb;fill-opacity:1;stroke:none;stroke-width:0.264583;stroke-dasharray:none;stroke-opacity:1"
               id="rect220"
               width="46.457428"
               height="44.018589"
               x="745.66119"
               y="372.70486"
               ry="16.449181"
               rx="16.162104"
               inkscape:label="MainColor" /><rect
               style="display:inline;fill:none;fill-opacity:1;stroke:#95e3ff;stroke-width:2.11667;stroke-dasharray:none;stroke-opacity:1;filter:url(#filter407-7)"
               id="rect221"
               width="46.457428"
               height="44.018589"
               x="745.66119"
               y="372.70486"
               ry="16.449181"
               rx="16.162104"
               inkscape:label="Edge Color"
               clip-path="url(#clipPath408-1)" /><rect
               style="display:inline;fill:url(#linearGradient1-2);fill-opacity:1;stroke:none;stroke-width:0.58312;stroke-dasharray:none;stroke-opacity:1"
               id="rect222"
               width="51.194229"
               height="48.506725"
               x="743.29279"
               y="370.46078"
               ry="18.126339"
               rx="17.809992"
               inkscape:label="Gradient"
               clip-path="url(#clipPath411-0)" /><ellipse
               style="fill:url(#radialGradient222);stroke:none;stroke-width:0.416134;stroke-dasharray:none;stroke-opacity:1"
               id="ellipse222"
               cx="768.88989"
               cy="367.12534"
               rx="16.781805"
               ry="13.229205"
               clip-path="url(#clipPath413-7)"
               inkscape:label="TopGlow" /></g><rect
             style="display:none;fill:none;fill-opacity:1;stroke:#000000;stroke-width:0.264583;stroke-linecap:round;stroke-linejoin:round;stroke-dasharray:none;stroke-opacity:1"
             id="rect143"
             width="19.831949"
             height="19.831949"
             x="-86.006676"
             y="-175.89023"
             ry="0" /></g><g
           id="g305"
           inkscape:label="ButtonGreen"
           style="display:inline;opacity:1"><g
             id="g413"
             inkscape:label="UI Button Green"
             transform="matrix(0.25053415,0,0,0.25788535,-268.71189,-267.92568)"
             style="display:inline;opacity:1;filter:url(#filter45)"><rect
               style="mix-blend-mode:normal;fill:#0b0c22;fill-opacity:1;stroke:none;stroke-width:1.06705;stroke-dasharray:none;stroke-opacity:1;filter:url(#filter406)"
               id="rect406"
               width="48.945568"
               height="47.559406"
               x="744.32141"
               y="371.55649"
               ry="17.772339"
               rx="17.027704"
               inkscape:label="BackColor"
               transform="matrix(0.96492841,0,0,0.96396494,27.010699,14.245968)" /><rect
               style="display:inline;fill:#42a5ec;fill-opacity:1;stroke:none;stroke-width:0.264583;stroke-dasharray:none;stroke-opacity:1;filter:url(#filter407-7)"
               id="rect404"
               width="46.457428"
               height="44.018589"
               x="745.66119"
               y="372.70486"
               ry="16.449181"
               rx="16.162104"
               inkscape:label="MainColor" /><rect
               style="display:inline;fill:none;fill-opacity:1;stroke:#95e3ff;stroke-width:2.11667;stroke-dasharray:none;stroke-opacity:1;filter:url(#filter407)"
               id="rect405"
               width="46.457428"
               height="44.018589"
               x="745.66119"
               y="372.70486"
               ry="16.449181"
               rx="16.162104"
               inkscape:label="Edge Color"
               clip-path="url(#clipPath408)" /><rect
               style="display:inline;fill:url(#linearGradient10);fill-opacity:1;stroke:none;stroke-width:0.58312;stroke-dasharray:none;stroke-opacity:1"
               id="rect409"
               width="51.194229"
               height="48.506725"
               x="743.29279"
               y="370.46078"
               ry="18.126339"
               rx="17.809992"
               inkscape:label="Gradient"
               clip-path="url(#clipPath411)" /><ellipse
               style="fill:url(#radialGradient10);stroke:none;stroke-width:0.416134;stroke-dasharray:none;stroke-opacity:1"
               id="path412"
               cx="768.88989"
               cy="367.12534"
               rx="16.781805"
               ry="13.229205"
               clip-path="url(#clipPath413)"
               inkscape:label="TopGlow" /></g><rect
             style="display:none;fill:none;fill-opacity:1;stroke:#000000;stroke-width:0.264583;stroke-linecap:round;stroke-linejoin:round;stroke-dasharray:none;stroke-opacity:1"
             id="rect301"
             width="19.831949"
             height="19.831949"
             x="-86.006676"
             y="-175.89023"
             ry="0" /></g></g></g><g
       id="g311"
       inkscape:label="Measurements"
       transform="translate(85.813199,196.60097)"
       style="display:none"><text
         xml:space="preserve"
         style="font-style:normal;font-variant:normal;font-weight:bold;font-stretch:normal;font-size:8.46667px;font-family:Calibri;-inkscape-font-specification:'Calibri, Bold';font-variant-ligatures:normal;font-variant-caps:normal;font-variant-numeric:normal;font-variant-east-asian:normal;text-align:center;text-anchor:middle;fill:#000000;fill-opacity:0.684803;stroke:#000000;stroke-width:0.264583;stroke-linecap:round;stroke-linejoin:miter;stroke-dasharray:none;stroke-opacity:1"
         x="-76.283936"
         y="-198.83247"
         id="text308"><tspan
           sodipodi:role="line"
           id="tspan308"
           style="font-style:normal;font-variant:normal;font-weight:bold;font-stretch:normal;font-size:8.46667px;font-family:Calibri;-inkscape-font-specification:'Calibri, Bold';font-variant-ligatures:normal;font-variant-caps:normal;font-variant-numeric:normal;font-variant-east-asian:normal;stroke-width:0.264583"
           x="-76.283936"
           y="-198.83247">76</tspan></text><text
         xml:space="preserve"
         style="font-style:normal;font-variant:normal;font-weight:bold;font-stretch:normal;font-size:8.46667px;font-family:Calibri;-inkscape-font-specification:'Calibri, Bold';font-variant-ligatures:normal;font-variant-caps:normal;font-variant-numeric:normal;font-variant-east-asian:normal;text-align:center;text-anchor:middle;fill:#000000;fill-opacity:0.684803;stroke:#000000;stroke-width:0.264583;stroke-linecap:round;stroke-linejoin:miter;stroke-dasharray:none;stroke-opacity:1"
         x="-91.41713"
         y="-183.39809"
         id="text309"><tspan
           sodipodi:role="line"
           id="tspan309"
           style="font-style:normal;font-variant:normal;font-weight:bold;font-stretch:normal;font-size:8.46667px;font-family:Calibri;-inkscape-font-specification:'Calibri, Bold';font-variant-ligatures:normal;font-variant-caps:normal;font-variant-numeric:normal;font-variant-east-asian:normal;stroke-width:0.264583"
           x="-91.41713"
           y="-183.39809">76</tspan></text><text
         xml:space="preserve"
         style="font-style:normal;font-variant:normal;font-weight:bold;font-stretch:normal;font-size:8.46667px;font-family:Calibri;-inkscape-font-specification:'Calibri, Bold';font-variant-ligatures:normal;font-variant-caps:normal;font-variant-numeric:normal;font-variant-east-asian:normal;text-align:center;text-anchor:middle;fill:#000000;fill-opacity:0.684803;stroke:#000000;stroke-width:0.264583;stroke-linecap:round;stroke-linejoin:miter;stroke-dasharray:none;stroke-opacity:1"
         x="-25.888645"
         y="-198.83247"
         id="text310"><tspan
           sodipodi:role="line"
           id="tspan310"
           x="-25.888645"
           y="-198.83247">162</tspan></text><text
         xml:space="preserve"
         style="font-style:normal;font-variant:normal;font-weight:bold;font-stretch:normal;font-size:8.46667px;font-family:Calibri;-inkscape-font-specification:'Calibri, Bold';font-variant-ligatures:normal;font-variant-caps:normal;font-variant-numeric:normal;font-variant-east-asian:normal;text-align:center;text-anchor:middle;fill:#000000;fill-opacity:0.684803;stroke:#000000;stroke-width:0.264583;stroke-linecap:round;stroke-linejoin:miter;stroke-dasharray:none;stroke-opacity:1"
         x="-43.788933"
         y="-87.501724"
         id="text311"><tspan
           sodipodi:role="line"
           id="tspan311"
           x="-43.788933"
           y="-87.501724">320</tspan></text></g></g></svg>
