<?xml version="1.0" encoding="UTF-8" standalone="no"?>
<!-- Created with Inkscape (http://www.inkscape.org/) -->

<svg
   width="112.0805mm"
   height="112.0805mm"
   viewBox="0 0 112.0805 112.0805"
   version="1.1"
   id="svg1"
   sodipodi:docname="radial_container_icon.svg"
   inkscape:version="1.3.2 (091e20e, 2023-11-25, custom)"
   xmlns:inkscape="http://www.inkscape.org/namespaces/inkscape"
   xmlns:sodipodi="http://sodipodi.sourceforge.net/DTD/sodipodi-0.dtd"
   xmlns="http://www.w3.org/2000/svg"
   xmlns:svg="http://www.w3.org/2000/svg">
  <sodipodi:namedview
     id="namedview1"
     pagecolor="#ffffff"
     bordercolor="#000000"
     borderopacity="0.25"
     inkscape:showpageshadow="2"
     inkscape:pageopacity="0.0"
     inkscape:pagecheckerboard="0"
     inkscape:deskcolor="#d1d1d1"
     inkscape:document-units="mm"
     inkscape:zoom="1.9380974"
     inkscape:cx="211.54768"
     inkscape:cy="211.80567"
     inkscape:window-width="1920"
     inkscape:window-height="1017"
     inkscape:window-x="-8"
     inkscape:window-y="-8"
     inkscape:window-maximized="1"
     inkscape:current-layer="layer1" />
  <defs
     id="defs1" />
  <g
     inkscape:label="Calque 1"
     inkscape:groupmode="layer"
     id="layer1"
     transform="translate(-18.243329,-38.139792)">
    <path
       id="path8"
       style="fill:#84db8d;fill-opacity:1;stroke:#84db8d;stroke-width:2.64583333;stroke-linejoin:round;stroke-dasharray:none;stroke-opacity:1;stroke-linecap:round"
       d="m 78.251823,144.87109 c 9.475267,-0.32087 18.820339,-3.97367 25.988217,-10.11729 0.45695,-0.39072 0.90987,-0.78691 1.34772,-1.19911 -9.111978,-9.11133 -18.223958,-18.22266 -27.335937,-27.33399 0,12.88347 0,25.76693 0,38.65039 z" />
    <path
       id="path7"
       style="fill:#84db8d;fill-opacity:1;stroke:#84db8d;stroke-width:2.64583333;stroke-linejoin:round;stroke-dasharray:none;stroke-opacity:1;stroke-linecap:round"
       d="m 40.865364,133.55273 c 5.458722,5.07299 12.207728,8.63907 19.445914,10.2835 2.61475,0.5983 5.24729,0.94779 7.886117,1.04072 0,-12.88541 10e-7,-25.77083 0,-38.65625 -9.110677,9.11068 -18.221354,18.22136 -27.332031,27.33203 z" />
    <path
       id="path6"
       style="fill:#84db8d;fill-opacity:1;stroke:#84db8d;stroke-width:2.64583333;stroke-linejoin:round;stroke-dasharray:none;stroke-opacity:1;stroke-linecap:round"
       d="m 112.61133,126.02539 c 6.17416,-6.61832 10.10099,-15.23736 11.09914,-24.20718 0.13533,-1.03295 0.15614,-2.175453 0.24656,-3.140476 -12.89713,0 -25.79427,0 -38.691405,0 9.115234,9.115886 18.230465,18.231776 27.345705,27.347656 z" />
    <path
       id="path5"
       style="fill:#84db8d;fill-opacity:1;stroke:#84db8d;stroke-width:2.64583333;stroke-linejoin:round;stroke-dasharray:none;stroke-opacity:1;stroke-linecap:round"
       d="m 22.585938,100.11719 c 0.696775,9.468 4.612763,18.67647 11.054977,25.66255 0.40686,0.52981 0.85048,-0.62894 1.273223,-0.82872 8.757136,-8.75776 17.514273,-17.51552 26.271409,-26.273286 -12.883464,0 -25.766927,0 -38.650391,0 0.01693,0.479818 0.03385,0.959636 0.05078,1.439456 z" />
    <path
       id="path4"
       style="fill:#84db8d;fill-opacity:1;stroke:#84db8d;stroke-width:2.64583333;stroke-linejoin:round;stroke-dasharray:none;stroke-opacity:1;stroke-linecap:round"
       d="m 85.265625,88.623047 c 12.891276,0 25.782555,0 38.673825,0 -0.33425,-9.612294 -4.04858,-19.042215 -10.40603,-26.32551 -0.3706,-0.199881 -0.73403,-1.301117 -1.13422,-0.808061 -9.04453,9.044523 -18.089051,18.089047 -27.133575,27.133571 z" />
    <path
       id="path3"
       style="fill:#84db8d;fill-opacity:1;stroke:#84db8d;stroke-width:2.64583333;stroke-linejoin:round;stroke-dasharray:none;stroke-opacity:1;stroke-linecap:round"
       d="m 32.896484,62.320312 c -3.161792,3.700702 -5.816068,8.03189 -7.536821,12.55118 -1.634712,4.265247 -2.605326,8.788287 -2.8072,13.270065 -0.250579,0.843458 0.888354,0.351872 1.38074,0.48149 12.417448,0 24.834896,0 37.252344,0 -9.110026,-9.110026 -18.220052,-18.220052 -27.330078,-27.330078 -0.319662,0.342448 -0.639323,0.684896 -0.958985,1.027343 z" />
    <path
       id="path2"
       style="fill:#84db8d;fill-opacity:1;stroke:#84db8d;stroke-width:2.64583333;stroke-linejoin:round;stroke-dasharray:none;stroke-opacity:1;stroke-linecap:round"
       d="M 78.78099,81.611198 C 87.892969,72.49987 97.004949,63.388542 106.11693,54.277214 98.745486,47.403545 88.856853,43.298112 78.78099,42.958855 c 0,12.884114 0,25.768229 0,38.652343 z" />
    <path
       id="path1"
       style="fill:#84db8d;fill-opacity:1;stroke:#84db8d;stroke-width:2.64583333;stroke-linejoin:round;stroke-dasharray:none;stroke-opacity:1;stroke-linecap:round"
       d="m 67.287109,42.482422 c -7.843137,0.607152 -15.455142,3.315568 -21.818316,7.930161 -1.419584,1.022409 -2.778597,2.120288 -4.076215,3.335464 9.111328,9.111328 18.222656,18.222656 27.333984,27.333984 0,-12.883463 10e-7,-25.766927 0,-38.65039 -0.479817,0.01693 -0.959635,0.03385 -1.439453,0.05078 z" />
  </g>
</svg>
