<?xml version="1.0" encoding="UTF-8" standalone="no"?>
<!-- Created with Inkscape (http://www.inkscape.org/) -->

<svg
   width="2048"
   height="1024"
   viewBox="0 0 541.86664 270.93334"
   version="1.1"
   id="svg1"
   inkscape:version="1.3.2 (091e20e, 2023-11-25, custom)"
   sodipodi:docname="[Temp]PaintBubbles.svg"
   inkscape:export-filename="[Temp]SpecialBubbles.svg"
   inkscape:export-xdpi="96"
   inkscape:export-ydpi="96"
   xml:space="preserve"
   xmlns:inkscape="http://www.inkscape.org/namespaces/inkscape"
   xmlns:sodipodi="http://sodipodi.sourceforge.net/DTD/sodipodi-0.dtd"
   xmlns:xlink="http://www.w3.org/1999/xlink"
   xmlns="http://www.w3.org/2000/svg"
   xmlns:svg="http://www.w3.org/2000/svg"><sodipodi:namedview
     id="namedview1"
     pagecolor="#ffffff"
     bordercolor="#000000"
     borderopacity="0.25"
     inkscape:showpageshadow="2"
     inkscape:pageopacity="0.0"
     inkscape:pagecheckerboard="0"
     inkscape:deskcolor="#d1d1d1"
     inkscape:document-units="px"
     inkscape:zoom="0.25858552"
     inkscape:cx="373.18408"
     inkscape:cy="156.6213"
     inkscape:window-width="1920"
     inkscape:window-height="1017"
     inkscape:window-x="-8"
     inkscape:window-y="-8"
     inkscape:window-maximized="1"
     inkscape:current-layer="layer3"
     showgrid="true"><inkscape:grid
       id="grid1"
       units="px"
       originx="0"
       originy="0"
       spacingx="33.866666"
       spacingy="33.866666"
       empcolor="#0099e5"
       empopacity="0.30196078"
       color="#0099e5"
       opacity="0.14901961"
       empspacing="4"
       dotted="false"
       gridanglex="30"
       gridanglez="30"
       visible="true" /></sodipodi:namedview><defs
     id="defs1"><linearGradient
       id="linearGradient33"
       inkscape:collect="always"><stop
         style="stop-color:#f61800;stop-opacity:1;"
         offset="0"
         id="stop33" /><stop
         style="stop-color:#ff9500;stop-opacity:1;"
         offset="0.14540613"
         id="stop35" /><stop
         style="stop-color:#ffe400;stop-opacity:1;"
         offset="0.33608523"
         id="stop36" /><stop
         style="stop-color:#65dc2e;stop-opacity:1;"
         offset="0.44687086"
         id="stop37" /><stop
         style="stop-color:#00ffe9;stop-opacity:1;"
         offset="0.54434091"
         id="stop38" /><stop
         style="stop-color:#002dff;stop-opacity:1;"
         offset="0.72507489"
         id="stop39" /><stop
         style="stop-color:#8e0ab6;stop-opacity:1;"
         offset="0.82192492"
         id="stop40" /></linearGradient><linearGradient
       id="linearGradient2"
       inkscape:collect="always"><stop
         style="stop-color:#ffffff;stop-opacity:1;"
         offset="0.93209052"
         id="stop2" /><stop
         style="stop-color:#000000;stop-opacity:1;"
         offset="0.96005327"
         id="stop3" /></linearGradient><radialGradient
       inkscape:collect="always"
       xlink:href="#linearGradient2"
       id="radialGradient5"
       gradientUnits="userSpaceOnUse"
       gradientTransform="matrix(1.5512501,0,0,1.5512501,55.200648,-61.36586)"
       cx="182.73392"
       cy="83.91864"
       fx="182.73392"
       fy="83.91864"
       r="43.866299" /><radialGradient
       inkscape:collect="always"
       xlink:href="#linearGradient2"
       id="radialGradient19"
       gradientUnits="userSpaceOnUse"
       gradientTransform="matrix(1.5512501,0,0,1.5512501,55.200648,-61.36586)"
       cx="182.73392"
       cy="83.91864"
       fx="182.73392"
       fy="83.91864"
       r="43.866299" /><radialGradient
       inkscape:collect="always"
       xlink:href="#linearGradient2"
       id="radialGradient20"
       gradientUnits="userSpaceOnUse"
       gradientTransform="matrix(1.5512501,0,0,1.5512501,55.200648,-61.36586)"
       cx="182.73392"
       cy="83.91864"
       fx="182.73392"
       fy="83.91864"
       r="43.866299" /><radialGradient
       inkscape:collect="always"
       xlink:href="#linearGradient2"
       id="radialGradient21"
       gradientUnits="userSpaceOnUse"
       gradientTransform="matrix(1.5512501,0,0,1.5512501,55.200648,-61.36586)"
       cx="182.73392"
       cy="83.91864"
       fx="182.73392"
       fy="83.91864"
       r="43.866299" /><radialGradient
       inkscape:collect="always"
       xlink:href="#linearGradient2"
       id="radialGradient30"
       gradientUnits="userSpaceOnUse"
       gradientTransform="matrix(1.5512501,0,0,1.5512501,55.200648,-61.36586)"
       cx="182.73392"
       cy="83.91864"
       fx="182.73392"
       fy="83.91864"
       r="43.866299" /><radialGradient
       inkscape:collect="always"
       xlink:href="#linearGradient2"
       id="radialGradient31"
       gradientUnits="userSpaceOnUse"
       gradientTransform="matrix(1.5512501,0,0,1.5512501,55.200648,-61.36586)"
       cx="182.73392"
       cy="83.91864"
       fx="182.73392"
       fy="83.91864"
       r="43.866299" /><radialGradient
       inkscape:collect="always"
       xlink:href="#linearGradient2"
       id="radialGradient32"
       gradientUnits="userSpaceOnUse"
       gradientTransform="matrix(1.5512501,0,0,1.5512501,55.200648,-61.36586)"
       cx="182.73392"
       cy="83.91864"
       fx="182.73392"
       fy="83.91864"
       r="43.866299" /><radialGradient
       inkscape:collect="always"
       xlink:href="#linearGradient2"
       id="radialGradient33"
       gradientUnits="userSpaceOnUse"
       gradientTransform="matrix(1.5512501,0,0,1.5512501,55.200648,-61.36586)"
       cx="182.73392"
       cy="83.91864"
       fx="182.73392"
       fy="83.91864"
       r="43.866299" /><linearGradient
       inkscape:collect="always"
       xlink:href="#linearGradient33"
       id="linearGradient34"
       x1="289.56949"
       y1="68.465752"
       x2="382.66617"
       y2="97.991371"
       gradientUnits="userSpaceOnUse" /></defs><g
     inkscape:groupmode="layer"
     id="layer3"
     inkscape:label="Calque 3"
     style="display:inline"><g
       id="g5"
       inkscape:label="Purple"
       transform="translate(135.46666,135.29598)"><circle
         style="fill:url(#radialGradient30);fill-opacity:1;stroke:#000000;stroke-width:0.264583;stroke-dasharray:none;stroke-opacity:1"
         id="circle2"
         cx="338.66666"
         cy="68.812943"
         r="67.386139"
         inkscape:label="Back" /><path
         id="path2"
         style="fill:#8e0ab6;fill-opacity:1;stroke:#000000;stroke-width:1.92671;stroke-linecap:round;stroke-linejoin:round"
         d="m 350.19946,93.089272 c -3.12371,1.504881 -2.67849,-3.602922 -7.65499,-3.24606 -9.44095,4.254033 8.02158,21.420288 -6.26609,25.666398 -13.9796,-1.76634 -1.81881,-20.244763 -3.72379,-26.597115 -6.37944,-2.960531 -5.19623,5.028587 -10.94832,1.749273 -4.49916,-4.307963 7.68704,-8.471468 1.37223,-12.652917 -11.6467,-5.458355 -11.93083,23.499619 -23.93808,10.045826 -4.44842,-13.213901 19.63901,-5.977085 18.68832,-17.090701 -4.60869,-6.01023 -14.30225,5.916547 -14.37576,-5.401173 6.89773,-6.143048 6.55743,3.645292 15.70676,-2.734842 0.92629,-15.429019 -26.63598,-5.228291 -18.1318,-28.502857 14.74358,-11.89817 16.94698,15.802363 26.08661,15.912553 6.24314,-2.446195 -1.08373,-8.30806 2.12207,-12.930206 5.57371,-1.7826 3.29649,9.50573 9.69816,7.893378 6.96267,-3.164252 -2.79429,-21.211643 10.40747,-20.083577 9.39336,7.242685 -5.30552,12.975731 2.05477,21.024119 8.54605,6.742979 11.31492,-26.050976 28.98421,-16.743718 8.79027,12.023519 -26.24977,15.295059 -21.20129,24.232232 0,0 6.36779,0.637706 7.59059,3.913058 2.56675,1.113053 -0.94318,4.578302 -0.4487,7.225967 0.98897,5.295322 7.72718,0.05061 7.32431,6.321913 -0.56055,8.725703 -10.60424,-2.310669 -12.31202,4.731814 -1.86948,5.105103 21.14559,13.607714 6.82298,23.468979 -11.70129,-3.023107 -7.57093,-17.197809 -15.06954,-17.813105 -5.21714,3.855105 0.34682,8.501245 -2.7881,11.610761 z"
         sodipodi:nodetypes="cccccccccccccccccccsscccc" /></g><g
       id="g21"
       inkscape:label="Blue"
       transform="translate(0,135.29598)"><circle
         style="fill:url(#radialGradient33);fill-opacity:1;stroke:#000000;stroke-width:0.264583;stroke-dasharray:none;stroke-opacity:1"
         id="circle20"
         cx="338.66666"
         cy="68.812943"
         r="67.386139"
         inkscape:label="Back" /><path
         id="path20"
         style="fill:#002dff;fill-opacity:1;stroke:#000000;stroke-width:1.92671;stroke-linecap:round;stroke-linejoin:round"
         d="m 350.19946,93.089272 c -3.12371,1.504881 -2.67849,-3.602922 -7.65499,-3.24606 -9.44095,4.254033 8.02158,21.420288 -6.26609,25.666398 -13.9796,-1.76634 -1.81881,-20.244763 -3.72379,-26.597115 -6.37944,-2.960531 -5.19623,5.028587 -10.94832,1.749273 -4.49916,-4.307963 7.68704,-8.471468 1.37223,-12.652917 -11.6467,-5.458355 -11.93083,23.499619 -23.93808,10.045826 -4.44842,-13.213901 19.63901,-5.977085 18.68832,-17.090701 -4.60869,-6.01023 -14.30225,5.916547 -14.37576,-5.401173 6.89773,-6.143048 6.55743,3.645292 15.70676,-2.734842 0.92629,-15.429019 -26.63598,-5.228291 -18.1318,-28.502857 14.74358,-11.89817 16.94698,15.802363 26.08661,15.912553 6.24314,-2.446195 -1.08373,-8.30806 2.12207,-12.930206 5.57371,-1.7826 3.29649,9.50573 9.69816,7.893378 6.96267,-3.164252 -2.79429,-21.211643 10.40747,-20.083577 9.39336,7.242685 -5.30552,12.975731 2.05477,21.024119 8.54605,6.742979 11.31492,-26.050976 28.98421,-16.743718 8.79027,12.023519 -26.24977,15.295059 -21.20129,24.232232 0,0 6.36779,0.637706 7.59059,3.913058 2.56675,1.113053 -0.94318,4.578302 -0.4487,7.225967 0.98897,5.295322 7.72718,0.05061 7.32431,6.321913 -0.56055,8.725703 -10.60424,-2.310669 -12.31202,4.731814 -1.86948,5.105103 21.14559,13.607714 6.82298,23.468979 -11.70129,-3.023107 -7.57093,-17.197809 -15.06954,-17.813105 -5.21714,3.855105 0.34682,8.501245 -2.7881,11.610761 z"
         sodipodi:nodetypes="cccccccccccccccccccsscccc" /></g><g
       id="g19"
       inkscape:label="Cyan"
       transform="translate(-135.46666,134.56355)"><circle
         style="fill:url(#radialGradient32);fill-opacity:1;stroke:#000000;stroke-width:0.264583;stroke-dasharray:none;stroke-opacity:1"
         id="circle5"
         cx="338.66666"
         cy="68.812943"
         r="67.386139"
         inkscape:label="Back" /><path
         id="path17"
         style="fill:#00ffe9;fill-opacity:1;stroke:#000000;stroke-width:1.92671;stroke-linecap:round;stroke-linejoin:round"
         d="m 350.19946,93.089272 c -3.12371,1.504881 -2.67849,-3.602922 -7.65499,-3.24606 -9.44095,4.254033 8.02158,21.420288 -6.26609,25.666398 -13.9796,-1.76634 -1.81881,-20.244763 -3.72379,-26.597115 -6.37944,-2.960531 -5.19623,5.028587 -10.94832,1.749273 -4.49916,-4.307963 7.68704,-8.471468 1.37223,-12.652917 -11.6467,-5.458355 -11.93083,23.499619 -23.93808,10.045826 -4.44842,-13.213901 19.63901,-5.977085 18.68832,-17.090701 -4.60869,-6.01023 -14.30225,5.916547 -14.37576,-5.401173 6.89773,-6.143048 6.55743,3.645292 15.70676,-2.734842 0.92629,-15.429019 -26.63598,-5.228291 -18.1318,-28.502857 14.74358,-11.89817 16.94698,15.802363 26.08661,15.912553 6.24314,-2.446195 -1.08373,-8.30806 2.12207,-12.930206 5.57371,-1.7826 3.29649,9.50573 9.69816,7.893378 6.96267,-3.164252 -2.79429,-21.211643 10.40747,-20.083577 9.39336,7.242685 -5.30552,12.975731 2.05477,21.024119 8.54605,6.742979 11.31492,-26.050976 28.98421,-16.743718 8.79027,12.023519 -26.24977,15.295059 -21.20129,24.232232 0,0 6.36779,0.637706 7.59059,3.913058 2.56675,1.113053 -0.94318,4.578302 -0.4487,7.225967 0.98897,5.295322 7.72718,0.05061 7.32431,6.321913 -0.56055,8.725703 -10.60424,-2.310669 -12.31202,4.731814 -1.86948,5.105103 21.14559,13.607714 6.82298,23.468979 -11.70129,-3.023107 -7.57093,-17.197809 -15.06954,-17.813105 -5.21714,3.855105 0.34682,8.501245 -2.7881,11.610761 z"
         sodipodi:nodetypes="cccccccccccccccccccsscccc" /></g><g
       id="g20"
       inkscape:label="Green"
       transform="translate(-270.93332,134.56355)"><circle
         style="fill:url(#radialGradient31);fill-opacity:1;stroke:#000000;stroke-width:0.264583;stroke-dasharray:none;stroke-opacity:1"
         id="circle19"
         cx="338.66666"
         cy="68.812943"
         r="67.386139"
         inkscape:label="Back" /><path
         id="path19"
         style="fill:#65dc2e;fill-opacity:1;stroke:#000000;stroke-width:1.92671;stroke-linecap:round;stroke-linejoin:round"
         d="m 350.19946,93.089272 c -3.12371,1.504881 -2.67849,-3.602922 -7.65499,-3.24606 -9.44095,4.254033 8.02158,21.420288 -6.26609,25.666398 -13.9796,-1.76634 -1.81881,-20.244763 -3.72379,-26.597115 -6.37944,-2.960531 -5.19623,5.028587 -10.94832,1.749273 -4.49916,-4.307963 7.68704,-8.471468 1.37223,-12.652917 -11.6467,-5.458355 -11.93083,23.499619 -23.93808,10.045826 -4.44842,-13.213901 19.63901,-5.977085 18.68832,-17.090701 -4.60869,-6.01023 -14.30225,5.916547 -14.37576,-5.401173 6.89773,-6.143048 6.55743,3.645292 15.70676,-2.734842 0.92629,-15.429019 -26.63598,-5.228291 -18.1318,-28.502857 14.74358,-11.89817 16.94698,15.802363 26.08661,15.912553 6.24314,-2.446195 -1.08373,-8.30806 2.12207,-12.930206 5.57371,-1.7826 3.29649,9.50573 9.69816,7.893378 6.96267,-3.164252 -2.79429,-21.211643 10.40747,-20.083577 9.39336,7.242685 -5.30552,12.975731 2.05477,21.024119 8.54605,6.742979 11.31492,-26.050976 28.98421,-16.743718 8.79027,12.023519 -26.24977,15.295059 -21.20129,24.232232 0,0 6.36779,0.637706 7.59059,3.913058 2.56675,1.113053 -0.94318,4.578302 -0.4487,7.225967 0.98897,5.295322 7.72718,0.05061 7.32431,6.321913 -0.56055,8.725703 -10.60424,-2.310669 -12.31202,4.731814 -1.86948,5.105103 21.14559,13.607714 6.82298,23.468979 -11.70129,-3.023107 -7.57093,-17.197809 -15.06954,-17.813105 -5.21714,3.855105 0.34682,8.501245 -2.7881,11.610761 z"
         sodipodi:nodetypes="cccccccccccccccccccsscccc" /></g><g
       id="g27"
       inkscape:label="Yellow"
       transform="translate(135.46666)"><circle
         style="fill:url(#radialGradient21);fill-opacity:1;stroke:#000000;stroke-width:0.264583;stroke-dasharray:none;stroke-opacity:1"
         id="circle21"
         cx="338.66666"
         cy="68.812943"
         r="67.386139"
         inkscape:label="Back" /><path
         id="path26"
         style="fill:#ffe400;fill-opacity:1;stroke:#000000;stroke-width:1.92671;stroke-linecap:round;stroke-linejoin:round"
         d="m 350.19946,93.089272 c -3.12371,1.504881 -2.67849,-3.602922 -7.65499,-3.24606 -9.44095,4.254033 8.02158,21.420288 -6.26609,25.666398 -13.9796,-1.76634 -1.81881,-20.244763 -3.72379,-26.597115 -6.37944,-2.960531 -5.19623,5.028587 -10.94832,1.749273 -4.49916,-4.307963 7.68704,-8.471468 1.37223,-12.652917 -11.6467,-5.458355 -11.93083,23.499619 -23.93808,10.045826 -4.44842,-13.213901 19.63901,-5.977085 18.68832,-17.090701 -4.60869,-6.01023 -14.30225,5.916547 -14.37576,-5.401173 6.89773,-6.143048 6.55743,3.645292 15.70676,-2.734842 0.92629,-15.429019 -26.63598,-5.228291 -18.1318,-28.502857 14.74358,-11.89817 16.94698,15.802363 26.08661,15.912553 6.24314,-2.446195 -1.08373,-8.30806 2.12207,-12.930206 5.57371,-1.7826 3.29649,9.50573 9.69816,7.893378 6.96267,-3.164252 -2.79429,-21.211643 10.40747,-20.083577 9.39336,7.242685 -5.30552,12.975731 2.05477,21.024119 8.54605,6.742979 11.31492,-26.050976 28.98421,-16.743718 8.79027,12.023519 -26.24977,15.295059 -21.20129,24.232232 0,0 6.36779,0.637706 7.59059,3.913058 2.56675,1.113053 -0.94318,4.578302 -0.4487,7.225967 0.98897,5.295322 7.72718,0.05061 7.32431,6.321913 -0.56055,8.725703 -10.60424,-2.310669 -12.31202,4.731814 -1.86948,5.105103 21.14559,13.607714 6.82298,23.468979 -11.70129,-3.023107 -7.57093,-17.197809 -15.06954,-17.813105 -5.21714,3.855105 0.34682,8.501245 -2.7881,11.610761 z"
         sodipodi:nodetypes="cccccccccccccccccccsscccc" /></g><g
       id="g28"
       inkscape:label="Orange"><circle
         style="fill:url(#radialGradient5);fill-opacity:1;stroke:#000000;stroke-width:0.264583;stroke-dasharray:none;stroke-opacity:1"
         id="circle27"
         cx="338.66666"
         cy="68.812943"
         r="67.386139"
         inkscape:label="Back" /><path
         id="path27"
         style="fill:#ff9500;fill-opacity:1;stroke:#000000;stroke-width:1.92671;stroke-linecap:round;stroke-linejoin:round"
         d="m 350.19946,93.089272 c -3.12371,1.504881 -2.67849,-3.602922 -7.65499,-3.24606 -9.44095,4.254033 8.02158,21.420288 -6.26609,25.666398 -13.9796,-1.76634 -1.81881,-20.244763 -3.72379,-26.597115 -6.37944,-2.960531 -5.19623,5.028587 -10.94832,1.749273 -4.49916,-4.307963 7.68704,-8.471468 1.37223,-12.652917 -11.6467,-5.458355 -11.93083,23.499619 -23.93808,10.045826 -4.44842,-13.213901 19.63901,-5.977085 18.68832,-17.090701 -4.60869,-6.01023 -14.30225,5.916547 -14.37576,-5.401173 6.89773,-6.143048 6.55743,3.645292 15.70676,-2.734842 0.92629,-15.429019 -26.63598,-5.228291 -18.1318,-28.502857 14.74358,-11.89817 16.94698,15.802363 26.08661,15.912553 6.24314,-2.446195 -1.08373,-8.30806 2.12207,-12.930206 5.57371,-1.7826 3.29649,9.50573 9.69816,7.893378 6.96267,-3.164252 -2.79429,-21.211643 10.40747,-20.083577 9.39336,7.242685 -5.30552,12.975731 2.05477,21.024119 8.54605,6.742979 11.31492,-26.050976 28.98421,-16.743718 8.79027,12.023519 -26.24977,15.295059 -21.20129,24.232232 0,0 6.36779,0.637706 7.59059,3.913058 2.56675,1.113053 -0.94318,4.578302 -0.4487,7.225967 0.98897,5.295322 7.72718,0.05061 7.32431,6.321913 -0.56055,8.725703 -10.60424,-2.310669 -12.31202,4.731814 -1.86948,5.105103 21.14559,13.607714 6.82298,23.468979 -11.70129,-3.023107 -7.57093,-17.197809 -15.06954,-17.813105 -5.21714,3.855105 0.34682,8.501245 -2.7881,11.610761 z"
         sodipodi:nodetypes="cccccccccccccccccccsscccc" /></g><g
       id="g29"
       inkscape:label="Red"
       transform="translate(-135.46666,-0.73242687)"><circle
         style="fill:url(#radialGradient19);fill-opacity:1;stroke:#000000;stroke-width:0.264583;stroke-dasharray:none;stroke-opacity:1"
         id="circle28"
         cx="338.66666"
         cy="68.812943"
         r="67.386139"
         inkscape:label="Back" /><path
         id="path28"
         style="fill:#f61800;fill-opacity:1;stroke:#000000;stroke-width:1.92671;stroke-linecap:round;stroke-linejoin:round"
         d="m 350.19946,93.089272 c -3.12371,1.504881 -2.67849,-3.602922 -7.65499,-3.24606 -9.44095,4.254033 8.02158,21.420288 -6.26609,25.666398 -13.9796,-1.76634 -1.81881,-20.244763 -3.72379,-26.597115 -6.37944,-2.960531 -5.19623,5.028587 -10.94832,1.749273 -4.49916,-4.307963 7.68704,-8.471468 1.37223,-12.652917 -11.6467,-5.458355 -11.93083,23.499619 -23.93808,10.045826 -4.44842,-13.213901 19.63901,-5.977085 18.68832,-17.090701 -4.60869,-6.01023 -14.30225,5.916547 -14.37576,-5.401173 6.89773,-6.143048 6.55743,3.645292 15.70676,-2.734842 0.92629,-15.429019 -26.63598,-5.228291 -18.1318,-28.502857 14.74358,-11.89817 16.94698,15.802363 26.08661,15.912553 6.24314,-2.446195 -1.08373,-8.30806 2.12207,-12.930206 5.57371,-1.7826 3.29649,9.50573 9.69816,7.893378 6.96267,-3.164252 -2.79429,-21.211643 10.40747,-20.083577 9.39336,7.242685 -5.30552,12.975731 2.05477,21.024119 8.54605,6.742979 11.31492,-26.050976 28.98421,-16.743718 8.79027,12.023519 -26.24977,15.295059 -21.20129,24.232232 0,0 6.36779,0.637706 7.59059,3.913058 2.56675,1.113053 -0.94318,4.578302 -0.4487,7.225967 0.98897,5.295322 7.72718,0.05061 7.32431,6.321913 -0.56055,8.725703 -10.60424,-2.310669 -12.31202,4.731814 -1.86948,5.105103 21.14559,13.607714 6.82298,23.468979 -11.70129,-3.023107 -7.57093,-17.197809 -15.06954,-17.813105 -5.21714,3.855105 0.34682,8.501245 -2.7881,11.610761 z"
         sodipodi:nodetypes="cccccccccccccccccccsscccc" /></g><g
       id="g30"
       inkscape:label="Icon"
       transform="translate(-270.93332,-0.73242687)"><circle
         style="fill:url(#radialGradient20);fill-opacity:1;stroke:#000000;stroke-width:0.264583;stroke-dasharray:none;stroke-opacity:1"
         id="circle29"
         cx="338.66666"
         cy="68.812943"
         r="67.386139"
         inkscape:label="Back" /><path
         id="path29"
         style="fill:url(#linearGradient34);stroke:#000000;stroke-width:1.92671;stroke-linecap:round;stroke-linejoin:round"
         d="m 350.19946,93.089272 c -3.12371,1.504881 -2.67849,-3.602922 -7.65499,-3.24606 -9.44095,4.254033 8.02158,21.420288 -6.26609,25.666398 -13.9796,-1.76634 -1.81881,-20.244763 -3.72379,-26.597115 -6.37944,-2.960531 -5.19623,5.028587 -10.94832,1.749273 -4.49916,-4.307963 7.68704,-8.471468 1.37223,-12.652917 -11.6467,-5.458355 -11.93083,23.499619 -23.93808,10.045826 -4.44842,-13.213901 19.63901,-5.977085 18.68832,-17.090701 -4.60869,-6.01023 -14.30225,5.916547 -14.37576,-5.401173 6.89773,-6.143048 6.55743,3.645292 15.70676,-2.734842 0.92629,-15.429019 -26.63598,-5.228291 -18.1318,-28.502857 14.74358,-11.89817 16.94698,15.802363 26.08661,15.912553 6.24314,-2.446195 -1.08373,-8.30806 2.12207,-12.930206 5.57371,-1.7826 3.29649,9.50573 9.69816,7.893378 6.96267,-3.164252 -2.79429,-21.211643 10.40747,-20.083577 9.39336,7.242685 -5.30552,12.975731 2.05477,21.024119 8.54605,6.742979 11.31492,-26.050976 28.98421,-16.743718 8.79027,12.023519 -26.24977,15.295059 -21.20129,24.232232 0,0 6.36779,0.637706 7.59059,3.913058 2.56675,1.113053 -0.94318,4.578302 -0.4487,7.225967 0.98897,5.295322 7.72718,0.05061 7.32431,6.321913 -0.56055,8.725703 -10.60424,-2.310669 -12.31202,4.731814 -1.86948,5.105103 21.14559,13.607714 6.82298,23.468979 -11.70129,-3.023107 -7.57093,-17.197809 -15.06954,-17.813105 -5.21714,3.855105 0.34682,8.501245 -2.7881,11.610761 z"
         sodipodi:nodetypes="cccccccccccccccccccsscccc" /></g></g></svg>
