<?xml version="1.0" encoding="UTF-8" standalone="no"?>
<!-- Created with Inkscape (http://www.inkscape.org/) -->

<svg
   width="2048"
   height="1024"
   viewBox="0 0 541.86665 270.93333"
   version="1.1"
   id="svg1"
   xml:space="preserve"
   sodipodi:docname="GemsShine.svg"
   inkscape:version="1.3.2 (091e20e, 2023-11-25, custom)"
   xmlns:inkscape="http://www.inkscape.org/namespaces/inkscape"
   xmlns:sodipodi="http://sodipodi.sourceforge.net/DTD/sodipodi-0.dtd"
   xmlns="http://www.w3.org/2000/svg"
   xmlns:svg="http://www.w3.org/2000/svg"><sodipodi:namedview
     id="namedview1"
     pagecolor="#000000"
     bordercolor="#000000"
     borderopacity="0.25"
     inkscape:showpageshadow="2"
     inkscape:pageopacity="0.0"
     inkscape:pagecheckerboard="0"
     inkscape:deskcolor="#d1d1d1"
     inkscape:document-units="px"
     showgrid="true"
     inkscape:zoom="0.50000001"
     inkscape:cx="1072"
     inkscape:cy="518.99999"
     inkscape:window-width="1920"
     inkscape:window-height="1017"
     inkscape:window-x="-8"
     inkscape:window-y="-8"
     inkscape:window-maximized="1"
     inkscape:current-layer="layer2"><inkscape:grid
       id="grid1"
       units="px"
       originx="0"
       originy="0"
       spacingx="0.26458333"
       spacingy="0.26458333"
       empcolor="#0099e5"
       empopacity="0.30196078"
       color="#0099e5"
       opacity="0.14901961"
       empspacing="256"
       dotted="false"
       gridanglex="30"
       gridanglez="30"
       visible="true" /></sodipodi:namedview><defs
     id="defs1"><filter
       style="color-interpolation-filters:sRGB;"
       inkscape:label="Color Shift"
       id="filter436"
       x="-0.0035869552"
       y="-0.0071739175"
       width="1.0107609"
       height="1.008638"><feColorMatrix
         type="hueRotate"
         values="99"
         result="color1"
         id="feColorMatrix435" /><feColorMatrix
         type="saturate"
         values="1"
         result="color2"
         id="feColorMatrix436" /></filter><filter
       style="color-interpolation-filters:sRGB;"
       inkscape:label="Color Shift"
       id="filter630"
       x="-0.0035869552"
       y="-0.0071739175"
       width="1.0107609"
       height="1.008638"><feColorMatrix
         type="hueRotate"
         values="62"
         result="color1"
         id="feColorMatrix629" /><feColorMatrix
         type="saturate"
         values="1"
         result="fbSourceGraphic"
         id="feColorMatrix630" /><feColorMatrix
         result="fbSourceGraphicAlpha"
         in="fbSourceGraphic"
         values="0 0 0 -1 0 0 0 0 -1 0 0 0 0 -1 0 0 0 0 1 0"
         id="feColorMatrix685" /><feColorMatrix
         id="feColorMatrix686"
         type="hueRotate"
         values="10"
         result="color1"
         in="fbSourceGraphic" /><feColorMatrix
         id="feColorMatrix687"
         type="saturate"
         values="1"
         result="color2" /></filter><filter
       style="color-interpolation-filters:sRGB;"
       inkscape:label="Color Shift"
       id="filter727"
       x="-0.0035869552"
       y="-0.0071739175"
       width="1.0107609"
       height="1.008638"><feColorMatrix
         type="hueRotate"
         values="133"
         result="color1"
         id="feColorMatrix726" /><feColorMatrix
         type="saturate"
         values="1"
         result="color2"
         id="feColorMatrix727" /></filter><filter
       style="color-interpolation-filters:sRGB;"
       inkscape:label="Brilliance"
       id="filter939"
       x="-0.0035869552"
       y="-0.0071739175"
       width="1.0107609"
       height="1.008638"><feColorMatrix
         type="hueRotate"
         values="320"
         result="color1"
         id="feColorMatrix938" /><feColorMatrix
         type="saturate"
         values="1"
         result="fbSourceGraphic"
         id="feColorMatrix939" /><feColorMatrix
         result="fbSourceGraphicAlpha"
         in="fbSourceGraphic"
         values="0 0 0 -1 0 0 0 0 -1 0 0 0 0 -1 0 0 0 0 1 0"
         id="feColorMatrix960" /><feColorMatrix
         id="feColorMatrix961"
         values="1.2 -0 -0 0 -0.1 -0 1.2 -0 0 -0.1 -0 -0 1.2 0 -0.1 0 0 0 1 0 "
         in="fbSourceGraphic" /></filter><filter
       style="color-interpolation-filters:sRGB;"
       inkscape:label="Brilliance"
       id="filter1067"
       x="-0.0035869552"
       y="-0.0071739175"
       width="1.0107609"
       height="1.008638"><feColorMatrix
         type="hueRotate"
         values="246"
         result="color1"
         id="feColorMatrix1066" /><feColorMatrix
         type="saturate"
         values="1"
         result="fbSourceGraphic"
         id="feColorMatrix1067" /><feColorMatrix
         result="fbSourceGraphicAlpha"
         in="fbSourceGraphic"
         values="0 0 0 -1 0 0 0 0 -1 0 0 0 0 -1 0 0 0 0 1 0"
         id="feColorMatrix1078" /><feColorMatrix
         id="feColorMatrix1079"
         values="1.3 -0 -0 0 -0.05 -0 1.3 -0 0 -0.05 -0 -0 1.3 0 -0.05 0 0 0 1 0 "
         in="fbSourceGraphic" /></filter></defs><g
     inkscape:groupmode="layer"
     id="layer2"
     inkscape:label="Gems"
     style="display:inline"><path
       d="m 53.602412,237.31574 c -10.379883,2.20294 -21.267047,6.79434 -33.76383,13.77901 l 47.89475,19.83858 c -3.897615,-13.77534 -8.349025,-24.72024 -14.13092,-33.61759 z"
       style="display:inline;fill:#ffffff;fill-opacity:1;stroke:none;stroke-width:0.264583;stroke-linecap:round;paint-order:stroke fill markers"
       id="path96"
       transform="translate(406.39999,-1.2556152e-5)"
       inkscape:label="7" /><path
       id="path186"
       style="display:inline;fill:#ffffff;fill-opacity:1;stroke:none;stroke-width:0.264583;stroke-linecap:round;paint-order:stroke fill markers"
       d="M 5.6843419e-14 203.20001 L 19.838582 251.09476 C 32.335352 244.1101 43.222539 239.51869 53.602412 237.31575 C 48.27484 229.11753 41.81581 222.65849 33.617586 217.33093 C 24.720242 211.54903 13.775324 207.09761 5.6843419e-14 203.20001 z M 53.602412 237.31575 C 59.384301 246.2131 63.835721 257.15801 67.733332 270.93334 C 71.630946 257.15801 76.082362 246.2131 81.864252 237.31575 C 72.300272 235.28598 63.166392 235.28598 53.602412 237.31575 z "
       transform="translate(270.93333,-1.2556152e-5)"
       inkscape:label="6" /><path
       id="path222"
       style="display:inline;fill:#ffffff;fill-opacity:1;stroke:none;stroke-width:0.264583;stroke-linecap:round;paint-order:stroke fill markers"
       d="M 77.83556 184.04821 L 48.457509 209.67093 C 41.453636 203.50954 36.458293 195.90662 33.617588 189.06909 C 24.720244 194.85097 13.775327 199.30239 2.6458333e-06 203.20001 C 13.775327 207.09761 24.720245 211.54903 33.617588 217.33093 C 31.414652 227.7108 26.823248 238.59799 19.838585 251.09476 C 20.833515 250.53176 21.754009 250.04128 22.700942 249.52483 C 26.526863 247.45958 30.205167 245.62798 33.76745 244.02904 C 40.558812 241.06847 46.539953 239.2966 53.314577 237.89143 C 59.326335 247.14198 63.475229 259.54662 67.733335 270.93334 L 115.62808 251.09476 C 103.13132 244.1101 92.244126 239.51869 81.864255 237.31575 C 89.545478 227.51576 93.342784 223.82034 101.84908 217.33093 C 79.759998 226.10494 62.433701 220.89997 50.42328 211.32044 L 79.107834 184.64145 C 78.689007 184.4332 78.262557 184.24019 77.83556 184.04821 z "
       transform="translate(135.46666,-1.2556152e-5)"
       inkscape:label="5" /><path
       id="path258"
       style="display:inline;fill:#ffffff;fill-opacity:1;stroke:none;stroke-width:0.264583;stroke-linecap:round;paint-order:stroke fill markers"
       d="M 19.838583 155.30526 L 7.9589839e-07 203.20001 C 13.775325 207.09761 24.720243 211.54903 33.617586 217.33093 C 31.414651 227.7108 26.823246 238.59799 19.838583 251.09476 C 32.148469 244.21455 42.895424 239.66154 53.135258 237.42117 L 53.314575 237.89143 L 56.494226 238.04284 C 63.506626 236.30386 72.231267 235.74376 81.864253 237.31575 C 92.244124 239.51869 103.13132 244.1101 115.62808 251.09476 L 135.46666 203.20001 C 121.69135 207.09761 110.74642 211.54903 101.84908 217.33093 C 99.819302 207.76695 99.8193 198.63307 101.84908 189.06909 C 93.650852 183.74151 87.191824 177.28248 81.864253 169.08426 C 72.300272 171.11404 63.166393 171.11404 53.602413 169.08426 C 48.27484 177.28248 41.815812 183.74151 33.617586 189.06909 C 32.724272 178.31503 28.69413 167.61494 19.838583 155.30526 z "
       inkscape:label="4"
       transform="translate(-7.958984e-7,-1.2556152e-5)" /><path
       id="path296"
       style="display:inline;fill:#ffffff;fill-opacity:1;stroke:none;stroke-width:0.264583;stroke-linecap:round;paint-order:stroke fill markers"
       d="M 67.733332 135.46667 L 19.838582 155.30525 C 20.895859 157.1969 21.891297 159.04754 22.838916 160.86925 C 27.259207 171.98903 30.167254 176.75863 33.617586 189.06908 C 47.516054 181.18901 60.749619 179.12013 71.895352 181.97184 C 59.311071 193.82584 47.035395 206.00978 34.411336 217.82133 C 33.756105 217.38022 34.297831 217.7768 33.617586 217.33092 C 34.939995 218.56814 36.028732 219.56584 37.18946 220.6346 L 37.209614 220.6594 L 37.213232 220.6563 L 41.52408 222.46549 L 42.070816 222.00144 L 41.966947 221.95493 L 81.053449 185.69099 C 88.848736 190.18221 95.052039 197.63345 98.952097 207.61214 L 70.757953 234.48595 L 70.690257 234.70867 L 72.427619 235.43783 L 99.950486 210.37476 C 100.58978 212.29233 101.14832 214.29342 101.62274 216.37646 C 101.63724 216.68066 101.65164 216.98486 101.66614 217.28906 C 101.71214 217.24016 101.75814 217.19126 101.80412 217.1423 C 101.81792 217.2063 101.83538 217.2668 101.84908 217.33092 C 110.74642 211.54903 121.69135 207.09761 135.46666 203.2 C 121.69135 199.30239 110.74642 194.85097 101.84908 189.06908 C 93.93839 183.10719 88.40387 176.12874 81.864252 169.08426 C 76.082363 160.18691 71.630944 149.242 67.733332 135.46667 z M 22.865787 160.92145 C 24.590874 164.24029 26.137549 167.45197 27.498579 170.5746 C 26.097536 167.71843 24.6187 164.73989 22.865787 160.92145 z M 77.835557 184.0482 C 78.262554 184.24018 78.689006 184.4332 79.107831 184.64145 L 39.56761 221.41698 C 39.059666 220.92827 37.760306 219.94969 37.156388 219.52769 L 77.835557 184.0482 z "
       transform="translate(406.39999,-135.46667)"
       inkscape:label="3" /><path
       id="path465"
       style="display:inline;fill:#ffffff;fill-opacity:1;stroke:none;stroke-width:0.264583;stroke-linecap:round;paint-order:stroke fill markers"
       d="M 67.733332 135.46667 C 69.292465 140.97711 70.942809 146.02756 72.728892 150.68228 L 71.768228 148.36511 C 71.768228 148.36511 58.208332 160.75092 58.009895 161.21394 L 56.240494 164.83542 L 72.883922 151.08432 C 73.969335 153.88632 75.106683 156.54181 76.305418 159.06109 L 75.918879 158.35313 L 59.917272 169.56691 C 57.898043 169.46868 56.055137 169.22827 53.839607 169.10234 L 63.830728 160.20521 C 63.830728 160.20521 55.314449 167.06784 54.652994 167.66315 L 53.782763 169.09821 C 53.718667 169.09464 53.667177 169.08762 53.602412 169.08426 C 38.381314 184.91113 37.283927 185.72636 33.617586 189.06908 C 63.830697 160.20523 94.936537 179.05619 99.950486 210.37476 C 100.58978 212.29233 101.14832 214.29342 101.62274 216.37646 L 101.66614 217.28906 L 101.80412 217.1423 C 101.81792 217.2063 101.83538 217.2668 101.84908 217.33092 C 101.83818 217.26232 101.83032 217.19479 101.81962 217.12628 L 120.17716 198.47057 C 125.22752 200.34189 130.02203 201.47567 135.46666 203.2 C 124.77864 198.84069 117.69169 195.70174 111.17512 191.6374 L 123.61002 180.23086 C 123.61002 180.23086 111.47085 190.64171 110.61702 191.28703 C 110.18623 191.01316 109.75894 190.73377 109.33441 190.45143 L 124.65182 177.65117 L 123.99036 176.16289 C 123.99036 176.16289 111.51641 186.06628 107.70247 189.33315 C 106.91431 188.77693 106.13252 188.20881 105.36101 187.61439 C 107.2309 176.40751 111.77371 166.18474 115.62808 155.30525 L 67.733332 135.46667 z M 76.621678 159.72462 C 78.247051 163.07749 79.984248 166.19125 81.864252 169.08426 C 73.770011 169.81919 68.096601 170.07195 61.908881 169.80101 L 76.621678 159.72462 z M 101.84908 189.06908 C 107.10632 192.60187 113.48261 195.49001 118.77208 197.57296 L 101.53385 214.51094 L 101.57726 215.42148 C 100.41284 206.26836 101.36864 197.83138 101.84908 189.06908 z M 116.92051 203.91572 C 116.92051 203.91572 105.88966 214.85976 105.55893 214.99205 L 107.21154 214.06962 L 116.92051 203.91572 z M 128.24953 205.61071 L 125.63006 206.49903 L 104.58276 227.336 L 105.28401 229.44078 L 128.24953 205.61071 z M 122.3145 214.54711 L 105.86847 230.84379 L 106.38317 232.15379 L 122.3145 214.54711 z "
       transform="translate(270.93333,-135.46667)"
       inkscape:label="2" /><path
       id="path349"
       style="display:inline;fill:#ffffff;fill-opacity:1;stroke:none;stroke-width:0.264583;stroke-linecap:round;stroke-dasharray:none;stroke-opacity:1;paint-order:stroke fill markers"
       inkscape:label="1"
       d="M 115.62808 155.30525 C 113.33091 159.41529 111.29798 163.34845 109.51838 167.14949 C 107.17672 171.94405 105.16959 176.75736 103.40816 182.94542 C 103.34661 183.15409 103.28803 183.36208 103.22832 183.57019 C 103.19489 183.6906 103.16081 183.8089 103.12756 183.93038 C 102.63967 185.6594 102.20926 187.372 101.84908 189.06908 C 110.74642 194.85097 121.69135 199.30239 135.46667 203.2 L 115.62808 155.30525 z M 110.59583 163.64479 L 92.835678 181.12383 L 93.960157 182.31446 L 110.59583 163.64479 z M 102.26146 175.08802 L 95.01849 183.27357 L 95.81224 184.01771 L 102.26146 175.08802 z "
       transform="translate(135.46666,-135.46667)" /></g></svg>
