<?xml version="1.0" encoding="UTF-8" standalone="no"?>
<!-- Created with Inkscape (http://www.inkscape.org/) -->

<svg
   width="2048"
   height="1024"
   viewBox="0 0 541.86664 270.93334"
   version="1.1"
   id="svg1"
   inkscape:version="1.3.2 (091e20e, 2023-11-25, custom)"
   sodipodi:docname="SpecialBubbles.svg"
   inkscape:export-filename="[Temp]PaintBubbles.svg"
   inkscape:export-xdpi="96"
   inkscape:export-ydpi="96"
   xml:space="preserve"
   xmlns:inkscape="http://www.inkscape.org/namespaces/inkscape"
   xmlns:sodipodi="http://sodipodi.sourceforge.net/DTD/sodipodi-0.dtd"
   xmlns:xlink="http://www.w3.org/1999/xlink"
   xmlns="http://www.w3.org/2000/svg"
   xmlns:svg="http://www.w3.org/2000/svg"><sodipodi:namedview
     id="namedview1"
     pagecolor="#000000"
     bordercolor="#000000"
     borderopacity="0.25"
     inkscape:showpageshadow="2"
     inkscape:pageopacity="0.0"
     inkscape:pagecheckerboard="0"
     inkscape:deskcolor="#d1d1d1"
     inkscape:document-units="px"
     inkscape:zoom="0.51717104"
     inkscape:cx="709.62984"
     inkscape:cy="372.21728"
     inkscape:window-width="1920"
     inkscape:window-height="1017"
     inkscape:window-x="-8"
     inkscape:window-y="-8"
     inkscape:window-maximized="1"
     inkscape:current-layer="layer2"
     showgrid="true"><inkscape:grid
       id="grid1"
       units="px"
       originx="0"
       originy="0"
       spacingx="33.866666"
       spacingy="33.866666"
       empcolor="#0099e5"
       empopacity="0.30196078"
       color="#0099e5"
       opacity="0.14901961"
       empspacing="4"
       dotted="false"
       gridanglex="30"
       gridanglez="30"
       visible="true" /></sodipodi:namedview><defs
     id="defs1"><linearGradient
       id="linearGradient25"
       inkscape:collect="always"><stop
         style="stop-color:#ffffff;stop-opacity:0.92610836;"
         offset="0.63476068"
         id="stop24" /><stop
         style="stop-color:#ffffff;stop-opacity:0;"
         offset="1"
         id="stop25" /></linearGradient><linearGradient
       id="linearGradient1"
       inkscape:collect="always"><stop
         style="stop-color:#000000;stop-opacity:0.77175701;"
         offset="0.89908254"
         id="stop1" /><stop
         style="stop-color:#000000;stop-opacity:0.17077176;"
         offset="1"
         id="stop6" /></linearGradient><linearGradient
       id="linearGradient30"
       inkscape:collect="always"><stop
         style="stop-color:#060202;stop-opacity:0.49753696;"
         offset="0.28309307"
         id="stop31" /><stop
         style="stop-color:#060202;stop-opacity:0;"
         offset="1"
         id="stop30" /></linearGradient><linearGradient
       id="linearGradient7"
       inkscape:collect="always"><stop
         style="stop-color:#f6f6f6;stop-opacity:1;"
         offset="0.79292268"
         id="stop7" /><stop
         style="stop-color:#979797;stop-opacity:1;"
         offset="1"
         id="stop13" /></linearGradient><linearGradient
       id="linearGradient3"
       inkscape:collect="always"><stop
         style="stop-color:#e8e8e8;stop-opacity:1;"
         offset="0.48623854"
         id="stop4" /><stop
         style="stop-color:#606060;stop-opacity:1;"
         offset="1"
         id="stop5" /></linearGradient><inkscape:path-effect
       effect="lattice2"
       gridpoint0="207.99193,95.244667"
       gridpoint1="341.19492,101.90562"
       gridpoint2="212.55623,194.18674"
       gridpoint3="341.19492,194.18674"
       gridpoint4="246.44115,107.56786"
       gridpoint5="307.30999,107.56786"
       gridpoint6="246.44115,188.5245"
       gridpoint7="307.30999,188.5245"
       gridpoint8x9="275.80586,114.9763"
       gridpoint10x11="275.80586,181.11605"
       gridpoint12="225.44988,127.27737"
       gridpoint13="328.30126,127.27737"
       gridpoint14="225.44988,168.81498"
       gridpoint15="328.30126,168.81498"
       gridpoint16="254.55373,131.88691"
       gridpoint17="299.19742,131.88691"
       gridpoint18="254.55373,164.20544"
       gridpoint19="299.19742,164.20544"
       gridpoint20x21="276.87556,131.88691"
       gridpoint22x23="276.87556,164.20544"
       gridpoint24x26="232.23188,148.04608"
       gridpoint25x27="321.51927,148.04608"
       gridpoint28x30="254.55373,148.04608"
       gridpoint29x31="299.19742,148.04608"
       gridpoint32x33x34x35="276.87556,148.04608"
       id="path-effect3"
       is_visible="true"
       lpeversion="1"
       horizontal_mirror="false"
       vertical_mirror="false"
       perimetral="false"
       live_update="true" /><linearGradient
       id="linearGradient65"
       inkscape:collect="always"><stop
         style="stop-color:#60606e;stop-opacity:1;"
         offset="0.09999999"
         id="stop63" /><stop
         style="stop-color:#373744;stop-opacity:1;"
         offset="0.83332366"
         id="stop64" /><stop
         style="stop-color:#25252c;stop-opacity:1;"
         offset="0.99687499"
         id="stop65" /></linearGradient><linearGradient
       id="linearGradient60"
       inkscape:collect="always"><stop
         style="stop-color:#000000;stop-opacity:1;"
         offset="0.5283345"
         id="stop58" /><stop
         style="stop-color:#1e1e1e;stop-opacity:1;"
         offset="0.71227944"
         id="stop59" /><stop
         style="stop-color:#3d3d3d;stop-opacity:1;"
         offset="1"
         id="stop60" /></linearGradient><linearGradient
       id="linearGradient56"
       inkscape:collect="always"><stop
         style="stop-color:#000000;stop-opacity:0.01661129;"
         offset="0.57662863"
         id="stop56" /><stop
         style="stop-color:#000000;stop-opacity:1;"
         offset="1"
         id="stop57" /></linearGradient><linearGradient
       id="linearGradient41"
       inkscape:collect="always"><stop
         style="stop-color:#303030;stop-opacity:1;"
         offset="0.1267544"
         id="stop45" /><stop
         style="stop-color:#414141;stop-opacity:1;"
         offset="0.32508782"
         id="stop18" /></linearGradient><linearGradient
       id="linearGradient32"
       inkscape:collect="always"><stop
         style="stop-color:#3e3e3e;stop-opacity:1;"
         offset="0.6730746"
         id="stop32" /><stop
         style="stop-color:#2f2f2f;stop-opacity:1;"
         offset="1"
         id="stop41" /></linearGradient><rect
       x="128"
       y="639.99995"
       width="256"
       height="255.99998"
       id="rect4" /><radialGradient
       inkscape:collect="always"
       xlink:href="#linearGradient65"
       id="radialGradient6"
       gradientUnits="userSpaceOnUse"
       gradientTransform="matrix(1.2074112,0,0,1.2074112,165.96296,-0.74921395)"
       cx="95.399178"
       cy="53.14817"
       fx="95.399178"
       fy="53.14817"
       r="49.088402" /><radialGradient
       inkscape:collect="always"
       xlink:href="#linearGradient32"
       id="radialGradient34"
       cx="291.23712"
       cy="-220.87398"
       fx="291.23712"
       fy="-220.87398"
       r="25.039308"
       gradientTransform="matrix(1.114345,-0.03732341,0.0174596,0.65276671,-29.516378,-64.882635)"
       gradientUnits="userSpaceOnUse" /><radialGradient
       inkscape:collect="always"
       xlink:href="#linearGradient41"
       id="radialGradient43"
       cx="291.44214"
       cy="-227.81694"
       fx="291.44214"
       fy="-227.81694"
       r="24.928718"
       gradientTransform="matrix(1,0,0,0.63739472,0,-81.825167)"
       gradientUnits="userSpaceOnUse" /><radialGradient
       inkscape:collect="always"
       xlink:href="#linearGradient60"
       id="radialGradient56"
       gradientUnits="userSpaceOnUse"
       gradientTransform="matrix(1,0,0,0.63739472,0,-81.825167)"
       cx="290.8451"
       cy="-225.65906"
       fx="290.8451"
       fy="-225.65906"
       r="24.928718" /><radialGradient
       inkscape:collect="always"
       xlink:href="#linearGradient56"
       id="radialGradient57"
       cx="378.41449"
       cy="19.302891"
       fx="378.41449"
       fy="19.302891"
       r="4.4343457"
       gradientTransform="matrix(1.411806,1.2249251,-1.1366551,1.3100694,-131.59417,-469.18588)"
       gradientUnits="userSpaceOnUse" /><radialGradient
       inkscape:collect="always"
       xlink:href="#linearGradient3"
       id="radialGradient7"
       cx="175.05681"
       cy="203.9063"
       fx="175.05681"
       fy="203.9063"
       r="73.158859"
       gradientTransform="matrix(1.4403564,0.94059606,-0.91080598,1.3947382,123.29379,-238.3138)"
       gradientUnits="userSpaceOnUse" /><radialGradient
       inkscape:collect="always"
       xlink:href="#linearGradient7"
       id="radialGradient13"
       cx="274.25305"
       cy="133.29939"
       fx="274.25305"
       fy="133.29939"
       r="41.651151"
       gradientTransform="matrix(1.3307161,-0.00408218,0.0042249,1.3772393,-91.042338,-49.062213)"
       gradientUnits="userSpaceOnUse" /><radialGradient
       inkscape:collect="always"
       xlink:href="#linearGradient30"
       id="radialGradient35"
       cx="396.92535"
       cy="25.35425"
       fx="396.92535"
       fy="25.35425"
       r="11.91211"
       gradientTransform="matrix(2.4878163,-0.44547396,0.07118741,0.39755678,-596.17704,187.72472)"
       gradientUnits="userSpaceOnUse" /><radialGradient
       inkscape:collect="always"
       xlink:href="#linearGradient1"
       id="radialGradient8"
       cx="371.69669"
       cy="29.440155"
       fx="371.69669"
       fy="29.440155"
       r="22.197403"
       gradientTransform="matrix(0.57202809,-0.67033815,0.98688473,0.84215144,130.02172,254.01109)"
       gradientUnits="userSpaceOnUse" /><radialGradient
       inkscape:collect="always"
       xlink:href="#linearGradient72"
       id="radialGradient2-7"
       cx="76.384628"
       cy="54.932877"
       fx="76.384628"
       fy="54.932877"
       r="49.088402"
       gradientUnits="userSpaceOnUse"
       gradientTransform="matrix(1.2074112,0,0,1.2074112,165.96296,-0.74921395)" /><linearGradient
       id="linearGradient72"
       inkscape:collect="always"><stop
         style="stop-color:#757575;stop-opacity:1;"
         offset="0.03709042"
         id="stop70" /><stop
         style="stop-color:#5b5b5b;stop-opacity:1;"
         offset="0.40662616"
         id="stop20" /><stop
         style="stop-color:#727272;stop-opacity:1;"
         offset="0.7080099"
         id="stop19" /><stop
         style="stop-color:#3c3c3c;stop-opacity:1;"
         offset="0.89400154"
         id="stop71" /><stop
         style="stop-color:#595959;stop-opacity:1;"
         offset="0.99687499"
         id="stop72" /></linearGradient><radialGradient
       inkscape:collect="always"
       xlink:href="#linearGradient74"
       id="radialGradient14-6"
       cx="101.65286"
       cy="74.340439"
       fx="101.65286"
       fy="74.340439"
       r="48.836784"
       gradientUnits="userSpaceOnUse"
       gradientTransform="matrix(0.88949132,0,0,0.88949132,179.19436,17.793469)" /><linearGradient
       id="linearGradient74"
       inkscape:collect="always"><stop
         style="stop-color:#6f6f6f;stop-opacity:0;"
         offset="0.91687655"
         id="stop73" /><stop
         style="stop-color:#343434;stop-opacity:1;"
         offset="1"
         id="stop74" /></linearGradient><radialGradient
       inkscape:collect="always"
       xlink:href="#linearGradient17"
       id="radialGradient14-8-1"
       cx="95.043655"
       cy="55.425552"
       fx="95.043655"
       fy="55.425552"
       r="48.836784"
       gradientUnits="userSpaceOnUse"
       gradientTransform="matrix(0.88949132,0,0,0.88949132,176.92366,15.694656)" /><linearGradient
       id="linearGradient17"
       inkscape:collect="always"><stop
         style="stop-color:#ffffff;stop-opacity:0.54844004;"
         offset="0"
         id="stop16" /><stop
         style="stop-color:#ffffff;stop-opacity:0;"
         offset="0.50806975"
         id="stop17" /></linearGradient><radialGradient
       inkscape:collect="always"
       xlink:href="#linearGradient14"
       id="radialGradient15-4"
       cx="64.372116"
       cy="-57.623447"
       fx="64.372116"
       fy="-57.623447"
       r="6.5115709"
       gradientTransform="matrix(1.5133308,-1.3941055e-8,-1.9593405e-8,2.7376105,-90.433552,-120.51678)"
       gradientUnits="userSpaceOnUse" /><linearGradient
       id="linearGradient14"
       inkscape:collect="always"><stop
         style="stop-color:#ffffff;stop-opacity:0.97372741;"
         offset="0.63476068"
         id="stop14" /><stop
         style="stop-color:#ffffff;stop-opacity:0;"
         offset="1"
         id="stop15" /></linearGradient><radialGradient
       inkscape:collect="always"
       xlink:href="#linearGradient25"
       id="radialGradient15-0-6"
       cx="64.372116"
       cy="-57.623447"
       fx="64.372116"
       fy="-57.623447"
       r="6.5115709"
       gradientTransform="matrix(1.0670201,-1.8579789e-8,0,1.7362643,190.70794,141.65192)"
       gradientUnits="userSpaceOnUse" /><radialGradient
       inkscape:collect="always"
       xlink:href="#linearGradient20"
       id="radialGradient4"
       gradientUnits="userSpaceOnUse"
       gradientTransform="matrix(1.2074112,0,0,1.2074112,165.96296,-0.74921395)"
       cx="76.384628"
       cy="54.932877"
       fx="76.384628"
       fy="54.932877"
       r="49.088402" /><linearGradient
       id="linearGradient20"
       inkscape:collect="always"><stop
         style="stop-color:#ffffff;stop-opacity:0.1039823;"
         offset="0.09999999"
         id="stop13-2" /><stop
         style="stop-color:#ffffff;stop-opacity:0.02212389;"
         offset="0.89400154"
         id="stop19-0" /><stop
         style="stop-color:#e0e0e0;stop-opacity:0.10619469;"
         offset="0.99687499"
         id="stop20-3" /></linearGradient><linearGradient
       inkscape:collect="always"
       xlink:href="#linearGradient5"
       id="linearGradient12"
       gradientUnits="userSpaceOnUse"
       x1="225.95004"
       y1="83.91864"
       x2="313.27737"
       y2="83.91864" /><linearGradient
       id="linearGradient5"
       inkscape:collect="always"><stop
         style="stop-color:#3a3a3a;stop-opacity:1;"
         offset="0"
         id="stop6-0" /><stop
         style="stop-color:#3a3a3a;stop-opacity:1;"
         offset="1"
         id="stop7-2" /></linearGradient><radialGradient
       inkscape:collect="always"
       xlink:href="#linearGradient22"
       id="radialGradient5"
       gradientUnits="userSpaceOnUse"
       gradientTransform="matrix(0.88949132,0,0,0.88949132,179.19436,17.793469)"
       cx="101.65286"
       cy="74.340439"
       fx="101.65286"
       fy="74.340439"
       r="48.836784" /><linearGradient
       id="linearGradient22"
       inkscape:collect="always"><stop
         style="stop-color:#ffffff;stop-opacity:0;"
         offset="0.93502837"
         id="stop21" /><stop
         style="stop-color:#ffffff;stop-opacity:0.0818584;"
         offset="1"
         id="stop22" /></linearGradient><radialGradient
       inkscape:collect="always"
       xlink:href="#linearGradient24"
       id="radialGradient6-0"
       gradientUnits="userSpaceOnUse"
       gradientTransform="matrix(0.88949132,0,0,0.88949132,179.19438,17.79347)"
       cx="91.523758"
       cy="49.017662"
       fx="91.523758"
       fy="49.017662"
       r="48.836784" /><linearGradient
       id="linearGradient24"
       inkscape:collect="always"><stop
         style="stop-color:#ffffff;stop-opacity:0.15044248;"
         offset="0"
         id="stop23" /><stop
         style="stop-color:#ffffff;stop-opacity:0;"
         offset="0.50806975"
         id="stop24-5" /></linearGradient><radialGradient
       inkscape:collect="always"
       xlink:href="#linearGradient14-0"
       id="radialGradient7-7"
       gradientUnits="userSpaceOnUse"
       gradientTransform="matrix(1.5133308,-1.3941055e-8,-1.9593405e-8,2.7376105,33.457616,-74.863984)"
       cx="64.372116"
       cy="-57.623447"
       fx="64.372116"
       fy="-57.623447"
       r="6.5115709" /><linearGradient
       id="linearGradient14-0"
       inkscape:collect="always"><stop
         style="stop-color:#ffffff;stop-opacity:1;"
         offset="0.63476068"
         id="stop14-5" /><stop
         style="stop-color:#ffffff;stop-opacity:0;"
         offset="1"
         id="stop15-7" /></linearGradient><radialGradient
       inkscape:collect="always"
       xlink:href="#linearGradient14-0"
       id="radialGradient8-1"
       gradientUnits="userSpaceOnUse"
       gradientTransform="matrix(0.98825802,-1.9997244e-8,0,1.7248518,193.61911,126.6906)"
       cx="64.372116"
       cy="-57.623447"
       fx="64.372116"
       fy="-57.623447"
       r="6.5115709" /></defs><g
     inkscape:groupmode="layer"
     id="layer2"
     inkscape:label="Special"
     style="display:inline"
     inkscape:highlight-color="#e1cc63"><g
       id="g4"
       inkscape:label="Glass"
       transform="matrix(1.5512501,0,0,1.5512501,-79.786529,-62.660365)"
       style="display:inline"><circle
         style="display:inline;fill:url(#radialGradient4);fill-opacity:1;stroke:url(#linearGradient12);stroke-width:0.170561;stroke-dasharray:none;stroke-dashoffset:0;stroke-opacity:1"
         id="circle1"
         cx="269.61371"
         cy="83.91864"
         r="43.439896"
         inkscape:label="MainColor" /><circle
         style="display:inline;fill:url(#radialGradient5);stroke:none;stroke-width:0.447625;stroke-dasharray:none;stroke-opacity:1"
         id="circle2"
         cx="269.61371"
         cy="83.91864"
         r="43.439896"
         inkscape:label="ColorReflexion" /><circle
         style="display:inline;fill:url(#radialGradient6-0);stroke:none;stroke-width:0.447625;stroke-dasharray:none;stroke-opacity:1"
         id="circle3"
         cx="269.61371"
         cy="83.91864"
         r="43.439896"
         inkscape:label="WhiteShading" /><ellipse
         style="display:inline;fill:url(#radialGradient7-7);stroke:none;stroke-width:0.786886;stroke-dasharray:none;stroke-opacity:1"
         id="ellipse3"
         cx="130.87393"
         cy="-232.61452"
         rx="9.8541622"
         ry="17.826143"
         transform="matrix(0.32642233,0.94522403,-0.95936454,0.2821696,0,0)"
         inkscape:label="ReflexionLarge" /><ellipse
         style="display:inline;fill:url(#radialGradient8-1);stroke:none;stroke-width:0.504743;stroke-dasharray:none;stroke-opacity:1"
         id="ellipse4"
         cx="257.23538"
         cy="27.298714"
         rx="6.4351125"
         ry="11.231495"
         transform="matrix(0.98122027,0.19289062,-0.3332014,0.94285568,0,0)"
         inkscape:label="ReflexionSmall" /></g><g
       id="g74"
       inkscape:label="Metallic"
       transform="matrix(1.5512501,0,0,1.5512501,-215.0383,-62.445467)"
       style="display:inline"><circle
         style="display:inline;fill:url(#radialGradient2-7);fill-opacity:1;stroke:#191717;stroke-width:0.17056136;stroke-dasharray:none;stroke-opacity:1"
         id="path1-5"
         cx="269.61371"
         cy="83.91864"
         r="43.439896"
         inkscape:label="MainColor" /><circle
         style="display:inline;fill:url(#radialGradient14-6);stroke:none;stroke-width:0.17056136;stroke-dasharray:none;stroke-opacity:1"
         id="circle10-9"
         cx="269.61371"
         cy="83.91864"
         r="43.439896"
         inkscape:label="ColorReflexion" /><circle
         style="display:inline;fill:url(#radialGradient14-8-1);stroke:none;stroke-width:0.447625;stroke-dasharray:none;stroke-opacity:1"
         id="circle10-2-7"
         cx="267.34299"
         cy="81.819832"
         inkscape:label="WhiteShading"
         r="43.439896" /><ellipse
         style="display:inline;fill:url(#radialGradient15-4);stroke:none;stroke-width:0.786886;stroke-dasharray:none;stroke-opacity:1"
         id="path14-1"
         cx="6.9827747"
         cy="-278.2673"
         rx="9.8541622"
         ry="17.826143"
         transform="matrix(-0.14051588,0.99007842,-0.98248381,-0.18634797,0,0)"
         inkscape:label="ReflexionLarge" /><ellipse
         style="display:inline;fill:url(#radialGradient15-0-6);stroke:none;stroke-width:0.526203;stroke-dasharray:none;stroke-opacity:1"
         id="path14-6-6"
         cx="259.39426"
         cy="41.602398"
         rx="6.9479775"
         ry="11.305808"
         transform="matrix(0.99178785,0.12789391,-0.3010782,0.95359945,0,0)"
         inkscape:label="ReflexionSmall" /></g><g
       id="g36"
       inkscape:label="Explosive"
       style="display:inline"
       transform="translate(-270.93333)"><circle
         style="display:inline;fill:url(#radialGradient6);fill-opacity:1;stroke:#000000;stroke-width:0.447625;stroke-dasharray:none;stroke-opacity:1"
         id="circle4"
         cx="269.61371"
         cy="83.91864"
         r="43.439896"
         inkscape:label="MainColor"
         transform="matrix(1.5512501,0,0,1.5512501,-79.571632,-62.445468)" /><g
         id="g65"
         inkscape:label="Fuse Cap"
         transform="matrix(1.1821148,0,0,1.1821148,-66.284449,-3.6500687)"><g
           id="g32"
           style="display:inline"
           inkscape:label="Cap"><path
             id="path1"
             style="display:inline;fill:url(#radialGradient8);fill-opacity:0.439416;stroke:none;stroke-width:0.421236;stroke-linecap:round;stroke-linejoin:round;stroke-dashoffset:16.6688"
             d="m 388.80932,48.339794 a 25.411274,16.081983 38.954345 0 1 -30.29914,-4.828306 25.411274,16.081983 38.954345 0 1 -8.21045,-28.283633 25.411274,16.081983 38.954345 0 1 30.29914,4.828301 25.411274,16.081983 38.954345 0 1 8.21045,28.283638 z"
             inkscape:label="Cap Shadow"
             transform="translate(1.0775953e-6)" /><path
             id="ellipse31"
             style="fill:url(#radialGradient34);stroke:#000000;stroke-width:0.410327;stroke-linecap:round;stroke-linejoin:round;stroke-dashoffset:16.6688"
             transform="matrix(0.75824663,0.65196782,-0.68558004,0.72799726,0,0)"
             d="m 315.7296,-218.53438 c 0,8.66218 -11.06912,15.68427 -24.72356,15.68427 -13.65444,0 -24.53651,-7.01565 -24.72355,-15.68427 -0.15017,-6.95974 0,0 -0.15017,-6.95974 4.47408,-2.8383 18.0465,-8.72453 24.87372,-8.72453 6.82722,0 20.08852,5.72129 24.56261,8.55959 0.16095,7.12468 0.16095,2.79359 0.16095,7.12468 z"
             sodipodi:nodetypes="ssscscs"
             inkscape:label="Cap Bottom" /><path
             id="path35"
             style="display:inline;fill:url(#radialGradient43);stroke:#000000;stroke-width:0.410327;stroke-linecap:round;stroke-linejoin:round;stroke-dashoffset:16.6688"
             transform="matrix(0.75824662,0.65196782,-0.68558005,0.72799726,1.0775949e-6,9.2622712e-8)"
             d="m 315.56865,-225.65906 a 24.723555,15.68427 0 0 1 -24.72356,15.68427 24.723555,15.68427 0 0 1 -24.72355,-15.68427 24.723555,15.68427 0 0 1 24.72355,-15.68427 24.723555,15.68427 0 0 1 24.72356,15.68427 z"
             inkscape:label="Cap Top" /><path
             id="path52"
             style="display:inline;fill:url(#radialGradient56);stroke:none;stroke-width:0.410327;stroke-linecap:round;stroke-linejoin:round;stroke-dashoffset:16.6688;stroke-opacity:1"
             inkscape:label="Cap Hole"
             d="m 271.23034,-235.20806 a 24.723555,15.68427 0 0 0 -5.10983,9.54874 24.723555,15.68427 0 0 0 24.72479,15.68376 24.723555,15.68427 0 0 0 24.72292,-15.68371 24.723555,15.68427 0 0 0 -10.53548,-12.84035 c 0.16281,1.79243 0.28139,2.87017 0.28139,2.87017 a 15.615942,14.925236 44.999996 0 1 -13.37729,16.34417 15.615942,14.925236 44.999996 0 1 -16.96082,-14.12459 c 0,0 -0.17413,-1.62046 -0.39478,-4.01859 a 24.723555,15.68427 0 0 0 -3.3509,2.2204 z"
             transform="matrix(0.19721578,0.16957324,-0.1783156,0.18934808,278.9181,18.223756)" /></g><g
           id="g8"
           inkscape:label="Fuze"><path
             id="path30"
             style="color:#000000;display:inline;fill:url(#radialGradient35);stroke:none;stroke-width:0.581938;stroke-linecap:round;stroke-linejoin:round;stroke-dasharray:none;stroke-dashoffset:63.0001;stroke-opacity:1"
             inkscape:label="Fuse Shadow Back"
             d="m 383.54363,19.605572 c -2.46902,0.03819 -5.30482,0.673054 -8.05672,2.702913 a 3.7771331,3.7771331 0 0 0 -0.79692,5.282113 3.7771331,3.7771331 0 0 0 5.2808,0.796491 c 2.91608,-2.150998 3.81278,-1.537009 6.62329,-0.834087 1.40528,0.351468 3.1769,0.867342 5.38135,0.730482 1.17912,-0.07321 2.43222,-0.391394 3.66552,-0.957364 a 24.740525,15.657487 38.954344 0 0 -3.65722,-6.635536 c -0.15604,0.0303 -0.3103,0.04394 -0.47562,0.05421 -0.64605,0.04011 -1.63591,-0.160086 -3.08105,-0.521523 -1.2645,-0.316259 -2.96308,-0.647399 -4.88343,-0.617696 z" /><path
             style="color:#000000;display:inline;fill:#91663b;fill-opacity:1;stroke:#000000;stroke-width:0.581938;stroke-linecap:round;stroke-linejoin:round;stroke-dasharray:none;stroke-dashoffset:63.0001;stroke-opacity:1"
             d="m 392.76211,10.51336 a 3.7771331,3.7771331 0 0 0 -2.21246,1.861376 c -0.67492,1.301475 -1.08767,1.549263 -1.67716,1.816589 -0.5895,0.267324 -1.58592,0.432406 -3.0651,0.608764 -2.95837,0.352716 -8.06329,1.439304 -11.35159,6.552388 a 3.7771331,3.7771331 0 0 0 1.13462,5.220176 3.7771331,3.7771331 0 0 0 5.21852,-1.134666 c 1.96004,-3.047743 3.01628,-2.792675 5.89299,-3.135657 1.43837,-0.17149 3.27773,-0.319483 5.28927,-1.231684 2.01153,-0.9122 3.96329,-2.709475 5.26408,-5.217842 a 3.7771331,3.7771331 0 0 0 -1.61292,-5.092649 3.7771331,3.7771331 0 0 0 -2.88025,-0.246795 z"
             id="path32" /><path
             id="path56"
             style="fill:url(#radialGradient57);stroke-width:0.753679;stroke-linecap:round;stroke-linejoin:round;stroke-dashoffset:63.0001"
             d="m 382.59551,22.575102 c -0.089,2.043816 -2.33219,4.795573 -4.59713,4.795574 -2.26495,-1e-6 -4.26641,-2.352944 -4.26641,-4.398699 0,-2.045754 3.09287,-5.721614 5.35781,-5.721614 2.26495,0 3.60495,3.047475 3.50573,5.324739 z"
             sodipodi:nodetypes="sssss"
             inkscape:label="Fuse Shadow Bottom" /><path
             id="path16"
             style="display:inline;fill:none;fill-opacity:1;stroke:#000000;stroke-width:0.447644;stroke-linecap:round;stroke-linejoin:round;stroke-dasharray:none;stroke-dashoffset:63.0001;stroke-opacity:1"
             transform="translate(1.0775953e-6)"
             d="m 391.46527,11.15021 c 3.58616,-2.4775967 4.70561,5.249731 6.19177,2.174644 m -7.57774,-0.291371 c 2.90721,-1.989148 4.10651,5.144443 7.12583,3.00308 m -8.46468,-1.77899 c 2.43542,-0.573792 3.60851,6.7325 6.42647,4.666847 m -10.55778,-3.90179 c 4.29707,-0.293272 3.43,6.758001 7.84183,5.890937 m -12.26092,-4.487583 c 5.48291,-0.459035 3.85575,5.793616 9.38235,5.519613 M 374.52769,21.15637 c 5.04912,-1.208181 5.28354,3.047503 8.49334,1.893419 m -9.21574,0.490723 c 3.94725,-1.260951 3.92782,2.051602 7.10593,1.862526 m -3.89583,-7.158684 c 5.3809,-0.53554 3.41453,4.816013 9.98128,4.127462"
             inkscape:label="Fuze Stripes" /></g></g><g
         id="g68"
         transform="matrix(0.46674736,0.42844972,-0.42844972,0.46674736,262.39816,-108.01706)"
         inkscape:label="Crossbones"
         inkscape:path-effect="#path-effect3"
         style="display:inline;stroke-width:1.6704;stroke-dasharray:none"><path
           style="display:inline;fill:url(#radialGradient13);stroke:#000000;stroke-width:1.6704;stroke-dasharray:none;stroke-opacity:1"
           d="m 255.15478,190.45201 c -3.79493,-1.06443 -5.37507,-4.93975 -5.53193,-5.34744 -0.93423,-2.42287 -0.79782,-4.97731 -0.98282,-7.54421 -0.14775,-2.05006 -0.41537,-6.22977 -0.41537,-6.22977 -0.35638,-0.2569 -1.06783,-0.77132 -1.06783,-0.77132 -5.92395,-4.28756 -12.22106,-13.98799 -14.40835,-22.28212 -0.22729,-0.76694 -2.24339,-9.24668 -0.48038,-16.77599 3.4263,-15.56898 17.57892,-29.17048 37.15236,-30.20176 2.84114,-0.40191 5.64208,-0.0404 8.51663,0.33184 20.74346,2.68356 37.61034,18.07622 40.11605,36.81333 0.60056,2.47661 0.42548,4.76801 0.16938,7.22122 -0.98662,9.44886 -6.28122,18.78959 -13.95518,24.8784 -0.64432,0.51122 -1.93454,1.53274 -1.93454,1.53274 -0.0457,2.06162 -0.16484,6.10834 -0.16484,6.10834 -0.15439,2.50615 0.17731,4.88575 -0.70306,7.21896 -0.73427,1.94602 -2.23369,3.6624 -4.00819,4.62182 -1.93216,1.31853 -4.16685,1.06625 -6.37257,1.21546 -1.59455,0.10788 -4.79091,0.29493 -4.79091,0.29493 -0.0281,-1.48265 -0.0926,-4.52125 -0.0926,-4.52125 -0.0337,-1.5312 -0.10924,-4.65852 -0.10924,-4.65852 -0.30439,-0.24257 -0.91479,-0.7305 -0.91479,-0.7305 -0.50344,-0.40285 -1.34473,-0.73297 -1.86554,-0.73 -0.31587,0.002 -0.94747,0.005 -0.94747,0.005 -0.31662,0.32142 -0.94794,0.96159 -0.94794,0.96159 -0.31546,0.31975 -0.94434,0.95645 -0.94434,0.95645 0.0138,1.49316 0.0385,4.4222 0.0385,4.4222 0.0119,1.45479 0.0328,4.30003 0.0328,4.30003 -1.70639,0.0136 -5.11326,0.007 -5.11326,0.007 -1.70227,-0.009 -5.09334,-0.0615 -5.09334,-0.0615 -0.0518,-1.41759 -0.15242,-4.31773 -0.15242,-4.31773 -0.0498,-1.46068 -0.14642,-4.43991 -0.14642,-4.43991 -0.32492,-0.32471 -0.97577,-0.97728 -0.97577,-0.97728 -0.32571,-0.32693 -0.97805,-0.9838 -0.97805,-0.9838 -0.33271,-0.008 -0.99718,-0.0237 -0.99718,-0.0237 -0.3322,-0.008 -0.9956,-0.0255 -0.9956,-0.0255 -0.30165,0.31346 -0.90187,0.93686 -0.90187,0.93686 -0.29971,0.31123 -0.89592,0.93003 -0.89592,0.93003 0.0667,1.49827 0.20638,4.43754 0.20638,4.43754 0.0709,1.45989 0.2189,4.31535 0.2189,4.31535 -1.33634,-0.0585 -3.99149,-0.19692 -3.99149,-0.19692 -2.20655,-0.12114 -4.6651,-0.43473 -5.57075,-0.68874 0,0 -9.7e-4,-5.1e-4 -9.7e-4,-5.1e-4 z m 7.65823,-33.64443 c 6.40716,-3.10861 6.18681,-10.55532 6.0985,-11.81551 -0.43003,-2.98064 -1.18536,-4.63388 -3.12847,-6.86426 -4.66386,-5.35339 -10.29226,-3.92321 -12.40117,-3.11635 -2.39001,1.11651 -4.29181,3.09105 -5.37981,5.57248 -1.8948,4.32147 -0.6579,8.32055 0.17211,10.20707 2.98534,6.16025 8.92972,8.19758 14.63877,6.01657 0,0 7e-5,0 7e-5,0 m 38.66339,-4.87969 c 2.75516,-5.42119 0.29822,-12.85558 -5.89111,-15.88025 -1.65211,-0.80737 -5.59962,-1.32755 -9.09732,0.0577 -3.50034,1.38628 -6.53522,4.68397 -6.34221,11.49002 1.547,11.92956 16.45024,14.64657 21.33064,4.33254 z"
           id="path68"
           inkscape:original-d="m 264.64073,172.69608 c -2.29101,-0.51161 -3.07196,-2.77653 -3.14768,-3.01305 -0.44863,-1.39737 -0.23994,-2.91078 -0.24035,-4.36145 l -10e-4,-3.49946 -0.61551,-0.39876 c -3.39099,-2.19686 -6.95618,-7.39102 -8.13437,-11.85102 -0.12519,-0.41419 -1.21683,-5.01191 -0.11188,-9.1578 2.15432,-8.60054 10.51753,-16.18867 21.95541,-17.14503 1.65543,-0.29167 3.26835,-0.13654 4.92408,0.006 11.99307,1.03091 21.06469,9.09565 22.25679,19.78645 0.31721,1.38751 0.18334,2.6818 0.0114,4.06573 -0.66268,5.33285 -3.69886,10.55932 -8.07114,13.89367 l -1.10343,0.84148 v 3.50176 c -0.0433,1.44328 0.20646,2.88512 -0.25473,4.26258 -0.38753,1.15747 -1.23611,2.16685 -2.27623,2.7076 -1.12319,0.75717 -2.46949,0.53944 -3.77267,0.58339 l -2.8344,0.0956 -0.0753,-2.73199 -0.0753,-2.73199 -0.5284,-0.42738 c -0.29061,-0.23506 -0.77361,-0.42738 -1.07332,-0.42738 h -0.54494 l -0.54938,0.54938 -0.54938,0.54938 v 2.58413 2.58413 h -3.0216 -3.02159 v -2.58413 -2.58413 l -0.54939,-0.54938 -0.54938,-0.54938 h -0.5799 -0.5799 l -0.54938,0.54938 -0.54938,0.54938 v 2.58413 2.58413 l -2.40609,-0.024 c -1.32335,-0.0132 -2.84484,-0.12195 -3.38109,-0.24169 z m 5.4627,-19.01183 c 3.66728,-1.72383 3.61726,-5.64858 3.58198,-6.30638 -0.20751,-1.56425 -0.61239,-2.4291 -1.67882,-3.58604 -2.56287,-2.78039 -5.78958,-1.98532 -7.00979,-1.54001 -1.3846,0.61248 -2.50739,1.67823 -3.17099,3.0099 -1.15683,2.32144 -0.50098,4.43582 -0.0484,5.42973 1.6397,3.2423 5.0499,4.22417 8.32598,2.9928 z m 21.68443,-2.93483 c 1.58626,-2.96772 0.24771,-6.98535 -3.17099,-8.49762 -1.82995,-0.80947 -8.79548,-0.80051 -8.71077,6.37646 0.73691,6.22213 9.06527,7.77305 11.88176,2.12116 z"
           transform="translate(-1.0335026e-6)"
           sodipodi:nodetypes="ccccssssssssccssccccsscccccccccccccccccssccssssscssss" /><path
           id="path75"
           style="display:inline;fill:url(#radialGradient7);stroke:#000000;stroke-width:1.6704;stroke-dasharray:none;stroke-opacity:1"
           d="m 149.23061,150.03105 c -2.87407,0.50592 -5.60386,2.14445 -6.26031,5.59398 -0.21269,1.1177 -1.21031,1.58842 -2.20996,1.02934 -2.95895,-1.65481 -6.63782,-0.66008 -9.10921,1.48793 -2.47971,2.15523 -3.91818,5.63615 -2.1816,9.12149 1.54404,3.01632 5.04004,2.70391 8.3737,3.4411 0.57081,0.12624 1.721,0.38419 1.721,0.38419 1.36659,3.26869 4.5391,10.87982 4.5391,10.87982 4.53913,-3.72085 9.70431,-6.38587 15.18068,-7.96353 -1.66474,-3.60063 -4.80541,-10.19999 -4.80541,-10.19999 0.15682,-0.43013 0.46981,-1.27945 0.46981,-1.27945 1.35726,-3.67451 3.97126,-5.50885 3.09406,-8.93813 -0.12817,-1.21799 -1.06663,-2.18004 -2.39322,-2.81995 -1.74138,-0.83996 -4.16597,-1.13334 -6.41864,-0.7368 z m -45.35935,59.57999 c -0.43397,0.1057 -0.87695,0.3085 -1.32836,0.62455 -4.922352,2.55816 -5.459697,11.1704 -1.41314,14.75125 1.10374,0.97672 1.22685,2.02637 0.33523,2.81084 -3.811517,3.35348 -2.313805,12.08285 2.17016,14.64719 4.00614,1.80048 5.82003,-1.55057 8.20651,-5.98213 0.31825,-0.49325 0.96971,-1.48829 0.96971,-1.48829 2.97369,0.0173 6.42499,0.0145 10.56382,-0.017 3.74954,-0.0285 6.95565,-0.0721 6.95565,-0.0721 0.3479,-0.66442 1.05313,-2.0001 1.05313,-2.0001 -0.18618,-0.46625 -0.55647,-1.39855 -0.55647,-1.39855 -1.53371,-3.86941 -2.36058,-9.14466 -2.42038,-14.63043 -3.2226,0.14231 -6.60074,0.29752 -10.19448,0.46832 -3.23983,0.15397 -5.6389,0.27208 -5.6389,0.27208 -0.35361,-0.48993 -1.05229,-1.46424 -1.05229,-1.46424 -2.1146,-3.17851 -4.57832,-7.26951 -7.65019,-6.52134 z m 135.55692,0.63268 c -3.32252,0.30012 -3.60268,3.52393 -6.07174,6.1527 -0.28565,0.30443 -0.86659,0.91872 -0.86659,0.91872 -3.39276,-0.35308 -10.87621,-0.91464 -10.87621,-0.91464 1.14248,5.9271 1.23467,11.93718 0.13709,17.72987 2.25654,0.0469 4.70724,0.10717 7.27825,0.18576 2.33876,0.0715 4.10503,0.13835 4.10503,0.13835 0.37333,0.50988 1.10962,1.522 1.10962,1.522 2.14913,2.95809 3.45414,6.40774 6.63844,6.79985 3.62654,0.40384 5.7927,-2.19729 6.46032,-5.30222 0.66367,-3.08654 -0.0894,-6.98101 -2.72794,-9.28501 -0.89363,-0.78033 -0.9519,-1.90909 -0.13318,-2.49439 4.30436,-3.07719 1.63297,-10.76801 -1.66518,-14.02615 -1.11467,-1.10117 -2.32302,-1.7093 -3.38792,-1.42484 0,0 1e-5,0 1e-5,0 z m -40.53219,52.54965 c -4.80449,2.14416 -9.82437,3.51819 -13.93695,3.67122 -0.49531,0.0184 -1.48644,0.0543 -1.48644,0.0543 -0.41625,0.60945 -1.24628,1.81642 -1.24628,1.81642 1.67191,3.37089 3.5116,6.99898 5.44503,10.67228 1.76152,3.3467 3.09354,5.75858 3.09354,5.75858 -0.26803,0.50878 -0.80228,1.50824 -0.80228,1.50824 -2.63597,4.02188 -4.59538,7.08189 -0.91199,10.01658 4.62734,3.08263 12.76065,0.81033 13.67149,-3.94014 0.21669,-1.13027 1.17739,-1.43582 2.56358,-0.82196 5.06081,2.24144 11.98553,-1.7184 11.8182,-7.16439 0.43275,-4.36921 -5.04223,-5.14937 -9.37506,-5.96688 -0.58961,-0.13176 -1.77924,-0.40098 -1.77924,-0.40098 -2.20139,-4.68172 -4.51943,-9.6699 -7.0536,-15.20327 z"
           transform="rotate(-32.219192,87.521014,7.968776)"
           inkscape:original-d="m 157.34862,180.9566 c -1.88146,0.24824 -3.49928,1.5457 -3.60219,4.37585 -0.0326,0.89671 -0.65024,1.19239 -1.36879,0.65494 -4.33351,-3.24122 -9.62214,1.74508 -6.59703,7.01684 1.31258,2.24269 3.64068,2.30091 5.81842,3.00178 l 1.12647,0.36257 3.37317,7.05232 c 2.62401,-2.04106 5.62543,-3.49458 8.84249,-4.33623 l -3.29409,-6.88683 0.22932,-0.88414 c 0.66309,-2.56086 2.22824,-3.82151 1.47354,-6.7113 -0.1513,-1.01897 -0.81172,-1.90137 -1.72138,-2.54816 -1.19392,-0.84887 -2.81658,-1.29071 -4.27993,-1.09764 z m -28.15236,36.62245 c -0.37414,0.0407 -0.75955,0.138 -1.15783,0.30226 -4.45416,1.29611 -5.33011,6.42312 -1.47645,8.64191 1.01506,0.58444 1.09221,1.20815 0.20671,1.66606 -3.95971,2.04764 -3.28511,7.33412 1.11858,8.76495 3.75208,0.908 5.53901,-1.16549 7.60067,-3.74424 l 0.81317,-0.86041 12.34493,5.5e-4 0.68277,-1.08453 -0.35549,-0.76758 c -0.98232,-2.12172 -1.54208,-5.00689 -1.6558,-7.99631 l -11.01582,9e-5 -0.81337,-0.85987 c -1.63286,-1.84999 -3.6731,-4.34774 -6.29207,-4.06288 z m 86.65426,0.10931 c -2.93259,0.56606 -3.39466,2.52215 -5.41876,4.22531 l -0.69861,0.58831 -7.63413,-3.6e-4 c 0.62882,3.26533 0.61329,6.6007 -0.0958,9.84855 l 7.81716,-6.6e-4 0.81257,0.86002 c 1.57193,1.66217 2.62965,3.73692 5.21919,3.95335 6.06105,0.45435 8.27738,-6.46793 3.48357,-8.97877 -0.79488,-0.41633 -0.79455,-1.10092 3.3e-4,-1.51725 4.45998,-2.33599 2.48397,-6.90014 -0.44389,-8.52482 -0.97595,-0.54157 -2.05713,-0.75686 -3.04164,-0.45368 z m -27.27165,30.81595 c -2.74589,1.18729 -5.59108,1.92763 -7.92898,1.95693 l -0.84456,0.0105 -0.68452,1.08402 5.32717,11.13578 -0.42539,1.10476 c -1.43677,2.97256 -2.53596,5.47964 -0.0979,8.47269 3.19089,3.35529 8.2509,1.6827 8.38959,-2.77296 0.031,-0.9964 0.62655,-1.19575 1.59178,-0.53226 3.6644,2.51911 7.91187,-0.4833 7.15923,-5.06075 -0.18932,-3.4414 -3.8943,-4.327 -6.60682,-5.0982 l -1.12647,-0.36257 z" /></g></g></g></svg>
